<svg width="609" height="52" viewBox="0 0 609 52" fill="none" xmlns="http://www.w3.org/2000/svg">
<path d="M358.575 0.255859H250.425V51.6815H358.575V0.255859Z" fill="black"/>
<path d="M265.538 13.66H265.582L269.814 24.9149H274.086V9.52148H271.058V20.182H271.016L266.892 9.52148H262.512V24.9149H265.538V13.66Z" fill="white"/>
<path d="M282.023 22.8678C280.196 22.8678 279.958 21.1647 279.958 17.2208C279.958 13.275 280.196 11.5714 282.023 11.5714C282.988 11.5714 283.353 12.3409 283.353 14.386H286.533C286.662 11.0824 285.328 9.26953 282.023 9.26953C276.676 9.26953 276.676 13.1519 276.676 17.2208C276.676 21.25 276.676 25.172 282.023 25.172C285.051 25.172 286.705 23.8477 286.705 19.7354H283.505C283.459 20.9519 283.525 22.8678 282.023 22.8678Z" fill="white"/>
<path d="M303.158 20.7133C303.158 15.8769 296.625 16.1335 296.625 13.2134C296.625 12.1458 297.25 11.5714 298.303 11.5714C299.613 11.5714 299.805 12.744 299.805 13.8971H302.962C303.176 10.675 301.608 9.26953 298.456 9.26953C294.5 9.26953 293.343 11.1859 293.343 13.597C293.343 18.1825 299.868 18.35 299.868 21.1227C299.868 22.1665 299.335 22.8678 298.241 22.8678C296.453 22.8678 296.391 21.6336 296.391 20.1623H293.148C292.976 22.8263 293.727 25.172 297.745 25.172C300.212 25.172 303.158 24.7045 303.158 20.7133Z" fill="white"/>
<path d="M307.863 24.9149H311.105V12.0838H314.716V9.52148H304.254V12.0838H307.863V24.9149Z" fill="white"/>
<path d="M318.471 19.1405L319.949 12.4874H319.993L321.562 19.1405H318.471ZM318.036 9.52148L313.747 24.9149H316.945L317.826 21.5058H322.25L323.108 24.9149H326.523L322.312 9.52148H318.036Z" fill="white"/>
<path d="M332.37 24.9149V12.0838H335.98V9.52148H325.517V12.0838H329.13V24.9149H332.37Z" fill="white"/>
<path d="M346.127 22.5496H340.732V18.0552H345.545V15.6856H340.732V11.8892H345.951V9.52148H337.485V24.9149H346.127V22.5496Z" fill="white"/>
<path d="M268.801 37.7494C268.801 39.3876 268.801 41.7252 266.215 41.7252C263.634 41.7252 263.634 39.3876 263.634 37.7494V29.832H262.512V38.5723C262.512 41.8145 264.232 42.6674 266.215 42.6674C268.202 42.6674 269.92 41.8145 269.92 38.5723V29.832H268.801V37.7494Z" fill="white"/>
<path d="M280.148 40.8503L280.115 40.8861L274.969 29.832H273.245V42.4189H274.373V31.2852L274.407 31.2494L279.569 42.4189H281.272V29.832H280.148V40.8503Z" fill="white"/>
<path d="M285.93 29.832H284.809V42.4184H285.93V29.832Z" fill="white"/>
<path d="M292.497 41.0989H292.468L289.463 29.832H288.266L291.798 42.4189H293.202L296.715 29.832H295.628L292.497 41.0989Z" fill="white"/>
<path d="M300.122 36.4255H304.538V35.4814H300.122V30.7761H304.746V29.832H299.002V42.4189H304.871V41.4805H300.122V36.4255Z" fill="white"/>
<path d="M310.422 35.376H308.594V30.7761H310.895C312.209 30.7761 312.898 31.1106 312.898 32.8337C312.898 34.9466 312.11 35.376 310.422 35.376ZM312.056 35.885V35.8512C313.759 35.4657 314.023 34.4219 314.023 32.8538C314.023 30.6411 313.41 29.832 310.965 29.832H307.476V42.4189H308.594V36.3201H310.723C313.16 36.3201 312.791 38.7436 312.807 39.286C312.831 39.962 312.877 42.0549 312.984 42.4189H314.055C314.023 41.9337 313.933 41.4447 313.933 40.9557C313.933 36.4594 313.829 36.2505 312.056 35.885Z" fill="white"/>
<path d="M320.49 35.4319C319.05 34.4024 318.101 34.3523 318.101 32.4841C318.101 31.0052 318.964 30.532 320.33 30.532C322.054 30.532 322.443 31.478 322.477 33.0247H323.615C323.615 31.2156 323.056 29.5879 320.42 29.5879C318.351 29.5879 316.961 30.4962 316.973 32.675C316.997 33.933 317.103 34.6825 319.563 36.1814C321.385 37.2982 322.529 37.7834 322.529 39.4927C322.529 40.9401 321.808 41.7254 320.33 41.7254C318.065 41.7254 317.962 40.276 317.962 38.8825H316.801C316.699 41.3394 317.802 42.6676 320.278 42.6676C322.493 42.6676 323.651 41.5703 323.651 39.3219C323.651 36.8789 322.054 36.5492 320.49 35.4319Z" fill="white"/>
<path d="M327.942 29.832H326.819V42.4184H327.942V29.832Z" fill="white"/>
<path d="M330.368 30.7761H333.458V42.4189H334.583V30.7761H337.674V29.832H330.368V30.7761Z" fill="white"/>
<path d="M346.143 29.832L343.103 36.0954L340.205 29.832H338.938L342.52 37.1927V42.4189H343.65V37.1927L347.265 29.832H346.143Z" fill="white"/>
<path d="M371.024 21.3924V5.95703H373.373L377.961 19.8973H378.005L382.527 5.95703H384.726V21.3924H383.349V7.28136H383.305L378.736 21.3924H377.144L372.446 7.28136H372.404V21.3924H371.024Z" fill="black"/>
<path d="M388.646 15.9845C388.646 18.8053 388.968 20.5805 391.102 20.5805C393.234 20.5805 393.557 18.8053 393.557 15.9845C393.557 13.1798 393.234 11.407 391.102 11.407C388.968 11.407 388.646 13.1798 388.646 15.9845ZM387.354 17.1595V14.8257C387.354 12.0272 388.56 10.3809 391.102 10.3809C393.643 10.3809 394.851 12.0272 394.851 14.8257V17.1595C394.851 19.9603 393.643 21.6062 391.102 21.6062C388.56 21.6062 387.354 19.9603 387.354 17.1595Z" fill="black"/>
<path d="M397.37 21.3924V10.5965H398.662V21.3924H397.37ZM397.218 7.57905V5.95703H398.812V7.57905H397.218Z" fill="black"/>
<path d="M404.33 21.6062C401.98 21.6062 401.055 20.4708 401.077 18.1852H402.391C402.391 19.6602 402.736 20.642 404.394 20.642C405.644 20.642 406.246 19.9403 406.246 18.7395C406.246 15.9172 401.357 16.6466 401.357 13.0767C401.357 11.0845 402.736 10.3809 404.632 10.3809C406.787 10.3809 407.476 11.8559 407.476 13.5018H406.204C406.14 12.1322 405.774 11.407 404.308 11.407C403.382 11.407 402.649 12.0053 402.649 12.967C402.649 15.6605 407.54 14.9349 407.54 18.5511C407.54 20.5805 406.356 21.6062 404.33 21.6062Z" fill="black"/>
<path d="M415.825 15.2355C415.825 12.8377 415.439 11.407 413.37 11.407C411.303 11.407 410.915 12.8377 410.915 15.2355H415.825ZM410.915 16.2588V17.0936C410.915 18.5926 411.324 20.5805 413.37 20.5805C414.989 20.5805 415.784 19.5548 415.761 18.0998H417.119C416.969 20.7074 415.547 21.6062 413.37 21.6062C411.496 21.6062 409.623 20.8605 409.623 17.5869V14.9349C409.623 11.8144 410.937 10.3809 413.37 10.3809C417.119 10.3809 417.119 13.0524 417.119 16.2588H410.915Z" fill="black"/>
<path d="M431.413 16.1743L428.763 7.45215H428.722L426.092 16.1743H431.413ZM429.627 5.95703L434.473 21.3924H433.029L431.781 17.3312H425.683L424.455 21.3924H423.078L427.99 5.95703H429.627Z" fill="black"/>
<path d="M438.357 19.7695H436.761V21.3915H438.357V19.7695Z" fill="black"/>
<path d="M446.278 21.3924V5.95703H447.655V13.0338H447.698L453.213 5.95703H454.874L449.056 13.1631L455.048 21.3924H453.323L447.698 13.4808H447.655V21.3924H446.278Z" fill="black"/>
<path d="M457.074 21.3924V5.95703H458.37V11.9203H458.412C459.035 11.022 459.876 10.3818 461.042 10.3818C463.732 10.3818 464.014 12.3697 464.014 13.779V21.3924H462.718V13.8448C462.718 12.5844 462.226 11.408 460.715 11.408C459.554 11.408 458.37 12.1989 458.37 14.6138V21.3924H457.074Z" fill="black"/>
<path d="M472.189 15.8752C470.339 15.941 467.539 15.7283 467.539 18.3559C467.539 19.5744 468.16 20.5805 469.498 20.5805C470.983 20.5805 472.189 19.2523 472.189 17.8431V15.8752ZM472.275 20.0676H472.231C471.544 21.0933 470.487 21.6062 469.153 21.6062C467.215 21.6062 466.157 20.3 466.157 18.4218C466.157 14.6367 469.99 15.0203 472.189 14.8495V13.9531C472.189 12.3688 471.716 11.407 469.99 11.407C468.811 11.407 467.86 11.9852 467.86 13.2652H466.482C466.588 11.1923 468.204 10.3809 470.1 10.3809C471.2 10.3809 473.483 10.4863 473.483 13.2475V18.678C473.483 19.4475 473.483 20.1292 473.613 21.3915H472.275V20.0676Z" fill="black"/>
<path d="M478.58 21.4155L475.131 10.5957H476.531L479.183 19.4476H479.227L481.789 10.5957H483.082L478.58 25.4763H477.31L478.58 21.4155Z" fill="black"/>
<path d="M486.259 12.0468H486.303C486.838 11.0211 487.981 10.3809 489.295 10.3809V11.6852C487.464 11.5339 486.259 12.6254 486.259 14.4421V21.3915H484.965V10.5955H486.259V12.0468Z" fill="black"/>
<path d="M496.633 15.8752C494.779 15.941 491.979 15.7283 491.979 18.3559C491.979 19.5744 492.604 20.5805 493.937 20.5805C495.426 20.5805 496.633 19.2523 496.633 17.8431V15.8752ZM496.719 20.0676H496.677C495.984 21.0933 494.931 21.6062 493.595 21.6062C491.654 21.6062 490.601 20.3 490.601 18.4218C490.601 14.6367 494.434 15.0203 496.633 14.8495V13.9531C496.633 12.3688 496.161 11.407 494.434 11.407C493.251 11.407 492.303 11.9852 492.303 13.2652H490.923C491.031 11.1923 492.647 10.3809 494.54 10.3809C495.64 10.3809 497.925 10.4863 497.925 13.2475V18.678C497.925 19.4475 497.925 20.1292 498.053 21.3915H496.719V20.0676Z" fill="black"/>
<path d="M502.055 5.95703H500.761V21.392H502.055V5.95703Z" fill="black"/>
<path d="M506.342 5.95703H505.051V21.392H506.342V5.95703Z" fill="black"/>
<path d="M514.724 15.8752C512.873 15.941 510.074 15.7283 510.074 18.3559C510.074 19.5744 510.694 20.5805 512.033 20.5805C513.52 20.5805 514.724 19.2523 514.724 17.8431V15.8752ZM514.81 20.0676H514.768C514.079 21.0933 513.024 21.6062 511.688 21.6062C509.749 21.6062 508.692 20.3 508.692 18.4218C508.692 14.6367 512.525 15.0203 514.724 14.8495V13.9531C514.724 12.3688 514.251 11.407 512.525 11.407C511.345 11.407 510.392 11.9852 510.392 13.2652H509.018C509.122 11.1923 510.739 10.3809 512.633 10.3809C513.735 10.3809 516.02 10.4863 516.02 13.2475V18.678C516.02 19.4475 516.02 20.1292 516.148 21.3915H514.81V20.0676Z" fill="black"/>
<path d="M518.644 21.3924V5.95703H519.939V11.9203H519.981C520.604 11.022 521.445 10.3818 522.611 10.3818C525.303 10.3818 525.583 12.3697 525.583 13.779V21.3924H524.289V13.8448C524.289 12.5844 523.796 11.408 522.286 11.408C521.125 11.408 519.939 12.1989 519.939 14.6138V21.3924H518.644Z" fill="black"/>
<path d="M532.769 13.6727C532.769 9.50464 532.813 5.65234 537.463 5.65234C541.235 5.65234 541.301 8.73561 541.301 10.1248H539.919C539.919 8.41311 539.446 6.80922 537.463 6.80922C534.189 6.80922 534.147 9.56618 534.147 13.6727C534.147 17.7779 534.189 20.5387 537.463 20.5387C539.254 20.5387 539.919 18.9543 539.943 16.9669H541.407C541.407 18.0799 541.148 21.6917 537.463 21.6917C532.813 21.6917 532.769 17.8432 532.769 13.6727Z" fill="black"/>
<path d="M549.714 15.2355C549.714 12.8377 549.328 11.407 547.257 11.407C545.192 11.407 544.806 12.8377 544.806 15.2355H549.714ZM544.806 16.2588V17.0936C544.806 18.5926 545.212 20.5805 547.257 20.5805C548.877 20.5805 549.672 19.5548 549.652 18.0998H551.008C550.856 20.7074 549.436 21.6062 547.257 21.6062C545.384 21.6062 543.51 20.8605 543.51 17.5869V14.9349C543.51 11.8144 544.825 10.3809 547.257 10.3809C551.008 10.3809 551.008 13.0524 551.008 16.2588H544.806Z" fill="black"/>
<path d="M554.607 21.3915H553.313V10.5955H554.607V11.9194H554.651C555.272 11.0211 556.113 10.3809 557.279 10.3809C559.97 10.3809 560.253 12.3688 560.253 13.778V21.3915H558.957V13.8439C558.957 12.5835 558.465 11.407 556.954 11.407C555.792 11.407 554.607 12.198 554.607 14.6129V21.3915Z" fill="black"/>
<path d="M561.997 11.619V10.5953H563.746V8.36928L565.035 7.81445V10.5953H567.234V11.619H565.035V18.5508C565.035 19.982 565.189 20.3236 566.221 20.3236C566.652 20.3236 566.952 20.2997 567.234 20.2582V21.3712C566.848 21.4151 566.413 21.4346 566.007 21.4346C564.262 21.4346 563.746 20.6656 563.746 19.3379V11.619H561.997Z" fill="black"/>
<path d="M575.003 15.2355C575.003 12.8377 574.617 11.407 572.546 11.407C570.477 11.407 570.09 12.8377 570.09 15.2355H575.003ZM570.09 16.2588V17.0936C570.09 18.5926 570.501 20.5805 572.546 20.5805C574.162 20.5805 574.959 19.5548 574.937 18.0998H576.293C576.145 20.7074 574.721 21.6062 572.546 21.6062C570.673 21.6062 568.798 20.8605 568.798 17.5869V14.9349C568.798 11.8144 570.114 10.3809 572.546 10.3809C576.293 10.3809 576.293 13.0524 576.293 16.2588H570.09Z" fill="black"/>
<path d="M579.94 12.0468H579.982C580.519 11.0211 581.66 10.3809 582.974 10.3809V11.6852C581.144 11.5339 579.94 12.6254 579.94 14.4421V21.3915H578.644V10.5955H579.94V12.0468Z" fill="black"/>
<path d="M590.036 11.6197H588.292V10.5959H590.036V8.77928C590.036 7.74977 590.188 5.87109 592.816 5.87109C593.008 5.87109 593.224 5.91308 593.549 5.95649V7.02416H592.577C591.326 7.02416 591.326 8.13333 591.326 8.75542V10.5959H593.525V11.6197H591.326V21.3919H590.036V11.6197Z" fill="black"/>
<path d="M596.064 15.9845C596.064 18.8053 596.388 20.5805 598.52 20.5805C600.652 20.5805 600.977 18.8053 600.977 15.9845C600.977 13.1798 600.652 11.407 598.52 11.407C596.388 11.407 596.064 13.1798 596.064 15.9845ZM594.772 17.1595V14.8257C594.772 12.0272 595.978 10.3809 598.52 10.3809C601.063 10.3809 602.267 12.0272 602.267 14.8257V17.1595C602.267 19.9603 601.063 21.6062 598.52 21.6062C595.978 21.6062 594.772 19.9603 594.772 17.1595Z" fill="black"/>
<path d="M605.882 12.0468H605.924C606.461 11.0211 607.602 10.3809 608.918 10.3809V11.6852C607.085 11.5339 605.882 12.6254 605.882 14.4421V21.3915H604.586V10.5955H605.882V12.0468Z" fill="black"/>
<path d="M370.938 45.8435V30.4023H372.318V44.6866H377.467V45.8435H370.938Z" fill="black"/>
<path d="M384.871 39.6803C384.871 37.2893 384.484 35.8581 382.415 35.8581C380.349 35.8581 379.96 37.2893 379.96 39.6803H384.871ZM379.96 40.7098V41.5452C379.96 43.0398 380.369 45.0278 382.415 45.0278C384.031 45.0278 384.829 44.0021 384.807 42.5508H386.165C386.014 45.1547 384.592 46.0554 382.415 46.0554C380.541 46.0554 378.668 45.3078 378.668 42.0337V39.3822C378.668 36.2617 379.982 34.8281 382.415 34.8281C386.165 34.8281 386.165 37.504 386.165 40.7098H379.96Z" fill="black"/>
<path d="M392.083 45.0287C394.472 45.0287 394.538 42.9968 394.538 40.4746C394.538 37.95 394.472 35.859 392.083 35.859C389.992 35.859 389.734 38.6575 389.734 40.2838C389.734 41.9912 389.734 45.0287 392.083 45.0287ZM388.356 45.8435C388.42 45.4776 388.484 45.136 388.484 44.772V30.4023H389.778V36.2626L389.82 36.3041C390.487 35.2784 391.35 34.829 392.578 34.829C396.112 34.829 395.83 38.5086 395.83 40.4307C395.83 42.8079 395.636 46.0563 392.47 46.0563C391.2 46.0563 390.272 45.5453 389.734 44.5397H389.692V45.8435H388.356Z" fill="black"/>
<path d="M403.749 40.3263C401.896 40.3878 399.096 40.1732 399.096 42.807C399.096 44.0254 399.719 45.0278 401.055 45.0278C402.543 45.0278 403.749 43.7034 403.749 42.2904V40.3263ZM403.835 44.5144H403.793C403.102 45.5444 402.049 46.0554 400.713 46.0554C398.772 46.0554 397.716 44.7511 397.716 42.8686C397.716 39.084 401.552 39.4676 403.749 39.2968V38.4004C403.749 36.8161 403.276 35.8581 401.552 35.8581C400.368 35.8581 399.419 36.4325 399.419 37.7163H398.041C398.147 35.6434 399.764 34.8281 401.658 34.8281C402.758 34.8281 405.043 34.9374 405.043 37.6924V43.1252C405.043 43.8966 405.043 44.5803 405.171 45.8426H403.835V44.5144Z" fill="black"/>
<path d="M408.962 45.8426H407.669V35.0409H408.962V36.3686H409.004C409.629 35.4683 410.47 34.8281 411.634 34.8281C414.325 34.8281 414.606 36.8161 414.606 38.2291V45.8426H413.314V38.2911C413.314 37.0326 412.819 35.8581 411.311 35.8581C410.148 35.8581 408.962 36.6453 408.962 39.064V45.8426Z" fill="black"/>
<path d="M423.14 39.6803C423.14 37.2893 422.751 35.8581 420.683 35.8581C418.615 35.8581 418.229 37.2893 418.229 39.6803H423.14ZM418.229 40.7098V41.5452C418.229 43.0398 418.637 45.0278 420.683 45.0278C422.3 45.0278 423.095 44.0021 423.076 42.5508H424.432C424.281 45.1547 422.859 46.0554 420.683 46.0554C418.81 46.0554 416.935 45.3078 416.935 42.0337V39.3822C416.935 36.2617 418.249 34.8281 420.683 34.8281C424.432 34.8281 424.432 37.504 424.432 40.7098H418.229Z" fill="black"/>
<path d="M429.757 46.0554C427.407 46.0554 426.482 44.9223 426.504 42.6362H427.818C427.818 44.1113 428.163 45.0931 429.821 45.0931C431.071 45.0931 431.671 44.3875 431.671 43.1911C431.671 40.3683 426.783 41.0939 426.783 37.5216C426.783 35.5337 428.163 34.8281 430.057 34.8281C432.212 34.8281 432.899 36.3032 432.899 37.9491H431.629C431.565 36.5837 431.199 35.8581 429.735 35.8581C428.808 35.8581 428.077 36.4544 428.077 37.4181C428.077 40.1116 432.967 39.3822 432.967 42.9959C432.967 45.0278 431.781 46.0554 429.757 46.0554Z" fill="black"/>
<path d="M441.251 39.6803C441.251 37.2893 440.864 35.8581 438.795 35.8581C436.728 35.8581 436.342 37.2893 436.342 39.6803H441.251ZM436.342 40.7098V41.5452C436.342 43.0398 436.748 45.0278 438.795 45.0278C440.413 45.0278 441.209 44.0021 441.189 42.5508H442.546C442.394 45.1547 440.974 46.0554 438.795 46.0554C436.921 46.0554 435.048 45.3078 435.048 42.0337V39.3822C435.048 36.2617 436.362 34.8281 438.795 34.8281C442.546 34.8281 442.546 37.504 442.546 40.7098H436.342Z" fill="black"/>
<path d="M451.219 44.6866H452.897C457.054 44.6866 457.465 43.5755 457.465 37.2663C457.465 32.8416 456.864 31.5592 453.027 31.5592H451.219V44.6866ZM449.837 30.4023H453.954C458.306 30.4023 458.847 32.927 458.847 38.1866C458.847 43.3208 458.092 45.8435 453.394 45.8435H449.837V30.4023Z" fill="black"/>
<path d="M461.659 45.8435V35.0418H462.951V45.8435H461.659ZM461.507 32.0306V30.4023H463.103V32.0306H461.507Z" fill="black"/>
<path d="M471.332 40.3263C469.481 40.3878 466.681 40.1732 466.681 42.807C466.681 44.0254 467.304 45.0278 468.643 45.0278C470.128 45.0278 471.332 43.7034 471.332 42.2904V40.3263ZM471.418 44.5144H471.376C470.687 45.5444 469.632 46.0554 468.298 46.0554C466.357 46.0554 465.302 44.7511 465.302 42.8686C465.302 39.084 469.135 39.4676 471.332 39.2968V38.4004C471.332 36.8161 470.859 35.8581 469.135 35.8581C467.953 35.8581 467.002 36.4325 467.002 37.7163H465.626C465.73 35.6434 467.347 34.8281 469.243 34.8281C470.343 34.8281 472.628 34.9374 472.628 37.6924V43.1252C472.628 43.8966 472.628 44.5803 472.756 45.8426H471.418V44.5144Z" fill="black"/>
<path d="M478.148 46.0554C475.8 46.0554 474.873 44.9223 474.897 42.6362H476.211C476.211 44.1113 476.555 45.0931 478.214 45.0931C479.461 45.0931 480.064 44.3875 480.064 43.1911C480.064 40.3683 475.173 41.0939 475.173 37.5216C475.173 35.5337 476.555 34.8281 478.448 34.8281C480.603 34.8281 481.292 36.3032 481.292 37.9491H480.02C479.958 36.5837 479.59 35.8581 478.127 35.8581C477.2 35.8581 476.469 36.4544 476.469 37.4181C476.469 40.1116 481.358 39.3822 481.358 42.9959C481.358 45.0278 480.172 46.0554 478.148 46.0554Z" fill="black"/>
<path d="M484.895 41.394C484.895 43.8547 486.017 45.0278 487.202 45.0278C489.335 45.0278 489.655 43.2526 489.655 40.4298C489.655 37.6309 489.335 35.8581 487.202 35.8581C486.361 35.8581 484.895 36.796 484.895 39.4676V41.394ZM484.851 36.3471L484.895 36.3271C485.583 35.2775 486.663 34.8281 487.522 34.8281C490.925 34.8281 490.949 37.7783 490.949 39.1914V41.6067C490.949 44.4095 489.98 46.0554 487.202 46.0554C486.405 46.0554 485.606 45.6713 484.937 44.6418L484.895 44.6242V49.9272H483.603V35.0409H484.851V36.3471Z" fill="black"/>
<path d="M494.266 40.4298C494.266 43.2526 494.592 45.0278 496.723 45.0278C498.854 45.0278 499.18 43.2526 499.18 40.4298C499.18 37.6309 498.854 35.8581 496.723 35.8581C494.592 35.8581 494.266 37.6309 494.266 40.4298ZM492.976 41.6067V39.2767C492.976 36.474 494.18 34.8281 496.723 34.8281C499.267 34.8281 500.47 36.474 500.47 39.2767V41.6067C500.47 44.4095 499.267 46.0554 496.723 46.0554C494.18 46.0554 492.976 44.4095 492.976 41.6067Z" fill="black"/>
<path d="M504.159 36.4978H504.202C504.738 35.4683 505.88 34.8281 507.194 34.8281V36.1324C505.363 35.985 504.159 37.0765 504.159 38.8932V45.8426H502.863V35.0409H504.159V36.4978Z" fill="black"/>
<path d="M514.534 40.3263C512.679 40.3878 509.877 40.1732 509.877 42.807C509.877 44.0254 510.504 45.0278 511.838 45.0278C513.324 45.0278 514.534 43.7034 514.534 42.2904V40.3263ZM514.62 44.5144H514.576C513.883 45.5444 512.831 46.0554 511.494 46.0554C509.551 46.0554 508.502 44.7511 508.502 42.8686C508.502 39.084 512.335 39.4676 514.534 39.2968V38.4004C514.534 36.8161 514.059 35.8581 512.335 35.8581C511.149 35.8581 510.202 36.4325 510.202 37.7163H508.822C508.932 35.6434 510.546 34.8281 512.439 34.8281C513.538 34.8281 515.823 34.9374 515.823 37.6924V43.1252C515.823 43.8966 515.823 44.5803 515.954 45.8426H514.62V44.5144Z" fill="black"/>
<path d="M530.035 34.3155C529.991 32.4135 529.519 31.2566 527.406 31.2566C525.723 31.2566 524.668 31.8348 524.668 33.6519C524.668 35.9418 525.833 36.0053 527.598 37.2657C529.519 38.6372 531.479 39.0404 531.479 42.0339C531.479 44.7952 530.055 46.141 527.339 46.141C524.303 46.141 522.947 44.5147 523.075 41.5015H524.496C524.496 43.2109 524.625 44.9841 527.406 44.9841C529.214 44.9841 530.097 44.0257 530.097 42.2467C530.097 40.1557 528.697 39.5537 526.456 38.1859C523.44 36.3473 523.31 35.4266 523.292 33.8881C523.268 31.2146 524.97 30.1035 527.512 30.1035C530.742 30.1035 531.435 32.0914 531.435 34.3155H530.035Z" fill="black"/>
<path d="M532.933 36.0721V35.0426H534.681V32.8185L535.973 32.2637V35.0426H538.17V36.0721H535.973V42.9976C535.973 44.4307 536.125 44.7728 537.157 44.7728C537.587 44.7728 537.89 44.7527 538.17 44.7112V45.8204C537.784 45.8638 537.349 45.8858 536.943 45.8858C535.198 45.8858 534.681 45.1148 534.681 43.791V36.0721H532.933Z" fill="black"/>
<path d="M546.91 35.043V45.8447H545.787V44.6439H545.745C544.993 45.5641 544.215 46.0574 543.009 46.0574C540.768 46.0574 540.143 44.4311 540.143 42.6803V35.043H541.437V42.4675C541.437 42.7657 541.371 45.0298 543.245 45.0298C544.993 45.0298 545.614 43.4054 545.614 42.6564V35.043H546.91Z" fill="black"/>
<path d="M555.268 41.4168V39.4923C555.268 38.8507 555.268 35.859 552.833 35.859C550.507 35.859 550.507 37.95 550.507 40.4746C550.507 44.4958 551.475 45.0287 552.874 45.0287C554.102 45.0287 555.268 44.0464 555.268 41.4168ZM555.332 44.4719L555.288 44.4958C554.623 45.5215 553.802 46.0563 552.53 46.0563C549.386 46.0563 549.214 42.9553 549.214 40.4307C549.214 38.3574 549.214 34.829 552.554 34.829C553.544 34.829 554.513 35.2784 555.182 36.1152L555.226 36.1333V30.4023H556.515V43.7043C556.515 44.772 556.584 45.4776 556.646 45.8435H555.398L555.332 44.4719Z" fill="black"/>
<path d="M559.346 45.8435V35.0418H560.64V45.8435H559.346ZM559.195 32.0306V30.4023H560.788V32.0306H559.195Z" fill="black"/>
<path d="M569.351 39.6803C569.351 37.2893 568.963 35.8581 566.894 35.8581C564.829 35.8581 564.443 37.2893 564.443 39.6803H569.351ZM564.443 40.7098V41.5452C564.443 43.0398 564.849 45.0278 566.894 45.0278C568.514 45.0278 569.307 44.0021 569.287 42.5508H570.645C570.493 45.1547 569.073 46.0554 566.894 46.0554C565.021 46.0554 563.147 45.3078 563.147 42.0337V39.3822C563.147 36.2617 564.46 34.8281 566.894 34.8281C570.645 34.8281 570.645 37.504 570.645 40.7098H564.443Z" fill="black"/>
<path d="M575.968 46.0554C573.619 46.0554 572.696 44.9223 572.714 42.6362H574.03C574.03 44.1113 574.372 45.0931 576.032 45.0931C577.284 45.0931 577.885 44.3875 577.885 43.1911C577.885 40.3683 572.996 41.0939 572.996 37.5216C572.996 35.5337 574.372 34.8281 576.271 34.8281C578.426 34.8281 579.115 36.3032 579.115 37.9491H577.843C577.777 36.5837 577.412 35.8581 575.946 35.8581C575.019 35.8581 574.288 36.4544 574.288 37.4181C574.288 40.1116 579.177 39.3822 579.177 42.9959C579.177 45.0278 577.995 46.0554 575.968 46.0554Z" fill="black"/>
<path d="M236.555 16.1247C236.555 15.1806 236.365 14.4235 236.006 13.8567C235.54 13.165 234.865 12.8292 233.976 12.8292C233.004 12.8292 232.285 13.2089 231.799 13.9421C231.396 14.5504 231.186 15.3495 231.186 16.3776C231.186 17.3198 231.396 18.0969 231.799 18.6851C232.285 19.3749 232.982 19.7127 233.892 19.7127C235.668 19.7127 236.555 18.5162 236.555 16.1247ZM238.269 16.2721C238.269 17.6337 237.887 18.749 237.126 19.6292C236.323 20.5714 235.245 21.0347 233.892 21.0347C232.265 21.0347 231.035 20.4264 230.234 19.208H226.155V17.7391H229.619C229.495 17.3016 229.433 16.8169 229.433 16.2941C229.433 14.9063 229.832 13.7756 230.635 12.8711C231.44 11.9704 232.538 11.5311 233.911 11.5311C235.289 11.5311 236.387 11.9905 237.17 12.8926C237.909 13.7518 238.269 14.8867 238.269 16.2721ZM226.788 19.208H223.153C222.75 21.3705 221.312 22.5035 218.859 22.6509V21.2436C220.827 21.2436 221.821 20.174 221.821 17.6995V9.68243H223.299V17.7391H226.788V19.208ZM217.275 17.0908V19.208H202.623V17.7391H215.476C215.5 17.4886 215.518 17.2363 215.518 16.9858C215.518 15.3695 215.139 14.0695 214.356 13.1035C213.447 11.9704 212.095 11.4042 210.297 11.4042H205.943C206.704 10.0383 207.781 8.12816 209.177 5.65315H210.932L208.416 9.95484H210.297C212.432 9.95484 214.146 10.6051 215.414 11.9265C216.662 13.2308 217.275 14.9502 217.275 17.0908ZM203.68 19.208H200.213C199.642 21.3705 198.204 22.5035 195.753 22.6509V21.2436C197.717 21.2436 198.711 20.174 198.711 17.6995V9.68243H200.191V17.7391H203.68V19.208ZM200.213 8.17205H198.711V6.38878H200.213V8.17205ZM188.691 16.1247C188.691 15.1806 188.501 14.4235 188.14 13.8567C187.676 13.165 186.999 12.8292 186.111 12.8292C185.138 12.8292 184.419 13.2089 183.934 13.9421C183.532 14.5504 183.321 15.3495 183.321 16.3776C183.321 17.3198 183.532 18.0969 183.934 18.6851C184.419 19.3749 185.118 19.7127 186.027 19.7127C187.804 19.7127 188.691 18.5162 188.691 16.1247ZM190.404 16.2721C190.404 17.6337 190.023 18.749 189.262 19.6292C188.459 20.5714 187.381 21.0347 186.027 21.0347C184.399 21.0347 183.173 20.4264 182.368 19.208H178.291V17.7391H181.755C181.631 17.3016 181.565 16.8169 181.565 16.2941C181.565 14.9063 181.968 13.7756 182.771 12.8711C183.574 11.9704 184.676 11.5311 186.049 11.5311C187.423 11.5311 188.521 11.9905 189.304 12.8926C190.043 13.7518 190.404 14.8867 190.404 16.2721ZM174.609 17.7391V13.3143C174.609 12.7061 174.42 12.1794 174.039 11.76C173.618 11.2768 173.026 11.0244 172.242 11.0244C171.439 11.0244 170.782 11.4042 170.278 12.1393C169.833 12.7876 169.601 13.5228 169.601 14.32C169.601 15.1587 169.791 15.9162 170.192 16.5641C170.678 17.3613 171.333 17.761 172.158 17.761L174.609 17.7391ZM178.88 19.208H175.963C175.541 21.3705 174.103 22.5035 171.672 22.6509V21.2436H171.862C173.216 21.2436 174.083 20.5519 174.441 19.208H172.136C170.953 19.208 169.981 18.7686 169.22 17.8684C168.459 16.9639 168.077 15.8308 168.077 14.4693C168.077 13.1035 168.479 11.9704 169.282 11.0483C170.108 10.1237 171.121 9.66287 172.326 9.66287C174.674 9.66287 176.132 11.0898 176.132 13.8567V17.761H178.88V19.208ZM162.517 22.4181H161.017V20.6354H162.517V22.4181ZM165.287 22.4181H163.787V20.6354H165.287V22.4181ZM165.309 9.68243V15.5145C165.309 17.9695 164.273 19.208 162.201 19.208H160.34V17.761H161.714C162.623 17.761 163.216 17.4686 163.512 16.8823C163.722 16.5025 163.829 15.8308 163.829 14.8667V9.68243H165.309ZM155.499 22.4181H153.999V20.6354H155.499V22.4181ZM158.267 22.4181H156.767V20.6354H158.267V22.4181ZM160.594 19.208H153.3V17.761H154.652C155.563 17.761 156.154 17.4686 156.45 16.9004C156.661 16.5025 156.767 15.8308 156.767 14.8667V9.68243H158.247V15.5145C158.247 16.4191 158.121 17.1723 157.846 17.7391H160.594V19.208ZM153.765 19.208H150.298C149.727 21.3705 148.289 22.5035 145.836 22.6509V21.2436C147.803 21.2436 148.798 20.174 148.798 17.6995V9.68243H150.278V17.7391H153.765V19.208ZM150.298 8.17205H148.798V6.38878H150.298V8.17205ZM140.489 17.0908V19.208H125.839V17.7391H138.692C138.712 17.4686 138.734 17.2162 138.734 16.9858C138.734 13.4374 136.851 11.4042 133.533 11.4042C131.734 11.4042 130.403 12.0935 129.557 13.4813C129.347 13.2485 128.925 12.8291 128.268 12.1794C129.473 10.6905 131.206 9.95484 133.511 9.95484C137.719 9.95484 140.489 12.7261 140.489 17.0908ZM134.21 8.17205H132.708V6.38878H134.21V8.17205ZM121.25 22.4181H119.748V20.6354H121.25V22.4181ZM124.02 22.4181H122.518V20.6354H124.02V22.4181ZM126.345 19.208H119.051V17.761H120.405C121.312 17.761 121.905 17.4686 122.199 16.9004C122.414 16.5025 122.518 15.8308 122.518 14.8667V9.68243H123.998V15.5145C123.998 16.4191 123.87 17.1723 123.595 17.7391H126.345V19.208ZM119.515 19.208H115.881C115.478 21.3705 114.04 22.5035 111.587 22.6509V21.2436C113.553 21.2436 114.547 20.174 114.547 17.6995V9.68243H116.027V17.7391H119.515V19.208ZM109.768 19.208H108.288V5.63359H109.768V19.208ZM88.9217 12.4971V8.78031H86.2396C84.5693 8.78031 83.4258 10.4815 83.4258 12.6822C83.4258 14.8228 84.5452 16.608 86.1958 16.608C88.0142 16.608 88.9217 15.2445 88.9217 12.4971ZM105.456 5.63359V15.5145C105.456 17.9695 104.421 19.208 102.348 19.208H92.9833C90.89 19.208 89.5581 18.1823 88.9452 16.1447C88.3108 17.2162 87.2312 17.761 85.7089 17.761C83.5541 17.761 81.9458 15.5584 81.9458 12.7657C81.9458 9.78596 83.5541 7.69069 85.9632 7.69069H90.4454V14.4235C90.4454 16.5445 91.461 17.761 93.1515 17.761H94.6733C96.2177 17.761 96.7882 17.1108 96.7882 14.8667V5.63359H98.2662V15.5145C98.2662 16.4191 98.1201 17.1723 97.8437 17.7391H101.861C103.361 17.7391 103.954 17.1723 103.954 14.8667V5.63359H105.456ZM98.9872 2.63381C99.0295 2.80078 99.0492 2.92625 99.0492 3.03168C99.0492 3.40904 98.733 3.74298 98.1403 3.74298C97.7817 3.74298 97.4433 3.42908 97.1689 2.77931C97.1689 3.68144 96.8925 4.18665 96.2177 4.18665C95.7947 4.18665 95.5404 3.9319 95.4342 3.42908L95.1179 1.81517L95.5827 1.73168L95.837 3.13711C95.899 3.45293 96.0494 3.6199 96.2797 3.6199C96.682 3.6199 96.9146 3.20056 96.9146 2.84276C96.9146 2.73733 96.8925 2.63381 96.8723 2.52838L96.6604 1.47884L97.1266 1.35194L97.3371 2.42343C97.4433 2.9482 97.6976 3.2206 98.0999 3.2206C98.3946 3.2206 98.5205 3.03168 98.5205 2.75737C98.5205 2.69774 98.5205 2.61234 98.5008 2.52838L98.2042 1.12152L98.6489 0.994141L98.9872 2.63381Z" fill="black"/>
<path d="M48.6681 51.1666H47.1679V49.3833H48.6681V51.1666ZM45.898 51.1666H44.3979V49.3833H45.898V51.1666ZM57.3359 44.388H57.0196C55.0748 44.388 53.5747 43.3008 53.0858 41.4917C53.0858 44.9963 49.9577 47.7895 46.3647 47.7895C42.4752 47.7895 39.5153 44.5154 39.5153 40.3191V38.22H41.0154V40.0448C41.0154 43.8217 43.0664 46.3201 46.4267 46.3201C49.2607 46.3201 51.7342 43.9706 51.7342 41.4521C51.7342 39.5639 50.7186 38.596 48.9863 38.596V37.2759H48.9642C48.9642 37.2583 49.3448 37.2363 50.1057 37.2363C51.3958 37.2363 53.1719 38.5559 53.827 40.2356C54.61 42.2493 55.307 42.921 56.8932 42.921H57.3359V44.388Z" fill="black"/>
<path d="M61.882 33.3536H60.3818V31.5703H61.882V33.3536ZM61.882 34.8664V40.6985C61.882 43.151 60.8466 44.3895 58.774 44.3895H56.9355V42.9426H58.289C59.1984 42.9426 59.7892 42.6482 60.0857 42.0619C60.2977 41.6841 60.402 41.0124 60.402 40.0463V34.8664H61.882Z" fill="black"/>
<path d="M69.3664 44.3888H67.6961C66.9352 44.3888 66.3022 44.1188 65.7715 43.5941C65.1606 43.0054 64.864 42.1648 64.864 41.0556V30.8145H66.3863V40.173C66.3863 41.1391 66.5348 41.8308 66.8069 42.2502C67.0414 42.608 67.4437 42.8169 68.0148 42.8999C68.1609 42.9219 68.331 42.9219 69.3664 42.9219V44.3888Z" fill="black"/>
<path d="M73.9769 33.3536H72.4748V31.5703H73.9769V33.3536ZM76.2999 44.3895H69.0078V42.9426H70.3599C71.2712 42.9426 71.862 42.6482 72.158 42.0819C72.3686 41.6841 72.4748 41.0124 72.4748 40.0463V34.8664H73.9528V40.6985C73.9528 41.5987 73.8264 42.3563 73.5525 42.9225H76.2999V44.3895Z" fill="black"/>
<path d="M80.8884 47.5809H79.3882V45.7938H80.8884V47.5809ZM83.2354 44.3884H75.9414V42.9415H77.2935C78.2024 42.9415 78.7956 42.6471 79.0916 42.0808C79.3041 41.683 79.4084 41.0112 79.4084 40.0452V34.8652H80.8884V40.6973C80.8884 41.5976 80.7619 42.3551 80.488 42.9214H83.2354V44.3884Z" fill="black"/>
<path d="M90.169 44.3888H82.8749V42.9419H84.229C85.1384 42.9419 85.7291 42.6476 86.0252 42.0813C86.2377 41.6834 86.342 41.0117 86.342 40.0456V30.8145H87.8219V40.6978C87.8219 41.598 87.6955 42.3556 87.4215 42.9219H90.169V44.3888Z" fill="black"/>
<path d="M94.7574 30.8145V40.6978C94.7574 43.1504 93.7221 44.3888 91.6494 44.3888H89.8109V42.9419H91.1645C92.072 42.9419 92.6646 42.6476 92.9612 42.0612C93.1712 41.6834 93.2775 41.0117 93.2775 40.0456V30.8145H94.7574Z" fill="black"/>
<path d="M99.0694 30.8145H97.5914V44.3888H99.0694V30.8145Z" fill="black"/>
<path d="M109.091 34.8652V42.6075C109.091 46.0285 107.759 47.6644 104.651 47.8314V46.4259C106.618 46.4259 107.611 45.3568 107.611 42.878V34.8652H109.091Z" fill="black"/>
<path d="M116.576 44.3888H114.905C114.144 44.3888 113.51 44.1188 112.983 43.5941C112.368 43.0054 112.071 42.1648 112.071 41.0556V30.8145H113.594V40.173C113.594 41.1391 113.742 41.8308 114.018 42.2502C114.248 42.608 114.651 42.8169 115.222 42.8999C115.372 42.9219 115.54 42.9219 116.576 42.9219V44.3888Z" fill="black"/>
<path d="M128.901 33.353H127.399V31.5697H128.901V33.353ZM127.483 31.0254H125.983V29.2402H127.483V31.0254ZM126.131 33.353H124.631V31.5697H126.131V33.353ZM136.173 44.3889H116.089V42.922H118.056C119.41 42.922 120.275 42.0198 120.275 40.2366V34.8658H121.777V40.6979C121.777 41.5585 121.651 42.2703 121.416 42.8366V42.922H124.186C125.54 42.922 125.983 42.2703 125.983 40.0457V34.8658H127.463V40.6979C127.463 41.5981 127.336 42.3557 127.06 42.922H129.6C131.184 42.922 131.712 42.2703 131.712 40.0457V34.8658H133.193V40.6979C133.193 41.5981 133.044 42.3557 132.77 42.922H136.173V44.3889Z" fill="black"/>
<path d="M140.697 33.3536H139.197V31.5703H140.697V33.3536ZM137.929 33.3536H136.429V31.5703H137.929V33.3536ZM143.066 44.3895H135.772V42.9426H137.126C138.033 42.9426 138.626 42.6482 138.922 42.0819C139.135 41.6841 139.239 41.0124 139.239 40.0463V34.8664H140.719V40.6985C140.719 41.5987 140.591 42.3563 140.319 42.9225H143.066V44.3895Z" fill="black"/>
<path d="M147.652 33.3536H146.152V31.5703H147.652V33.3536ZM147.652 34.8664V40.6985C147.652 43.151 146.617 44.3895 144.544 44.3895H142.706V42.9426H144.06C144.969 42.9426 145.562 42.6482 145.856 42.0619C146.068 41.6841 146.173 41.0124 146.173 40.0463V34.8664H147.652Z" fill="black"/>
<path d="M159.219 30.8145V40.6978C159.219 43.1504 158.181 44.3888 156.11 44.3888H150V42.9419H153.446L150.719 32.4307H152.327L154.989 42.9419H155.623C156.512 42.9419 157.104 42.6476 157.422 42.0612C157.632 41.6834 157.736 41.0117 157.736 40.0456V30.8145H159.219Z" fill="black"/>
<path d="M163.53 30.8145H162.052V44.3888H163.53V30.8145Z" fill="black"/>
<path d="M179.156 34.8438H177.654V33.0605H179.156V34.8438ZM176.384 34.8438H174.884V33.0605H176.384V34.8438ZM184.777 34.8658V40.6979C184.777 43.1505 183.742 44.3889 181.692 44.3889H175.201C171.141 44.3889 169.112 42.3557 169.112 38.2844V34.8438H170.592V38.2844C170.592 41.4092 172.094 42.9219 175.074 42.9219H181.207C182.707 42.9219 183.297 42.3557 183.297 40.0457V34.8658H184.777Z" fill="black"/>
<path d="M192.264 44.3888H190.593C189.831 44.3888 189.198 44.1188 188.669 43.5941C188.056 43.0054 187.76 42.1648 187.76 41.0556V30.8145H189.282V40.173C189.282 41.1391 189.43 41.8308 189.704 42.2502C189.937 42.608 190.339 42.8169 190.91 42.8999C191.058 42.9219 191.226 42.9219 192.264 42.9219V44.3888Z" fill="black"/>
<path d="M208.901 34.8652V40.6973C208.901 43.1499 207.864 44.3884 205.771 44.3884H191.775V42.9214H193.742C195.096 42.9214 195.835 42.0193 195.985 40.236V34.8652H197.463V40.6973C197.463 41.558 197.337 42.2697 197.105 42.836V42.9214H199.873C201.226 42.9214 201.671 42.2697 201.671 40.0452V34.8652H203.151V40.6973C203.151 41.5976 203.023 42.3551 202.748 42.9214H205.286C206.87 42.9214 207.399 42.2697 207.399 40.0452V34.8652H208.901Z" fill="black"/>
<path d="M213.215 30.8145H211.733V44.3888H213.215V30.8145Z" fill="black"/>
<path d="M219.472 34.8652V42.6075C219.472 46.0285 218.14 47.6644 215.031 47.8314V46.4259C216.998 46.4259 217.991 45.3568 217.991 42.878V34.8652H219.472Z" fill="black"/>
<path d="M233.763 44.3889H221.058V42.9219H228.881C228.881 41.0556 228.54 39.5428 227.845 38.4117C226.998 37.044 225.688 36.3327 223.934 36.2272H223.361V34.8438C227.821 34.8438 230.168 37.5272 230.402 42.9219H233.763V44.3889Z" fill="black"/>
<path d="M238.268 30.8145V40.6978C238.268 43.1504 237.232 44.3888 235.159 44.3888H233.321V42.9419H234.675C235.582 42.9419 236.173 42.6476 236.469 42.0612C236.681 41.6834 236.788 41.0117 236.788 40.0456V30.8145H238.268Z" fill="black"/>
</svg>
