<svg width="24" height="24" viewBox="0 0 24 24" fill="none" xmlns="http://www.w3.org/2000/svg">
<g clip-path="url(#clip0_723_2247)">
<path d="M6.97027 14.4703L3.53902 14.8219L3.49214 14.3672L6.45464 14.0625L4.32183 12.3937L2.71871 12.3562L2.72808 11.9016L3.71714 11.925L0.979643 9.78281L1.26089 9.42187L3.96089 11.5312L3.71714 10.6406L4.15777 10.5187L4.56089 12L6.70308 13.6781L6.29058 10.7859L6.74058 10.7203L7.21402 14.0812L8.75621 15.2906C8.69058 14.4844 8.53121 12.3937 8.54996 12.525C8.50308 11.8406 8.4187 11.1562 8.30152 10.4766C8.12808 9.55312 7.26089 7.40156 5.56871 8.31093C4.89839 8.67187 4.72027 9.67968 4.86089 10.1625C4.86089 10.1625 4.44839 8.90156 4.01714 8.7375C3.44527 8.51718 3.16402 8.8125 2.90621 9.33281C2.90621 9.33281 1.13433 7.73906 0.224955 8.90625C-0.670357 10.05 1.26558 11.4047 1.26558 11.4047C0.782768 11.8453 0.45933 12.2531 0.89058 12.7547C1.32183 13.2562 2.38121 13.1344 2.38121 13.1344C1.66871 13.2562 1.06871 13.7062 0.970268 14.1141C0.57183 15.6937 2.15621 16.5141 3.29996 16.5C4.50464 16.4859 7.53746 15.8625 8.48902 15.6609L6.97027 14.4703Z" fill="black"/>
<path d="M12.6094 19.0641C12.6094 19.0641 12.3328 18.5484 10.2469 19.3078C8.20782 20.0484 8.30157 20.6391 8.30157 20.6391C9.65157 24.3609 11.3672 23.6531 11.3672 23.6531L11.9531 23.9437L12.1875 23.3437C12.1875 23.3391 13.9969 22.8844 12.6094 19.0641Z" fill="black"/>
<path d="M23.461 9.89062C23.8594 9.2625 23.9438 8.5875 23.7047 7.88906C23.461 7.17187 22.4344 6.66562 22.0501 6.6375C22.0501 6.6375 23.4001 6.14531 23.4563 5.36719C23.5032 4.66406 22.8047 4.1625 22.8047 4.1625C22.8047 4.1625 24.061 2.75625 23.9954 1.80469C23.9672 1.34062 23.7329 0.918748 23.3016 0.543748C22.9313 0.224998 22.5329 0.060936 22.1251 0.060936C21.061 0.060936 19.7954 1.55625 19.7954 1.55625C19.7954 1.55625 19.336 1.03125 18.8954 1.03125C18.7688 1.03125 18.6422 1.05 18.5157 1.08281C17.6766 1.32187 17.4563 2.65781 17.4563 2.65781C17.3719 2.28281 16.7251 1.34062 15.9797 1.2C15.8297 1.17187 15.6751 1.15781 15.5251 1.15781C14.8922 1.15781 14.3251 1.41562 13.8376 1.91719C13.036 2.74687 12.6329 4.11094 12.661 4.96875C12.6985 6.03281 12.9329 7.14375 12.9329 7.14375C12.7922 6.89062 12.2954 6.52031 11.6813 6.52031C11.6016 6.52031 11.5172 6.525 11.4376 6.53906C10.9735 6.61406 10.5657 6.88594 10.3172 7.28906C10.0407 7.73437 9.98911 8.2875 10.1672 8.85469C10.3266 9.34219 10.5282 9.82031 10.7626 10.275L10.8422 10.425L10.6969 10.3359C10.3969 10.1531 10.1204 10.0594 9.8813 10.0594C9.57662 10.0594 9.33286 10.2141 9.15943 10.5234C8.85474 11.0578 9.17818 12.5391 9.48755 13.9734C9.6188 14.5828 9.74537 15.1594 9.82037 15.6562L12.0657 13.1437L12.2063 10.7016L12.211 10.6547L12.2579 10.6594L12.6516 10.6828H12.6985L12.6938 10.7297L12.5907 12.5437L14.9391 9.85312L14.7094 5.0625V5.01562L14.7563 5.01094L15.1501 4.99219H15.1969V5.03906L15.3985 9.32344L17.911 6.44531L18.0516 3.97969L18.0563 3.93281L18.1032 3.9375L18.4969 3.96094L18.5438 3.96562L18.5391 4.0125L18.436 5.85469L21.8297 1.96875L21.8626 1.93125L21.9001 1.96406L22.1954 2.22187L22.2329 2.25469L22.2001 2.29219L18.8063 6.17344L20.5876 5.85469L20.6344 5.84531L20.6438 5.89219L20.7141 6.28125L20.7235 6.32812L20.6766 6.3375L18.2954 6.75937L15.7922 9.62344L19.9969 9.23906L20.0438 9.23437L20.0485 9.28125L20.086 9.675L20.0907 9.72187L20.0438 9.72656L15.3282 10.1531L12.9329 12.8953L14.7376 12.5766L14.7844 12.5672L14.7938 12.6141L14.8641 13.0031L14.8735 13.05L14.8266 13.0594L12.4219 13.4859L10.186 15.9844C10.3782 15.9937 10.6594 16.0266 11.0063 16.0594C11.8219 16.1437 12.9422 16.2516 13.8751 16.2516C14.7094 16.2516 15.2438 16.1625 15.4594 15.9797C16.0454 15.4969 15.7126 14.7797 15.4219 14.4281L15.3141 14.2922L15.4782 14.3484C15.9657 14.5172 16.4626 14.6484 16.9688 14.7375C17.0907 14.7562 17.2079 14.7656 17.3297 14.7656C17.8219 14.7656 18.2672 14.5875 18.5907 14.2734C18.8954 13.9781 19.0688 13.5703 19.0735 13.1484C19.0829 12.3937 18.5532 11.8641 18.2626 11.7516C18.2626 11.7516 18.9282 11.7609 19.5188 11.7609C19.8329 11.7609 20.1469 11.7422 20.4563 11.7094C21.4313 11.6062 22.8235 10.8937 23.461 9.89062Z" fill="black"/>
<path d="M11.8265 16.9031C11.3672 16.8375 10.5187 16.9406 9.7031 17.2031L9.31404 16.1109L8.43748 16.4531L8.88279 17.5266C8.2781 17.7984 7.72498 18.1406 7.51404 18.4687L7.34998 19.8609L8.07185 20.2078C8.07185 20.2078 8.4281 19.5422 10.1203 18.9281C11.864 18.2953 12.6234 18.5437 12.6234 18.5437L12.8203 17.7937L11.8265 16.9031Z" fill="black"/>
</g>
<defs>
<clipPath id="clip0_723_2247">
<rect width="24" height="24" fill="white"/>
</clipPath>
</defs>
</svg>
