<svg width="24" height="24" viewBox="0 0 24 24" fill="none" xmlns="http://www.w3.org/2000/svg">
<g clip-path="url(#clip0_723_2264)">
<path d="M21.3422 5.85938L18.6872 8.58516L19.0153 9.75328L19.8052 8.96391C19.8094 8.95981 19.815 8.95752 19.8209 8.95752C19.8267 8.95752 19.8324 8.95981 19.8366 8.96391L21.4387 10.5642C21.4428 10.5683 21.4451 10.5739 21.4451 10.5797C21.4451 10.5855 21.4428 10.591 21.4387 10.5952L19.7311 12.3033L20.1764 13.897L20.8833 13.1878C20.8876 13.1838 20.8933 13.1816 20.8992 13.1816C20.9051 13.1816 20.9108 13.1838 20.9152 13.1878L22.5131 14.7839C22.5171 14.7882 22.5194 14.7939 22.5194 14.7998C22.5194 14.8058 22.5171 14.8115 22.5131 14.8158L20.8936 16.4442L22.4292 21.9178L21.6183 22.7264L15.877 13.9139L14.4445 12.4828C13.0312 13.8609 8.32172 17.6719 8.32172 17.6719L9.95906 22.9317L8.89078 24L6.09891 19.3791C5.00859 20.2228 3.07922 20.9208 3.07922 20.9208C3.07922 20.9208 3.77437 18.9872 4.61906 17.9011L0 15.1083L1.06875 14.0395L6.32672 15.6802C6.32672 15.6802 10.1386 10.9734 11.5153 9.55781L10.0866 8.1286L1.27406 2.38125L2.085 1.57031L7.55766 3.10781L9.18141 1.48406C9.18561 1.47997 9.19124 1.47768 9.19711 1.47768C9.20298 1.47768 9.20861 1.47997 9.21281 1.48406L10.8103 3.08297C10.8144 3.08717 10.8167 3.09281 10.8167 3.09867C10.8167 3.10454 10.8144 3.11017 10.8103 3.11438L10.1072 3.82313L11.7009 4.27031L13.4062 2.56266C13.4105 2.55856 13.4161 2.55627 13.422 2.55627C13.4278 2.55627 13.4335 2.55856 13.4377 2.56266L14.2748 3.3975L15.0398 4.1625C15.0439 4.1667 15.0462 4.17234 15.0462 4.1782C15.0462 4.18407 15.0439 4.18971 15.0398 4.19391L14.6039 4.62984L14.25 4.98516L15.4153 5.31328L18.1406 2.65641C18.1406 2.65641 19.2558 1.50375 20.6058 0.741564C21.7969 0.0703138 23.1952 -0.258749 23.7281 0.242345L23.7581 0.271876C24.2592 0.803439 23.9278 2.20547 23.257 3.39281C22.4944 4.74141 21.3422 5.85938 21.3422 5.85938Z" fill="black"/>
</g>
<defs>
<clipPath id="clip0_723_2264">
<rect width="24" height="24" fill="white"/>
</clipPath>
</defs>
</svg>
