<svg width="24" height="24" viewBox="0 0 24 24" fill="none" xmlns="http://www.w3.org/2000/svg">
<path d="M22.7814 2.61094H23.4001L23.9996 3.43031V4.15781L22.9215 5.27766L23.1231 5.90156L23.44 5.82V6.02156L23.1789 6.14063L23.0382 6.01125L22.8976 6.08813L22.9361 6.25125C22.9361 6.25125 21.797 6.85172 21.8753 6.78938C22.1101 6.71248 22.3503 6.6531 22.5939 6.61172V6.82875L21.8354 7.09266L22.0754 7.33266L21.7154 8.07188L21.2982 7.75031L21.6564 8.22938V8.60953L21.5157 9.08953L21.4295 9.00281L21.4764 8.65266L21.3179 8.41313L21.1773 8.47031L20.9757 7.93313V8.57109L21.7145 9.63188L21.2345 9.83344L21.7572 9.77109V10.1311L21.3545 10.2127V10.4095H21.7032L21.5814 10.6716L21.2406 10.6477L19.6037 12.908L20.4376 14.9667L20.7015 15.4898V16.1906L20.1564 16.5075L20.0556 16.0659H19.7579L19.0201 14.8894L19.097 14.3667L18.2762 13.7283L17.657 14.1459L17.139 13.6664C16.6224 13.6819 16.1077 13.7359 15.5992 13.8281C15.5607 13.905 15.3784 14.1689 15.3784 14.1689L15.5223 14.2458L15.9015 14.625V14.9062H15.422L15.0939 14.5781L14.8539 14.8181H14.5656V14.3381H14.1625L13.9825 14.5148H13.2189L11.5928 16.1555V16.6838H11.0017L10.2006 15.8695L9.57199 14.348L8.5834 14.7188L7.05246 12.8906H6.33293V13.1569H4.85918L3.36199 11.6939H2.07105V11.0794L0.82793 9.83203L0.00292969 6.37172L0.511055 5.97844L0.544805 4.74984L1.26012 3.19969L1.23105 1.85156L2.19105 2.35969L2.07105 1.65656L12.6564 3.31031L12.6901 2.89266L12.9301 2.95031L13.0501 3.40125L14.9064 3.69891L13.8282 4.48078L14.9368 4.45313L15.6901 3.91125L15.4501 4.33313L15.9587 4.53938L17.0101 4.09359L17.2787 4.21313L17.1873 4.63078L16.8564 4.53703L15.7501 4.98984L15.4815 5.65219L15.9606 5.20313L15.7501 6.33797L16.1092 7.35938L16.5029 6.39938L16.3492 5.4975L16.8582 4.86891L17.5825 5.07984L17.4001 5.9775L17.8515 5.70891L18.0578 6.42844L17.7601 7.03781L18.2387 7.24969L19.5582 6.19875L19.3764 5.78109H20.2159L20.5806 5.3925L20.3439 5.0625L20.9392 4.43391L22.2297 4.28016L22.4697 3.92063L22.7814 2.61094Z" fill="black"/>
<path d="M2.12488 17.4881C2.26879 17.4825 2.38176 17.4783 2.49473 17.4727C2.5127 17.4727 2.53016 17.4667 2.54441 17.4558C2.63816 17.362 2.74035 17.3972 2.85285 17.4333L2.77832 17.5781C2.92926 17.7136 3.08207 17.7525 3.2002 17.6813C3.17254 17.625 3.14348 17.5683 3.11629 17.5106C3.10223 17.4802 3.0741 17.4413 3.08301 17.4169C3.11441 17.3316 3.06051 17.3048 3.00473 17.2702C2.98598 17.2589 2.96207 17.2266 2.96676 17.212C3.00707 17.0775 2.93066 16.9777 2.87301 16.8736C2.8327 16.8014 2.78488 16.733 2.73941 16.6608C2.79707 16.575 2.87066 16.5539 2.97379 16.5802C3.1341 16.6219 3.25176 16.568 3.34316 16.4288C3.41441 16.3205 3.4941 16.2305 3.64316 16.2609C3.6584 16.2622 3.67358 16.2579 3.68582 16.2488C3.81191 16.1527 3.9577 16.1578 4.1077 16.1513C4.17098 16.1484 4.23098 16.0842 4.30316 16.0416C4.41004 16.0856 4.52348 16.1484 4.53754 16.3045C4.69035 16.2295 4.70113 16.2459 4.76113 16.3748C4.78214 16.406 4.80992 16.4319 4.8424 16.4507C4.87487 16.4696 4.91119 16.4808 4.94863 16.4836C5.06697 16.4878 5.18197 16.5239 5.28145 16.5881C5.41223 16.6631 5.56879 16.6927 5.71457 16.7405C5.72191 16.7423 5.72954 16.7427 5.73703 16.7416C5.74451 16.7404 5.75169 16.7378 5.75816 16.7339C5.9391 16.6163 6.03941 16.7944 6.16738 16.853C6.18988 16.8628 6.19129 16.9341 6.19129 16.9772C6.19129 18.0594 6.19129 19.1417 6.19129 20.2242C6.19129 20.4117 6.25738 20.4525 6.43598 20.3827C6.45623 20.3751 6.47688 20.3687 6.49785 20.3634L6.91035 20.8463C6.97363 20.8134 7.06598 20.7994 7.08848 20.6733C7.09926 20.6142 7.19207 20.5697 7.24973 20.5167L7.49207 20.8275C7.50145 20.8392 7.50941 20.8575 7.5216 20.8613C7.66598 20.9081 7.70254 21.0445 7.77566 21.1509C7.87504 21.2967 7.96316 21.4519 8.07379 21.5883C8.12066 21.6459 8.21441 21.6783 8.28895 21.6994C8.50035 21.758 8.59598 21.9338 8.51535 22.1391C8.49096 22.1909 8.46357 22.2413 8.43332 22.29C8.32223 22.1236 8.26457 22.08 8.0916 22.0341C8.1073 22.0802 8.1206 22.1272 8.13144 22.1747C8.13649 22.211 8.139 22.2477 8.13895 22.2844L7.97301 22.3392C7.91254 22.2764 7.84129 22.2061 7.8591 22.087C7.86332 22.0589 7.82629 22.0242 7.80754 21.9933C7.78916 21.9719 7.77443 21.9477 7.76395 21.9216C7.7466 21.8428 7.72785 21.8067 7.63832 21.8639C7.6102 21.8822 7.51551 21.8461 7.48879 21.8086C7.35707 21.6211 7.1977 21.4392 7.12738 21.2288C7.0777 21.0802 6.96801 21.0413 6.88176 20.9588C6.78648 20.8685 6.68017 20.7907 6.56535 20.7272C6.48613 20.6827 6.42473 20.6541 6.48613 20.5584C6.47535 20.5486 6.46785 20.5392 6.46457 20.5402C6.30707 20.5955 6.17394 20.5284 6.03426 20.4666C5.96582 20.4366 5.8777 20.4544 5.79988 20.4366C5.70004 20.4131 5.60348 20.3761 5.50598 20.3428C5.4891 20.3372 5.47598 20.3114 5.4591 20.3109C5.32785 20.3034 5.29551 20.1961 5.24816 20.1052C5.20879 20.0297 5.15441 20.0297 5.07754 20.0447C4.87973 20.0827 4.89004 20.2256 4.90691 20.3803C4.82301 20.3658 4.74754 20.3367 4.67629 20.3452C4.61885 20.36 4.56823 20.3941 4.53285 20.4417C4.42879 20.5683 4.31676 20.6189 4.11098 20.5922C4.16254 20.5575 4.18926 20.5392 4.21598 20.5219C4.25267 20.501 4.28334 20.4709 4.30504 20.4347L4.17473 20.4263L4.29473 20.235C4.31389 20.2119 4.32967 20.1862 4.3416 20.1586C4.38004 20.0152 4.40488 19.9992 4.56426 20.018C4.58972 20.0183 4.61511 20.0151 4.63973 20.0086C4.61723 19.868 4.54926 19.8455 4.39457 19.8933C4.23191 19.9439 4.13395 20.0808 4.05988 20.2252C4.01301 20.3189 3.96895 20.3836 3.85926 20.3939C3.76129 20.4033 3.70645 20.4661 3.6891 20.5683C3.70973 20.5786 3.72895 20.5889 3.7491 20.5983C3.82645 20.6353 3.84285 20.715 3.77066 20.7642C3.6441 20.8523 3.51285 20.9325 3.38207 21.0141C3.28241 21.0814 3.17896 21.1429 3.07223 21.1983C3.00004 21.2325 2.91426 21.2372 2.83504 21.2592C2.76332 21.2789 2.69441 21.3061 2.62223 21.3267C2.6691 21.4673 2.64332 21.4964 2.50832 21.4767C2.40511 21.4553 2.29768 21.4689 2.20316 21.5156C2.10941 21.5653 1.9941 21.5925 1.89004 21.4941C1.82395 21.5644 1.75457 21.6281 1.64957 21.5878C1.5441 21.698 1.42176 21.6577 1.29895 21.6291C1.27785 21.6239 1.25207 21.6502 1.22582 21.6497C1.184 21.6434 1.14277 21.6337 1.10254 21.6206C1.1444 21.5845 1.19332 21.5576 1.24618 21.5414C1.29904 21.5253 1.35469 21.5203 1.40957 21.5269C1.50078 21.5359 1.59272 21.5197 1.67535 21.48C1.81598 21.3952 1.9477 21.3047 2.12207 21.3914C2.13613 21.3989 2.17316 21.3806 2.1877 21.3642C2.30535 21.2306 2.46895 21.24 2.6377 21.2072C2.64426 21.1102 2.71551 21.0605 2.81535 21.0342C2.84682 21.0233 2.8735 21.0017 2.89082 20.9733C2.9691 20.842 3.0427 20.708 3.11723 20.5748C3.12476 20.5552 3.13072 20.535 3.13504 20.5144L2.93113 20.558L2.83738 20.4455L2.74363 20.5772C2.66488 20.3489 2.51348 20.2491 2.26832 20.3653C2.26264 20.2954 2.2639 20.225 2.27207 20.1553C2.27957 20.1183 2.32504 20.0897 2.36066 20.0489C2.35645 20.0227 2.34801 19.9786 2.34285 19.9341C2.3377 19.8895 2.33676 19.8478 2.33488 19.8173H1.9941C1.95473 19.7184 1.91582 19.6298 1.88582 19.5389C1.88277 19.5238 1.88274 19.5082 1.88571 19.4931C1.88869 19.478 1.89462 19.4636 1.90316 19.4508C1.97207 19.3486 1.97301 19.3303 1.89285 19.2511C1.84598 19.2066 1.87129 19.0059 1.92895 18.9548C2.0466 18.8503 2.16332 18.743 2.28426 18.6436C2.33957 18.5967 2.4052 18.5367 2.45441 18.6661C2.49004 18.7598 2.57113 18.713 2.62598 18.6816C2.68082 18.6502 2.71973 18.6291 2.78957 18.6567C2.81113 18.664 2.83393 18.6667 2.8566 18.6649C2.87926 18.663 2.9013 18.6565 2.92136 18.6458C2.94142 18.635 2.95908 18.6203 2.97326 18.6026C2.98743 18.5848 2.99782 18.5643 3.00379 18.5423C3.03566 18.4486 3.06473 18.3492 3.09285 18.2517C3.11254 18.1828 3.06145 18.1467 3.0141 18.1631C2.85285 18.2198 2.71035 18.1786 2.5641 18.1163C2.4877 18.0834 2.39957 18.0778 2.32363 18.0441C2.2477 18.0103 2.22285 17.9386 2.25145 17.8533C2.28004 17.768 2.31051 17.6714 2.19285 17.6119C2.16848 17.5964 2.16004 17.5533 2.12488 17.4881Z" fill="black"/>
<path d="M13.5113 22.1044C13.4451 22.0641 13.3768 22.0272 13.3069 21.9938C13.2775 21.9842 13.2521 21.9653 13.2346 21.9399C13.217 21.9144 13.2084 21.884 13.2099 21.8531C13.2086 21.812 13.2111 21.7709 13.2174 21.7303C13.2442 21.609 13.2217 21.4821 13.155 21.3773C13.1497 21.3648 13.1454 21.3518 13.1424 21.3384C13.1202 21.2829 13.0944 21.2289 13.065 21.1767C13.0041 21.083 13.0313 20.9892 13.1358 20.9353C13.1623 20.9178 13.1854 20.8956 13.2038 20.8697C13.2179 20.8464 13.2336 20.824 13.2506 20.8027C13.3064 20.7525 13.2975 20.7089 13.2624 20.6461C13.2342 20.5925 13.2161 20.5342 13.2089 20.4741C13.2019 20.4244 13.2361 20.3953 13.2867 20.4089C13.3263 20.4167 13.3638 20.4326 13.3969 20.4558C13.4698 20.5176 13.5564 20.5611 13.6496 20.5828C13.8499 20.6339 14.0313 20.7414 14.1722 20.8927C14.1843 20.9084 14.191 20.9276 14.1914 20.9475C14.1947 20.9836 14.1914 21.0202 14.1914 21.0647C14.2142 21.0608 14.2375 21.0608 14.2603 21.0647C14.2828 21.0741 14.3152 21.0923 14.3185 21.1116C14.3358 21.2119 14.4071 21.263 14.4872 21.3042C14.5308 21.3272 14.5406 21.3511 14.5078 21.3881C14.3742 21.5442 14.2139 21.652 14.0016 21.6656C13.9458 21.6689 13.6547 21.8681 13.6463 21.9145C13.6303 22.0088 13.5652 22.0589 13.5113 22.1044Z" fill="black"/>
<path d="M12.6887 19.9987C12.5584 19.9987 12.5448 19.9875 12.541 19.8966C12.5399 19.8715 12.5366 19.8466 12.5312 19.822C12.5199 19.7705 12.5096 19.7259 12.4332 19.7475C12.3756 19.7639 12.2799 19.6903 12.2518 19.6237C12.2427 19.5954 12.2422 19.565 12.2506 19.5364C12.259 19.5078 12.2757 19.4824 12.2987 19.4634C12.3055 19.4557 12.3138 19.4495 12.3232 19.4452C12.3326 19.4409 12.3428 19.4387 12.3531 19.4387C12.3634 19.4387 12.3736 19.4409 12.3829 19.4452C12.3923 19.4495 12.4007 19.4557 12.4074 19.4634C12.414 19.47 12.4229 19.4752 12.4262 19.4831C12.4731 19.5984 12.5518 19.6041 12.6545 19.5534C12.7149 19.5234 12.7707 19.5511 12.8242 19.5909C12.8776 19.6308 12.9517 19.665 13.0117 19.7053C13.0426 19.7259 13.0937 19.7616 13.0899 19.7817C13.082 19.8262 13.0529 19.8881 13.0168 19.9017C12.9091 19.9395 12.7996 19.9719 12.6887 19.9987Z" fill="black"/>
<path d="M10.9406 18.9403L10.98 18.9033C11.0161 18.9731 11.0489 19.0373 11.0869 19.1105C11.0733 19.1302 11.048 19.1353 11.0053 19.1419C10.9715 19.1491 10.9365 19.1482 10.9031 19.1394C10.8697 19.1305 10.8389 19.1138 10.8131 19.0908C10.7878 19.0702 10.7325 19.0833 10.6908 19.0866C10.6491 19.0898 10.6017 19.0997 10.5628 19.1062C10.5244 19.0439 10.4887 18.9891 10.4564 18.9328C10.4241 18.8766 10.395 18.8175 10.365 18.7608C10.3701 18.7561 10.3734 18.7505 10.3762 18.7509C10.4245 18.7608 10.4746 18.7555 10.5198 18.7358C10.5649 18.7161 10.6029 18.6829 10.6284 18.6408C10.6889 18.5536 10.7348 18.5686 10.7798 18.6647C10.7986 18.705 10.8267 18.7411 10.8501 18.78C10.86 18.7969 10.8755 18.8166 10.8736 18.833C10.8704 18.8559 10.8753 18.8792 10.8876 18.8988C10.8998 18.9185 10.9186 18.9332 10.9406 18.9403Z" fill="black"/>
<path d="M8.90636 18.3666C8.86698 18.3506 8.79808 18.3244 8.73011 18.2948C8.6973 18.2808 8.6673 18.2588 8.63636 18.2419C8.56089 18.2025 8.55573 18.1542 8.59933 18.082C8.64651 18.0111 8.71671 17.9586 8.79808 17.9334C8.87758 17.9105 8.96122 17.9059 9.04276 17.9198C9.12573 17.9292 9.16183 18.022 9.13042 18.1013C9.11874 18.1356 9.11103 18.1711 9.10745 18.2072C9.09656 18.2524 9.07084 18.2927 9.03439 18.3216C8.99794 18.3504 8.95287 18.3663 8.90636 18.3666Z" fill="black"/>
<path d="M11.5059 19.3556L11.587 19.2042C11.6891 19.2094 11.7979 19.2769 11.9151 19.2253C11.9971 19.3237 12.1195 19.2197 12.2137 19.2755C12.1971 19.3204 12.1652 19.3581 12.1237 19.3818C12.0821 19.4056 12.0334 19.4139 11.9863 19.4053C11.8579 19.372 11.7309 19.3402 11.5968 19.3678C11.5661 19.3679 11.5355 19.3638 11.5059 19.3556Z" fill="black"/>
<path d="M11.9718 19.8455C11.9366 19.8052 11.9123 19.7817 11.8935 19.7545C11.8722 19.722 11.853 19.6882 11.8359 19.6533C11.827 19.6364 11.8134 19.6139 11.8185 19.6003C11.8239 19.5927 11.8309 19.5864 11.839 19.5818C11.8471 19.5772 11.8561 19.5744 11.8654 19.5736C11.898 19.5661 11.9321 19.5675 11.964 19.5777C11.9959 19.5878 12.0245 19.6063 12.0468 19.6312C12.0712 19.6612 12.1049 19.7137 12.0937 19.7362C12.0745 19.7761 12.0243 19.8014 11.9718 19.8455Z" fill="black"/>
<path d="M8.05273 18.4687C8.00586 18.4144 8.00586 18.3689 8.05273 18.3244C8.09546 18.2844 8.14021 18.2467 8.1868 18.2114C8.19711 18.2034 8.21539 18.2067 8.23039 18.2048C8.23687 18.2362 8.2328 18.2689 8.21881 18.2977C8.20483 18.3265 8.1817 18.3499 8.15305 18.3642C8.11273 18.3858 8.08602 18.4345 8.05273 18.4687Z" fill="black"/>
<path d="M12.2419 20.0653C12.285 20.0388 12.3295 20.0146 12.3751 19.9926C12.3877 19.987 12.4219 20.0016 12.4252 20.0114C12.4299 20.0353 12.4252 20.0826 12.4163 20.0841C12.3608 20.0918 12.305 20.0965 12.249 20.0981L12.2419 20.0653Z" fill="black"/>
</svg>
