<svg width="24" height="24" viewBox="0 0 24 24" fill="none" xmlns="http://www.w3.org/2000/svg">
<g clip-path="url(#clip0_723_2260)">
<path d="M14.3577 3.80156C12.2437 4.79531 11.2687 6.51562 11.864 7.78593C12.2249 8.55468 13.078 8.98593 14.1655 8.98593C14.878 8.98593 15.689 8.80312 16.5233 8.40937C18.6374 7.41562 20.278 3.82968 20.278 3.82968C20.278 3.82968 18.5577 3.37031 16.7858 3.37031C15.928 3.36562 15.0515 3.47343 14.3577 3.80156Z" fill="black"/>
<path d="M11.55 9.94688C11.4047 8.65313 10.65 6.675 8.47965 6.34688V6.35625C8.4609 6.35157 8.44215 6.34688 8.4234 6.34688L8.25934 7.44375C9.13122 7.575 9.75465 8.09532 10.1156 8.99063C10.2328 9.29063 10.3172 9.6 10.364 9.91407C0.38903 6.34688 2.50778 26.3719 10.9968 23.7656C19.6453 26.2406 21.6187 6.22969 11.55 9.94688Z" fill="black"/>
<path d="M14.1375 3.33281C14.8219 3.00937 15.7125 2.85 16.7859 2.85C16.8328 2.85 16.8797 2.85 16.9266 2.85C16.7766 1.87969 16.5328 0.928125 16.2094 0C16.2094 0 12.7969 1.96875 12.0047 4.16719C11.8641 4.55156 11.7609 4.95 11.6953 5.35312C12.2062 4.55156 13.0734 3.83437 14.1375 3.33281Z" fill="black"/>
</g>
<defs>
<clipPath id="clip0_723_2260">
<rect width="24" height="24" fill="white"/>
</clipPath>
</defs>
</svg>
