<svg width="24" height="24" viewBox="0 0 24 24" fill="none" xmlns="http://www.w3.org/2000/svg">
<g clip-path="url(#clip0_723_2249)">
<path d="M15.1874 6.33823e-07H4.23322C4.08121 -0.0033605 3.93002 0.0232548 3.78829 0.0783268C3.64655 0.133399 3.51706 0.215849 3.4072 0.320969C3.29733 0.426089 3.20925 0.55182 3.14798 0.690983C3.08671 0.830146 3.05345 0.980015 3.0501 1.13203V22.8164C3.04667 22.9685 3.07324 23.1197 3.12829 23.2615C3.18333 23.4033 3.26577 23.5328 3.3709 23.6427C3.47602 23.7527 3.60178 23.8408 3.74097 23.9021C3.88016 23.9634 4.03007 23.9967 4.18213 24H15.1345C15.2865 24.0035 15.4377 23.977 15.5794 23.922C15.7212 23.867 15.8507 23.7846 15.9606 23.6795C16.0705 23.5744 16.1586 23.4487 16.2198 23.3095C16.2811 23.1703 16.3143 23.0205 16.3176 22.8684C16.3176 22.8511 16.3176 22.8342 16.3176 22.8169V1.18359C16.3245 0.876819 16.2094 0.579844 15.9975 0.357914C15.7856 0.135984 15.4942 0.00725232 15.1874 6.33823e-07ZM9.81041 22.8164C9.65992 22.8164 9.51281 22.7718 9.3877 22.6882C9.26258 22.6045 9.16506 22.4857 9.1075 22.3467C9.04993 22.2076 9.03489 22.0546 9.06428 21.907C9.09368 21.7594 9.16618 21.6239 9.27262 21.5175C9.37907 21.4111 9.51467 21.3387 9.66228 21.3094C9.80989 21.2801 9.96287 21.2952 10.1019 21.3529C10.2409 21.4105 10.3597 21.5081 10.4432 21.6333C10.5267 21.7585 10.5713 21.9056 10.5712 22.0561C10.5712 22.156 10.5515 22.2549 10.5133 22.3472C10.475 22.4394 10.419 22.5233 10.3483 22.5939C10.2777 22.6645 10.1938 22.7205 10.1015 22.7587C10.0092 22.7968 9.9103 22.8165 9.81041 22.8164ZM14.9667 20.1127H4.57119V2.1975H14.9653L14.9667 20.1127Z" fill="black"/>
<path d="M6.44238 5.69485H6.06738V3.74063H8.16457V4.11563H6.44238V5.69485Z" fill="black"/>
<path d="M13.6157 5.69485H13.2407V4.11563H11.5186V3.74063H13.6157V5.69485Z" fill="black"/>
<path d="M8.16457 18.6806H6.06738V16.7264H6.44238V18.3056H8.16457V18.6806Z" fill="black"/>
<path d="M13.6157 18.6806H11.5186V18.3056H13.2407V16.7264H13.6157V18.6806Z" fill="black"/>
<path d="M14.5594 6.17438L10.4124 7.62235L14.5594 9.17719V6.17438Z" fill="black"/>
<path d="M16.7385 9.75703V16.4128L20.9498 14.6466V8.16L16.7385 9.75703Z" fill="black"/>
<path d="M14.5593 9.71343L10.4619 8.16V14.6466L14.5593 16.365V9.71343Z" fill="black"/>
<path d="M16.7385 9.22266L20.864 7.6725L16.7385 6.23438V9.22266Z" fill="black"/>
</g>
<defs>
<clipPath id="clip0_723_2249">
<rect width="24" height="24" fill="white"/>
</clipPath>
</defs>
</svg>
