<svg width="24" height="24" viewBox="0 0 24 24" fill="none" xmlns="http://www.w3.org/2000/svg">
<g clip-path="url(#clip0_723_2250)">
<path d="M20.9569 0L17.6873 0.225938L0.225938 17.6873L0 20.9569L3.04312 24L6.31266 23.7741L23.7741 6.31266L24 3.04312L20.9569 0ZM15.5095 4.88391C15.5694 4.82411 15.6457 4.7834 15.7287 4.76693C15.8117 4.75046 15.8977 4.75897 15.9759 4.79138C16.054 4.82379 16.1208 4.87864 16.1678 4.94901C16.2148 5.01938 16.2399 5.1021 16.2399 5.18672C16.2399 5.27134 16.2148 5.35406 16.1678 5.42443C16.1208 5.4948 16.054 5.54965 15.9759 5.58206C15.8977 5.61447 15.8117 5.62297 15.7287 5.6065C15.6457 5.59003 15.5694 5.54933 15.5095 5.48953C15.4697 5.44982 15.4381 5.40262 15.4165 5.35066C15.3949 5.2987 15.3838 5.24298 15.3838 5.18672C15.3838 5.13045 15.3949 5.07474 15.4165 5.02278C15.4381 4.97082 15.4697 4.92362 15.5095 4.88391ZM3.71016 17.8941C3.65025 17.954 3.57391 17.9949 3.49079 18.0114C3.40768 18.028 3.32151 18.0195 3.2432 17.9871C3.16489 17.9547 3.09796 17.8998 3.05086 17.8293C3.00377 17.7589 2.97863 17.676 2.97863 17.5912C2.97863 17.5065 3.00377 17.4236 3.05086 17.3532C3.09796 17.2827 3.16489 17.2278 3.2432 17.1954C3.32151 17.163 3.40768 17.1545 3.49079 17.1711C3.57391 17.1876 3.65025 17.2285 3.71016 17.2884C3.74995 17.3282 3.78153 17.3754 3.80307 17.4273C3.82461 17.4793 3.8357 17.535 3.8357 17.5912C3.8357 17.6475 3.82461 17.7032 3.80307 17.7552C3.78153 17.8071 3.74995 17.8543 3.71016 17.8941ZM5.21016 19.3941C5.15025 19.454 5.07391 19.4949 4.9908 19.5114C4.90768 19.528 4.82151 19.5195 4.7432 19.4871C4.66489 19.4547 4.59796 19.3998 4.55086 19.3293C4.50377 19.2589 4.47863 19.176 4.47863 19.0912C4.47863 19.0065 4.50377 18.9236 4.55086 18.8532C4.59796 18.7827 4.66489 18.7278 4.7432 18.6954C4.82151 18.663 4.90768 18.6545 4.9908 18.6711C5.07391 18.6876 5.15025 18.7285 5.21016 18.7884C5.25009 18.8281 5.28179 18.8753 5.30346 18.9273C5.32512 18.9793 5.33632 19.035 5.3364 19.0913C5.33649 19.1476 5.32547 19.2034 5.30396 19.2554C5.28246 19.3074 5.2509 19.3547 5.21109 19.3945L5.21016 19.3941ZM5.36109 16.2417C5.30119 16.3017 5.22485 16.3425 5.14173 16.3591C5.05861 16.3756 4.97245 16.3672 4.89414 16.3348C4.81583 16.3024 4.74889 16.2474 4.7018 16.177C4.6547 16.1065 4.62957 16.0237 4.62957 15.9389C4.62957 15.8542 4.6547 15.7713 4.7018 15.7008C4.74889 15.6304 4.81583 15.5755 4.89414 15.543C4.97245 15.5106 5.05861 15.5022 5.14173 15.5187C5.22485 15.5353 5.30119 15.5761 5.36109 15.6361C5.40102 15.6758 5.43273 15.723 5.45439 15.7749C5.47606 15.8269 5.48725 15.8826 5.48734 15.9389C5.48743 15.9952 5.4764 16.051 5.4549 16.1031C5.4334 16.1551 5.40184 16.2024 5.36203 16.2422L5.36109 16.2417ZM6.71063 20.895C6.65072 20.955 6.57438 20.9958 6.49126 21.0124C6.40814 21.0289 6.32198 21.0205 6.24367 20.988C6.16536 20.9556 6.09842 20.9007 6.05133 20.8303C6.00423 20.7598 5.9791 20.6769 5.9791 20.5922C5.9791 20.5074 6.00423 20.4246 6.05133 20.3541C6.09842 20.2837 6.16536 20.2287 6.24367 20.1963C6.32198 20.1639 6.40814 20.1554 6.49126 20.172C6.57438 20.1886 6.65072 20.2294 6.71063 20.2894C6.79104 20.3697 6.83631 20.4786 6.83648 20.5922C6.83666 20.7059 6.79173 20.8149 6.71156 20.8955L6.71063 20.895ZM6.86203 17.7422C6.80213 17.8021 6.72579 17.843 6.64267 17.8596C6.55955 17.8761 6.47339 17.8677 6.39508 17.8352C6.31677 17.8028 6.24983 17.7479 6.20274 17.6774C6.15564 17.607 6.1305 17.5241 6.1305 17.4394C6.1305 17.3546 6.15564 17.2718 6.20274 17.2013C6.24983 17.1308 6.31677 17.0759 6.39508 17.0435C6.47339 17.0111 6.55955 17.0026 6.64267 17.0192C6.72579 17.0358 6.80213 17.0766 6.86203 17.1366C6.90196 17.1763 6.93367 17.2234 6.95533 17.2754C6.97699 17.3274 6.98819 17.3831 6.98828 17.4394C6.98836 17.4957 6.97734 17.5515 6.95584 17.6035C6.93434 17.6556 6.90278 17.7028 6.86297 17.7427L6.86203 17.7422ZM8.36203 19.2422C8.30213 19.3021 8.22579 19.343 8.14267 19.3596C8.05955 19.3761 7.97339 19.3677 7.89508 19.3352C7.81677 19.3028 7.74983 19.2479 7.70274 19.1774C7.65564 19.107 7.6305 19.0241 7.6305 18.9394C7.6305 18.8546 7.65564 18.7718 7.70274 18.7013C7.74983 18.6308 7.81677 18.5759 7.89508 18.5435C7.97339 18.5111 8.05955 18.5026 8.14267 18.5192C8.22579 18.5358 8.30213 18.5766 8.36203 18.6366C8.40202 18.6763 8.43378 18.7235 8.4555 18.7756C8.47722 18.8276 8.48846 18.8834 8.48859 18.9398C8.48872 18.9962 8.47774 19.052 8.45626 19.1042C8.43478 19.1563 8.40324 19.2037 8.36344 19.2436L8.36203 19.2422ZM10.943 17.3995L6.59766 13.0542L13.0556 6.59906L17.4009 10.9444L10.943 17.3995ZM17.6156 6.99C17.5557 7.04996 17.4794 7.0908 17.3963 7.10736C17.3131 7.12393 17.227 7.11547 17.1487 7.08305C17.0704 7.05063 17.0034 6.99572 16.9563 6.92526C16.9092 6.85479 16.8841 6.77194 16.8841 6.68719C16.8841 6.60243 16.9092 6.51958 16.9563 6.44912C17.0034 6.37865 17.0704 6.32374 17.1487 6.29133C17.227 6.25891 17.3131 6.25045 17.3963 6.26701C17.4794 6.28357 17.5557 6.32442 17.6156 6.38437C17.6554 6.42412 17.687 6.47133 17.7085 6.52328C17.7301 6.57524 17.7412 6.63094 17.7412 6.68719C17.7412 6.74344 17.7301 6.79913 17.7085 6.85109C17.687 6.90305 17.6554 6.95025 17.6156 6.99ZM17.7656 3.83766C17.7059 3.89779 17.6296 3.93882 17.5465 3.95556C17.4634 3.9723 17.3773 3.96398 17.2989 3.93167C17.2205 3.89936 17.1535 3.84451 17.1064 3.77407C17.0592 3.70363 17.0341 3.62078 17.0341 3.53602C17.0341 3.45125 17.0592 3.3684 17.1064 3.29796C17.1535 3.22752 17.2205 3.17267 17.2989 3.14036C17.3773 3.10805 17.4634 3.09974 17.5465 3.11647C17.6296 3.13321 17.7059 3.17425 17.7656 3.23438C17.8454 3.31449 17.8902 3.42295 17.8902 3.53602C17.8902 3.64908 17.8454 3.75754 17.7656 3.83766ZM19.1152 8.49047C19.0553 8.55033 18.9791 8.5911 18.896 8.60763C18.813 8.62415 18.727 8.61568 18.6487 8.58329C18.5705 8.55091 18.5037 8.49605 18.4567 8.42567C18.4096 8.35529 18.3845 8.27254 18.3845 8.18789C18.3845 8.10324 18.4096 8.02049 18.4567 7.95011C18.5037 7.87973 18.5705 7.82488 18.6487 7.79249C18.727 7.7601 18.813 7.75163 18.896 7.76815C18.9791 7.78468 19.0553 7.82545 19.1152 7.88531C19.1955 7.96544 19.2408 8.07421 19.2409 8.1877C19.2411 8.30118 19.1962 8.41009 19.1161 8.49047H19.1152ZM19.2656 5.33812C19.2058 5.39835 19.1295 5.43945 19.0463 5.45623C18.9631 5.47301 18.8768 5.4647 18.7983 5.43236C18.7199 5.40003 18.6528 5.34511 18.6056 5.27459C18.5584 5.20407 18.5332 5.12112 18.5332 5.03625C18.5332 4.95138 18.5584 4.86843 18.6056 4.79791C18.6528 4.72739 18.7199 4.67247 18.7983 4.64014C18.8768 4.6078 18.9631 4.59949 19.0463 4.61627C19.1295 4.63305 19.2058 4.67415 19.2656 4.73438C19.3454 4.81457 19.3902 4.92311 19.3902 5.03625C19.3902 5.14939 19.3454 5.25793 19.2656 5.33812ZM20.7656 6.83813C20.7058 6.89799 20.6295 6.93876 20.5465 6.95528C20.4635 6.97181 20.3774 6.96334 20.2992 6.93095C20.221 6.89856 20.1542 6.84371 20.1071 6.77333C20.0601 6.70294 20.035 6.6202 20.035 6.53555C20.035 6.4509 20.0601 6.36815 20.1071 6.29777C20.1542 6.22739 20.221 6.17253 20.2992 6.14014C20.3774 6.10776 20.4635 6.09929 20.5465 6.11581C20.6295 6.13233 20.7058 6.1731 20.7656 6.23297C20.8056 6.27256 20.8373 6.31964 20.8591 6.37152C20.8808 6.42339 20.8921 6.47905 20.8923 6.5353C20.8926 6.59154 20.8817 6.64728 20.8603 6.69932C20.839 6.75137 20.8076 6.79869 20.768 6.83859L20.7656 6.83813Z" fill="black"/>
</g>
<defs>
<clipPath id="clip0_723_2250">
<rect width="24" height="24" fill="white"/>
</clipPath>
</defs>
</svg>
