<svg width="24" height="24" viewBox="0 0 24 24" fill="none" xmlns="http://www.w3.org/2000/svg">
<g clip-path="url(#clip0_723_2221)">
<path d="M20.0157 3.26391C19.9313 3.37507 19.8813 3.50853 19.8718 3.64782C19.8718 3.9361 20.0635 4.08 20.3035 4.22391V3.12C20.2484 3.12351 20.1945 3.13805 20.145 3.16277C20.0956 3.18749 20.0516 3.22188 20.0157 3.26391Z" fill="black"/>
<path d="M20.7839 5.18391V6.33609C20.9145 6.31054 21.0309 6.23751 21.1107 6.1311C21.1906 6.0247 21.2281 5.89248 21.2161 5.76C21.2202 5.62918 21.1796 5.50087 21.101 5.39617C21.0225 5.29148 20.9107 5.21662 20.7839 5.18391Z" fill="black"/>
<path d="M6.96 10.0322H0V24H6.96V10.0322Z" fill="black"/>
<path d="M15.5039 5.04H8.54395V24H15.5039V5.04Z" fill="black"/>
<path d="M17.04 0V24H24V0H17.04ZM22.0782 5.66391C22.0764 5.98437 21.9476 6.29105 21.72 6.51665C21.4924 6.74224 21.1846 6.86831 20.8641 6.86719C20.8374 6.86719 20.8107 6.86719 20.7839 6.86391V7.34391H20.3522V6.81609C20.2281 6.79692 20.1106 6.74746 20.0101 6.67208C19.9096 6.5967 19.8293 6.49773 19.7761 6.38391V6.76781H19.1522V5.32781H19.8239C19.8239 5.76 19.9679 6.19219 20.4 6.28781V4.99219L20.1122 4.89844C19.5839 4.70625 19.1522 4.41844 19.1522 3.79453C19.1444 3.64387 19.1664 3.49314 19.2168 3.35098C19.2673 3.20881 19.3453 3.07799 19.4464 2.96601C19.5475 2.85403 19.6697 2.76308 19.806 2.69837C19.9423 2.63367 20.09 2.59647 20.2407 2.58891C20.2938 2.58602 20.3471 2.58711 20.4 2.59219V2.0625H20.8322V2.64C21.0488 2.7 21.2363 2.83638 21.36 3.02391V2.64H21.9844V3.98438H21.3122C21.2654 3.50437 21.12 3.16828 20.8322 3.12047V4.36781L21.0722 4.46156C21.3606 4.53837 21.6248 4.68707 21.84 4.89375C22.0181 5.10891 22.1037 5.38581 22.0782 5.66391Z" fill="black"/>
</g>
<defs>
<clipPath id="clip0_723_2221">
<rect width="24" height="24" fill="white"/>
</clipPath>
</defs>
</svg>
