<svg width="24" height="24" viewBox="0 0 24 24" fill="none" xmlns="http://www.w3.org/2000/svg">
<g clip-path="url(#clip0_723_2246)">
<path d="M6.08344 16.1644L8.20312 10.5075V5.46891H8.18484C8.09096 4.45174 7.62051 3.50633 6.86575 2.81802C6.11098 2.12972 5.12633 1.74816 4.10484 1.74816C3.08336 1.74816 2.09871 2.12972 1.34394 2.81802C0.589175 3.50633 0.118731 4.45174 0.0248437 5.46891H0V22.253H7.25016V17.1347H5.71875L6.08344 16.1644Z" fill="black"/>
<path d="M21.7539 10.7597L15.2434 8.06532L8.86277 10.7597L6.74121 16.4161H7.95574V22.208H12.6817V16.9041H17.9856V22.208H22.6529V16.4161H24.0001L21.7539 10.7597ZM16.5001 13.9922H14.0739V11.5659H16.5001V13.9922Z" fill="black"/>
</g>
<defs>
<clipPath id="clip0_723_2246">
<rect width="24" height="24" fill="white"/>
</clipPath>
</defs>
</svg>
