<svg width="24" height="24" viewBox="0 0 24 24" fill="none" xmlns="http://www.w3.org/2000/svg">
<path d="M13.7812 15.308V11.6662H10.2188V15.308H13.7812ZM11.7188 13.2703V12.4491H12.2812V13.2703H13.1025V13.8328H11.7188V13.2703Z" fill="black"/>
<path d="M9.65622 15.8719H5.69388L5.55981 24H9.65622V15.8719Z" fill="black"/>
<path d="M13.7799 15.8719H12.2817V24H13.7799V15.8719Z" fill="black"/>
<path d="M14.3438 15.308H18.2972L18.2372 11.6662H14.3438V15.308Z" fill="black"/>
<path d="M9.6562 11.6662H5.76276L5.70276 15.308H9.6562V11.6662Z" fill="black"/>
<path d="M18.3061 15.8719H14.3438V24H18.4402L18.3061 15.8719Z" fill="black"/>
<path d="M11.7183 15.8719H10.2202V24H11.7183V15.8719Z" fill="black"/>
<path d="M18.0469 0H15.8438V2.27203C15.8438 2.27203 14.49 0.40875 11.9883 0.40875C9.48659 0.40875 8.14925 2.27203 8.14925 2.27203V0H5.9555L5.77222 11.1023H18.2278L18.0469 0ZM10.095 9.58969H8.573V4.05844H10.095V9.58969ZM12.7613 9.58969H11.2388V3.49594C11.2388 3.49594 11.3658 2.90859 12 2.90859C12.6342 2.90859 12.7613 3.49359 12.7613 3.49359V9.58969ZM15.4271 9.58969H13.905V4.05844H15.4271V9.58969Z" fill="black"/>
</svg>
