<svg width="24" height="24" viewBox="0 0 24 24" fill="none" xmlns="http://www.w3.org/2000/svg">
<path d="M9.87803 17.7169H6.97412V24H9.87803V17.7169Z" fill="black"/>
<path d="M20.3756 19.8914H20.1257V16.32H20.1496C20.2849 16.3121 20.4117 16.2513 20.5025 16.1507C20.5933 16.0501 20.6408 15.9177 20.6348 15.7823V0.604687C20.63 0.454604 20.5717 0.311178 20.4705 0.200294C20.3692 0.08941 20.2316 0.0183719 20.0826 0L6.74995 0C4.89745 0 3.35151 0.75 3.15511 2.74078V17.8594C3.14399 18.0844 3.15482 18.31 3.18745 18.533C3.23016 18.7432 3.29295 18.9488 3.37495 19.147L3.43261 19.2722C3.57006 19.5601 3.75498 19.8228 3.97964 20.0494C4.19896 20.2768 4.45545 20.4651 4.73808 20.6062C5.02815 20.7544 5.34141 20.8519 5.66433 20.8945C5.78751 20.9016 5.91099 20.9016 6.03417 20.8945H6.05808V19.9777H6.03417C5.77504 19.9875 5.51652 19.9462 5.27335 19.8562C5.03018 19.7661 4.80713 19.629 4.61694 19.4527C4.42674 19.2765 4.27313 19.0645 4.16487 18.8289C4.05661 18.5932 3.99582 18.3386 3.98597 18.0795C3.97612 17.8203 4.0174 17.5618 4.10747 17.3186C4.19753 17.0755 4.33461 16.8524 4.51087 16.6622C4.68714 16.472 4.89914 16.3184 5.13477 16.2102C5.3704 16.1019 5.62505 16.0411 5.88417 16.0312H18.4935L18.57 19.9528H10.7995V20.8552H20.3704C20.4335 20.8552 20.4959 20.8427 20.5541 20.8186C20.6123 20.7945 20.6653 20.7591 20.7098 20.7146C20.7544 20.67 20.7898 20.6171 20.8139 20.5588C20.838 20.5006 20.8504 20.4382 20.8504 20.3752C20.8515 20.2481 20.8022 20.1257 20.7131 20.035C20.6241 19.9443 20.5027 19.8926 20.3756 19.8914Z" fill="black"/>
</svg>
