<svg width="24" height="24" viewBox="0 0 24 24" fill="none" xmlns="http://www.w3.org/2000/svg">
<g clip-path="url(#clip0_723_2237)">
<path d="M7.54779 19.8759H6.66045H4.62607H3.7392L2.22607 23.9752H4.62607H6.66045H9.06045L7.54779 19.8759Z" fill="black"/>
<path d="M20.3124 19.8759H19.4256H17.3907H16.5038L14.9907 23.9752H17.3907H19.4256H21.8256L20.3124 19.8759Z" fill="black"/>
<path d="M24.0126 9.51562V7.21875C23.0889 7.08039 22.2037 6.75277 21.4125 6.2564C20.8645 5.91 20.1337 5.18719 19.5506 4.56422V0.0248413H17.2865V4.5689C16.8385 5.01807 16.3659 5.44201 15.8709 5.83875C14.6381 6.79922 13.4025 7.27453 12.0539 7.27453C10.9532 7.27453 9.85309 6.93187 8.7834 6.25547C7.96731 5.73984 7.37152 5.17734 6.77293 4.5375V0.0248413H4.50887V4.52484C4.1273 4.95562 3.74668 5.36297 3.27043 5.76187C2.27012 6.60047 1.1109 7.09265 -3.90615e-05 7.23281V9.48609C1.5759 9.30984 3.15793 8.66109 4.50699 7.60218V12.4383H-0.0126953V15.0141H4.50887V19.2436H6.77293V15.0141H17.2865V19.2436H19.5506V15.0141H23.992V12.4383H19.5506V7.6875C20.808 8.75208 22.3697 9.39194 24.0126 9.51562ZM6.77293 12.4383V7.61297C8.18902 8.89594 9.93793 9.53484 11.8434 9.53484C13.8046 9.53484 15.6871 8.93953 17.2865 7.62328V12.4383H6.77293Z" fill="black"/>
</g>
<defs>
<clipPath id="clip0_723_2237">
<rect width="24" height="24" fill="white"/>
</clipPath>
</defs>
</svg>
