<svg width="24" height="24" viewBox="0 0 24 24" fill="none" xmlns="http://www.w3.org/2000/svg">
<g clip-path="url(#clip0_723_2235)">
<path d="M19.5169 6.83016C15.7622 5.51391 12.5161 5.56453 10.0435 6.04219C12.1646 8.97609 15.488 14.0686 18.946 19.867C27.2344 13.8923 23.6799 8.28891 19.5169 6.83016Z" fill="black"/>
<path d="M20.2749 22.9688C16.6829 16.7761 13.0388 11.0738 10.5558 7.50703C10.5268 7.54782 10.4916 7.59422 10.4518 7.64391L10.4405 7.6575C10.4251 7.67625 10.4087 7.69594 10.3937 7.71563L10.3754 7.73672C10.358 7.75641 10.3398 7.7761 10.321 7.79625C10.3154 7.80188 10.3102 7.80797 10.3046 7.81407C10.2802 7.83891 10.2554 7.86422 10.2287 7.88953L10.2104 7.90688C10.1893 7.92657 10.1682 7.94578 10.1457 7.96547L10.1166 7.99032C10.096 8.00766 10.0744 8.025 10.0529 8.04188C10.043 8.04938 10.0337 8.05735 10.0238 8.06438C9.99194 8.08828 9.9596 8.11125 9.92585 8.13422C9.66411 8.29998 9.37178 8.41156 9.06616 8.46235L9.06897 8.4675C11.6152 12.7842 15.5982 18.712 19.6946 23.4295C19.7276 23.4711 19.7694 23.5048 19.817 23.5284C19.8645 23.552 19.9167 23.5648 19.9698 23.5659C20.2224 23.5655 20.4479 23.2688 20.2749 22.9688Z" fill="black"/>
<path d="M11.8438 13.6917C10.2158 11.242 8.69054 8.74641 7.57819 6.72047C5.86585 7.34063 4.9035 8.02313 4.9035 8.02313C4.35179 8.42016 3.58632 9.17907 3.71522 9.85547C3.90272 10.8328 4.76382 11.0742 5.27991 11.6367C6.11804 12.5494 5.2021 13.7461 3.93554 13.6772C1.35741 13.5366 -1.3815 16.0889 0.951473 19.058C5.71866 25.1302 13.9523 22.4916 17.1093 20.9808C14.9915 18.3019 13.1465 15.6516 11.8438 13.6917ZM2.63757 18.6272C2.61999 18.5675 2.61999 18.5041 2.63757 18.4444V18.6272ZM7.26835 18.4678C6.98475 19.2745 5.75991 19.5788 4.53272 19.1475C3.30554 18.7163 2.5396 17.7131 2.82272 16.9064C3.10585 16.0997 4.33116 15.7955 5.55835 16.2267C6.78554 16.658 7.55147 17.6616 7.26835 18.4688V18.4678Z" fill="black"/>
<path d="M7.66031 1.32843C7.08281 0.836716 6.28359 0.62531 5.52234 0.62531C5.28963 0.624966 5.05733 0.645043 4.82812 0.685309C4.03453 0.825934 3.375 1.25812 3.375 1.25812C3.375 1.25812 4.87172 1.56281 4.73906 2.35968C4.59844 3.21609 4.80516 4.10062 5.28469 4.5539C5.67088 4.92543 6.18552 5.13364 6.72141 5.13515C7.0087 5.1367 7.29289 5.07579 7.55432 4.95665C7.81574 4.83751 8.04815 4.66299 8.23547 4.44515C8.94938 3.60375 8.88797 2.37468 7.66031 1.32843Z" fill="black"/>
<path d="M7.79727 4.8089C7.74242 4.845 7.69602 4.87734 7.6543 4.9064C7.74203 4.86027 7.82617 4.80762 7.90602 4.7489C7.8682 4.76591 7.83183 4.78598 7.79727 4.8089Z" fill="black"/>
<path d="M7.18921 5.07328L7.19202 5.07891L7.21733 5.07281L7.18921 5.07328Z" fill="black"/>
<path d="M8.50354 4.71281C8.20309 5.05606 7.80902 5.30417 7.36963 5.42672C7.76572 6.19078 8.26025 7.08422 8.83447 8.07094V8.06485C9.1118 8.04068 9.38053 7.95638 9.62197 7.81781C9.644 7.80469 9.66603 7.7911 9.6876 7.77703C9.93047 7.60578 10.1355 7.38639 10.2899 7.1325L10.2965 7.13625C9.58072 6.11906 8.97275 5.29688 8.50354 4.71281Z" fill="black"/>
</g>
<defs>
<clipPath id="clip0_723_2235">
<rect width="24" height="24" fill="white"/>
</clipPath>
</defs>
</svg>
