<svg width="24" height="24" viewBox="0 0 24 24" fill="none" xmlns="http://www.w3.org/2000/svg">
<g clip-path="url(#clip0_723_2261)">
<path d="M12.2307 3.16781L11.2224 1.58391L10.2099 0L9.20634 1.58391L8.24634 3.16781H10.2099H12.2307Z" fill="black"/>
<path d="M6.14401 7.39218H0.864014V10.1283H6.14401V7.39218Z" fill="black"/>
<path d="M7.98235 4.22391H12.5424V7.0561H13.1138V4.22391V3.60001H7.35376V3.64782V4.22391V10.1278H7.98235V4.22391Z" fill="black"/>
<path d="M16.944 12.3839H15.1201V14.2078H16.944V12.3839Z" fill="black"/>
<path d="M19.4401 12.3839H17.6162V14.2078H19.4401V12.3839Z" fill="black"/>
<path d="M16.944 15.0239H15.1201V16.8478H16.944V15.0239Z" fill="black"/>
<path d="M19.4401 15.0239H17.6162V16.8478H19.4401V15.0239Z" fill="black"/>
<path d="M16.944 17.6639H15.1201V19.4878H16.944V17.6639Z" fill="black"/>
<path d="M19.4401 17.6639H17.6162V19.4878H19.4401V17.6639Z" fill="black"/>
<path d="M16.944 20.3039H15.1201V22.1278H16.944V20.3039Z" fill="black"/>
<path d="M19.4401 20.3039H17.6162V22.1278H19.4401V20.3039Z" fill="black"/>
<path d="M3.93621 12.3839H2.1123V14.2078H3.93621V12.3839Z" fill="black"/>
<path d="M6.43182 12.3839H4.60791V14.2078H6.43182V12.3839Z" fill="black"/>
<path d="M8.92791 12.3839H7.104V14.2078H8.92791V12.3839Z" fill="black"/>
<path d="M3.93621 15.0239H2.1123V16.8478H3.93621V15.0239Z" fill="black"/>
<path d="M6.43182 15.0239H4.60791V16.8478H6.43182V15.0239Z" fill="black"/>
<path d="M8.92791 15.0239H7.104V16.8478H8.92791V15.0239Z" fill="black"/>
<path d="M3.93621 17.6639H2.1123V19.4878H3.93621V17.6639Z" fill="black"/>
<path d="M6.43182 17.6639H4.60791V19.4878H6.43182V17.6639Z" fill="black"/>
<path d="M8.92791 17.6639H7.104V19.4878H8.92791V17.6639Z" fill="black"/>
<path d="M3.93621 20.3039H2.1123V22.1278H3.93621V20.3039Z" fill="black"/>
<path d="M6.43182 20.3039H4.60791V22.1278H6.43182V20.3039Z" fill="black"/>
<path d="M8.92791 20.3039H7.104V22.1278H8.92791V20.3039Z" fill="black"/>
<path d="M23.28 23.2322V7.48781H19.3922V4.89609H18.7678V7.48781H17.9531V10.2094H21.1209V23.1694H20.6887V10.6561H13.9219V23.1839H13.3439V10.2239H16.8V7.48781H11.3761V23.2322H10.2722V10.56H0.816094V23.1839H0V24H24V23.2322H23.28ZM9.50391 23.1853H1.58203V11.28H9.50391V23.1853ZM20.0161 23.2322H14.4961V11.4239H20.0156L20.0161 23.2322Z" fill="black"/>
</g>
<defs>
<clipPath id="clip0_723_2261">
<rect width="24" height="24" fill="white"/>
</clipPath>
</defs>
</svg>
