<svg width="24" height="24" viewBox="0 0 24 24" fill="none" xmlns="http://www.w3.org/2000/svg">
<g clip-path="url(#clip0_723_2233)">
<path d="M0 7.82391V24H24V7.82391H0ZM6 22.9439H1.44V18.8161H6.04688V22.9439H6ZM6 18.0469H1.44V13.9219H6.04688V18.0469H6ZM6 13.103H1.44V8.9761H6.04688V13.1039L6 13.103ZM11.52 22.9439H6.91219V18.8161H11.52V22.9439ZM11.52 18.0478H6.91219V13.9219H11.52V18.0478ZM11.52 13.1039H6.91219V8.9761H11.52V13.1039ZM17.04 22.9439H12.4322V18.8161H17.04V22.9439ZM17.04 18.0478H12.4322V13.9219H17.04V18.0478ZM17.04 13.1039H12.4322V8.9761H17.04V13.1039ZM22.56 22.9439H17.9531V18.8161H22.5609L22.56 22.9439ZM22.56 18.0478H17.9531V13.9219H22.5609L22.56 18.0478ZM22.56 13.1039H17.9531V8.9761H22.5609L22.56 13.1039Z" fill="black"/>
<path d="M18.8639 3.2639V4.12781V4.55999H18.4322H16.9922H16.56V4.12781V3.2639H7.05609V4.12781V4.55999H6.62391H5.13609H4.70391V4.12781V3.2639H0V7.29609H24V3.2639H18.8639Z" fill="black"/>
<path d="M6.62384 0H5.18384V4.03219H6.62384V0Z" fill="black"/>
<path d="M18.4322 0H16.9922V4.03219H18.4322V0Z" fill="black"/>
</g>
<defs>
<clipPath id="clip0_723_2233">
<rect width="24" height="24" fill="white"/>
</clipPath>
</defs>
</svg>
