<svg width="24" height="24" viewBox="0 0 24 24" fill="none" xmlns="http://www.w3.org/2000/svg">
<g clip-path="url(#clip0_723_2244)">
<path d="M0 19.4156V6.30938C0.340313 5.45391 0.634687 5.25609 1.56422 5.25609H2.13V4.56563H5.56172V5.23735C5.59243 5.24512 5.62383 5.24983 5.65547 5.25141C6.77344 5.25141 7.88672 5.25609 9.00469 5.24672C9.05095 5.2409 9.09514 5.22408 9.13356 5.19765C9.17198 5.17122 9.20349 5.13597 9.22547 5.09485C9.44156 4.65328 9.64734 4.20422 9.84188 3.75141C9.90188 3.61359 9.97547 3.56766 10.1273 3.56766C11.3555 3.57234 12.5837 3.57234 13.8122 3.56766C13.9641 3.56766 14.0377 3.62719 14.1019 3.75516C14.3091 4.18781 14.5345 4.60641 14.7323 5.04328C14.8102 5.21344 14.9114 5.26406 15.0956 5.26406C17.6072 5.25516 20.1192 5.25938 22.6308 5.25938C23.482 5.25938 24.0019 5.77922 24.0019 6.62578V19.0617C23.9972 19.9266 23.4862 20.4323 22.6125 20.4323H17.2055C11.9192 20.4323 6.63344 20.4294 1.34812 20.4234C1.1031 20.4165 0.862 20.3601 0.639375 20.2575C0.285 20.1056 0.128906 19.7653 0 19.4156ZM12.0117 7.11C8.69484 7.11 5.985 9.79641 5.98031 13.095C5.97563 16.3936 8.65781 19.0983 11.8828 19.1442C15.158 19.1911 17.9967 16.5773 18.015 13.1639C18.0221 12.3712 17.8721 11.5849 17.5735 10.8505C17.275 10.1161 16.8339 9.44813 16.2757 8.88521C15.7174 8.32229 15.0532 7.87558 14.3213 7.57088C13.5895 7.26618 12.8045 7.10954 12.0117 7.11ZM13.695 5.24203C13.5389 4.93828 13.41 4.66688 13.2628 4.40484C13.2403 4.37624 13.2119 4.35281 13.1796 4.33615C13.1472 4.31949 13.1117 4.30998 13.0753 4.30828C12.3436 4.3036 11.6077 4.3036 10.8759 4.30828C10.8164 4.30828 10.7245 4.34063 10.7016 4.38656C10.5633 4.66266 10.4438 4.94297 10.3059 5.24672C11.4412 5.24203 12.5452 5.24203 13.695 5.24203ZM17.5964 7.53891C17.5962 7.62836 17.6137 7.71697 17.6478 7.79966C17.682 7.88235 17.7321 7.95748 17.7953 8.02076C17.8585 8.08404 17.9336 8.13421 18.0163 8.1684C18.099 8.20259 18.1876 8.22012 18.277 8.22C18.4124 8.22056 18.5449 8.18089 18.6577 8.10603C18.7705 8.03117 18.8586 7.92448 18.9107 7.79952C18.9628 7.67455 18.9766 7.53692 18.9503 7.4041C18.9241 7.27128 18.859 7.14924 18.7633 7.05347C18.6676 6.9577 18.5456 6.89252 18.4128 6.86618C18.28 6.83985 18.1423 6.85355 18.0173 6.90556C17.8923 6.95756 17.7856 7.04552 17.7106 7.15828C17.6357 7.27104 17.5959 7.40352 17.5964 7.53891Z" fill="black"/>
<path d="M16.9016 13.1363C16.9016 15.8597 14.7074 18.0309 11.9516 18.0263C9.29241 18.022 7.09819 15.8138 7.09351 13.1363C7.09351 11.8356 7.61018 10.5882 8.52987 9.66856C9.44956 8.74887 10.6969 8.23219 11.9976 8.23219C13.2982 8.23219 14.5456 8.74887 15.4653 9.66856C16.385 10.5882 16.9016 11.8356 16.9016 13.1363ZM16.0368 13.1363C16.0457 10.9144 14.2382 9.09282 12.0252 9.08813C9.8446 9.07876 8.02304 10.882 7.97241 13.0027C7.92179 15.1791 9.6421 17.1277 11.9516 17.1525C12.4844 17.1603 13.0135 17.0622 13.5081 16.8639C14.0028 16.6657 14.4531 16.3713 14.8331 15.9977C15.2131 15.6241 15.5152 15.1788 15.7218 14.6876C15.9284 14.1964 16.0355 13.6691 16.0368 13.1363Z" fill="black"/>
</g>
<defs>
<clipPath id="clip0_723_2244">
<rect width="24" height="24" fill="white"/>
</clipPath>
</defs>
</svg>
