<svg width="24" height="24" viewBox="0 0 24 24" fill="none" xmlns="http://www.w3.org/2000/svg">
<g clip-path="url(#clip0_723_2230)">
<path d="M2.0625 12.6722C2.3082 12.6752 2.54777 12.7493 2.75225 12.8855C2.95672 13.0218 3.11734 13.2144 3.21469 13.44H7.72641C7.82121 13.2126 7.98121 13.0183 8.18625 12.8816C8.39128 12.7449 8.63218 12.672 8.87859 12.672C9.125 12.672 9.3659 12.7449 9.57094 12.8816C9.77597 13.0183 9.93597 13.2126 10.0308 13.44H10.8V12.2878H5.80781V9.98438H2.30391L1.72781 11.1361H3.45609V12.2878H0V13.44H0.912187C1.0093 13.2146 1.16961 13.0222 1.37374 12.8859C1.57787 12.7496 1.81709 12.6754 2.0625 12.6722Z" fill="black"/>
<path d="M20.0157 12.3839V11.1839H21.6474L20.9762 9.98438H17.0387L16.3665 12.4327H15.0723V13.6327H15.6001C15.6601 13.3591 15.8119 13.1143 16.0301 12.9388C16.2484 12.7633 16.52 12.6676 16.8001 12.6676C17.0801 12.6676 17.3518 12.7633 17.57 12.9388C17.7883 13.1143 17.94 13.3591 18.0001 13.6327H20.5923C20.6523 13.3591 20.8041 13.1143 21.0223 12.9388C21.2405 12.7633 21.5122 12.6676 21.7923 12.6676C22.0723 12.6676 22.344 12.7633 22.5622 12.9388C22.7805 13.1143 22.9322 13.3591 22.9923 13.6327H24.0001V12.3839H20.0157ZM19.0557 12.3839H17.087L17.4277 11.1839H19.0552L19.0557 12.3839Z" fill="black"/>
<path d="M5.71216 0.046875V5.76H6.33606C6.3424 5.43319 6.47667 5.12189 6.71004 4.89301C6.9434 4.66412 7.25724 4.53591 7.58411 4.53591C7.91099 4.53591 8.22482 4.66412 8.45819 4.89301C8.69155 5.12189 8.82582 5.43319 8.83216 5.76H8.87903C8.88537 5.43319 9.01964 5.12189 9.25301 4.89301C9.48637 4.66412 9.8002 4.53591 10.1271 4.53591C10.454 4.53591 10.7678 4.66412 11.0012 4.89301C11.2345 5.12189 11.3688 5.43319 11.3751 5.76H17.2322C17.2322 5.42906 17.3636 5.11167 17.5976 4.87766C17.8316 4.64365 18.149 4.51219 18.48 4.51219C18.8109 4.51219 19.1283 4.64365 19.3623 4.87766C19.5963 5.11167 19.7278 5.42906 19.7278 5.76H19.7747C19.781 5.43319 19.9153 5.12189 20.1486 4.89301C20.382 4.66412 20.6958 4.53591 21.0227 4.53591C21.3496 4.53591 21.6634 4.66412 21.8968 4.89301C22.1301 5.12189 22.2644 5.43319 22.2708 5.76H24V0.046875H5.71216Z" fill="black"/>
<path d="M2.4 4.56C2.72426 4.55484 3.03741 4.6781 3.27116 4.90289C3.50491 5.12769 3.64031 5.43579 3.64781 5.76H5.28V4.84782H4.56V1.15219H0V2.30391H1.15219V3.4561H0V5.76H1.15219C1.15969 5.43579 1.29509 5.12769 1.52884 4.90289C1.76259 4.6781 2.07574 4.55484 2.4 4.56Z" fill="black"/>
<path d="M2.40008 4.94391C2.18364 4.94391 1.97606 5.02989 1.82301 5.18294C1.66997 5.33598 1.58398 5.54356 1.58398 5.76C1.58398 5.97644 1.66997 6.18402 1.82301 6.33707C1.97606 6.49012 2.18364 6.5761 2.40008 6.5761C2.61458 6.56996 2.81861 6.48201 2.97035 6.33027C3.12209 6.17853 3.21004 5.9745 3.21617 5.76C3.21742 5.54488 3.13319 5.33807 2.982 5.18504C2.83081 5.03201 2.62504 4.94527 2.40992 4.94391H2.40008Z" fill="black"/>
<path d="M2.06243 13.1039C1.84599 13.1039 1.63841 13.1899 1.48537 13.3429C1.33232 13.496 1.24634 13.7036 1.24634 13.92C1.24634 14.1364 1.33232 14.344 1.48537 14.4971C1.63841 14.6501 1.84599 14.7361 2.06243 14.7361C2.27687 14.7303 2.48098 14.6428 2.63297 14.4914C2.78496 14.3401 2.87331 14.1363 2.87993 13.9219C2.88118 13.7068 2.79695 13.5 2.64576 13.3469C2.49457 13.1939 2.2888 13.1072 2.07368 13.1058L2.06243 13.1039Z" fill="black"/>
<path d="M8.88006 13.1039C8.71873 13.1039 8.56102 13.1517 8.42686 13.2413C8.29269 13.3309 8.18809 13.4583 8.12627 13.6073C8.06444 13.7563 8.04817 13.9203 8.07951 14.0785C8.11085 14.2368 8.18839 14.3822 8.30233 14.4964C8.41628 14.6106 8.56152 14.6885 8.7197 14.7202C8.87788 14.7519 9.04191 14.736 9.19107 14.6745C9.34022 14.613 9.4678 14.5087 9.5577 14.3748C9.6476 14.2408 9.69578 14.0832 9.69615 13.9219C9.70518 13.7146 9.63155 13.5122 9.49145 13.3592C9.35135 13.2062 9.15623 13.115 8.94896 13.1058C8.92615 13.1036 8.90318 13.103 8.88006 13.1039Z" fill="black"/>
<path d="M17.617 13.9247V13.9219C17.6248 13.7145 17.5499 13.5126 17.4088 13.3605C17.2677 13.2083 17.072 13.1184 16.8647 13.1105C16.8431 13.1105 16.8221 13.1105 16.801 13.1105C16.6395 13.1105 16.4818 13.1583 16.3476 13.248C16.2134 13.3377 16.1088 13.4651 16.047 13.6143C15.9852 13.7634 15.9691 13.9275 16.0005 14.0858C16.032 14.2441 16.1098 14.3895 16.2239 14.5036C16.338 14.6178 16.4834 14.6955 16.6417 14.727C16.8001 14.7585 16.9641 14.7423 17.1133 14.6805C17.2624 14.6188 17.3898 14.5142 17.4795 14.38C17.5692 14.2458 17.617 14.088 17.617 13.9266V13.9247Z" fill="black"/>
<path d="M22.5885 13.9392C22.5894 13.7244 22.5049 13.518 22.3538 13.3653C22.2026 13.2127 21.9971 13.1262 21.7822 13.125H21.7729C21.6114 13.1249 21.4536 13.1727 21.3193 13.2623C21.1851 13.3519 21.0804 13.4793 21.0186 13.6285C20.9567 13.7776 20.9405 13.9417 20.9719 14.1C21.0034 14.2584 21.081 14.4038 21.1952 14.518C21.3093 14.6322 21.4547 14.7099 21.613 14.7415C21.7713 14.773 21.9354 14.7569 22.0846 14.6951C22.2337 14.6334 22.3612 14.5288 22.4509 14.3945C22.5406 14.2603 22.5885 14.1025 22.5885 13.9411V13.9392Z" fill="black"/>
<path d="M8.39903 5.76C8.40356 5.65735 8.38783 5.55482 8.35273 5.45825C8.31764 5.36168 8.26386 5.27298 8.19447 5.19719C8.12509 5.12141 8.04146 5.06004 7.94835 5.01658C7.85525 4.97312 7.7545 4.94843 7.65185 4.94391C7.62872 4.94391 7.60575 4.94391 7.58294 4.94391C7.42153 4.94391 7.26375 4.99177 7.12954 5.08145C6.99534 5.17112 6.89074 5.29858 6.82897 5.4477C6.7672 5.59682 6.75104 5.76091 6.78253 5.91921C6.81402 6.07752 6.89174 6.22294 7.00587 6.33707C7.12001 6.4512 7.26542 6.52893 7.42373 6.56042C7.58203 6.5919 7.74612 6.57574 7.89525 6.51397C8.04437 6.45221 8.17182 6.34761 8.2615 6.2134C8.35117 6.07919 8.39903 5.92141 8.39903 5.76Z" fill="black"/>
<path d="M10.943 5.76C10.9437 5.65347 10.9233 5.54785 10.8832 5.44917C10.843 5.35049 10.7838 5.26069 10.7089 5.1849C10.6341 5.10912 10.545 5.04882 10.4468 5.00747C10.3486 4.96612 10.2433 4.94452 10.1367 4.94391H10.1274C9.96593 4.94382 9.8081 4.9916 9.67383 5.08122C9.53956 5.17083 9.43489 5.29826 9.37305 5.44737C9.31121 5.59649 9.29498 5.76059 9.32642 5.91893C9.35785 6.07726 9.43554 6.22272 9.54965 6.3369C9.66377 6.45108 9.80918 6.52885 9.9675 6.56038C10.1258 6.59191 10.2899 6.57577 10.4391 6.51402C10.5882 6.45227 10.7157 6.34766 10.8054 6.21345C10.8951 6.07923 10.943 5.92143 10.943 5.76Z" fill="black"/>
<path d="M19.2953 5.76C19.296 5.65347 19.2756 5.54785 19.2355 5.44917C19.1953 5.35049 19.1361 5.26069 19.0612 5.1849C18.9864 5.10912 18.8973 5.04882 18.7991 5.00747C18.7009 4.96612 18.5956 4.94452 18.489 4.94391H18.4792C18.3178 4.94391 18.16 4.99177 18.0258 5.08145C17.8916 5.17112 17.787 5.29858 17.7252 5.4477C17.6634 5.59682 17.6473 5.76091 17.6788 5.91921C17.7103 6.07752 17.788 6.22294 17.9021 6.33707C18.0162 6.4512 18.1617 6.52893 18.32 6.56042C18.4783 6.5919 18.6424 6.57574 18.7915 6.51397C18.9406 6.45221 19.0681 6.34761 19.1577 6.2134C19.2474 6.07919 19.2953 5.92141 19.2953 5.76Z" fill="black"/>
<path d="M21.8391 5.76C21.8482 5.553 21.7749 5.35083 21.6352 5.19783C21.4954 5.04483 21.3007 4.95351 21.0937 4.94391C21.0709 4.94391 21.048 4.94391 21.0248 4.94391C20.8634 4.94391 20.7056 4.99177 20.5714 5.08145C20.4372 5.17112 20.3326 5.29858 20.2709 5.4477C20.2091 5.59682 20.1929 5.76091 20.2244 5.91921C20.2559 6.07752 20.3336 6.22294 20.4478 6.33707C20.5619 6.4512 20.7073 6.52893 20.8656 6.56042C21.0239 6.5919 21.188 6.57574 21.3371 6.51397C21.4863 6.45221 21.6137 6.34761 21.7034 6.2134C21.7931 6.07919 21.8409 5.92141 21.8409 5.76H21.8391Z" fill="black"/>
<path d="M0 23.1361H1.82391C1.8319 22.8121 1.96755 22.5043 2.20134 22.2799C2.43513 22.0554 2.74812 21.9323 3.07219 21.9375C3.39645 21.9323 3.7096 22.0556 3.94335 22.2804C4.1771 22.5052 4.31249 22.8133 4.32 23.1375C4.31678 22.9716 4.34669 22.8067 4.40796 22.6524C4.46924 22.4982 4.56066 22.3577 4.67687 22.2392C4.79308 22.1208 4.93175 22.0266 5.08477 21.9624C5.23779 21.8981 5.40208 21.865 5.56805 21.865C5.73401 21.865 5.8983 21.8981 6.05132 21.9624C6.20434 22.0266 6.34302 22.1208 6.45923 22.2392C6.57544 22.3577 6.66685 22.4982 6.72813 22.6524C6.7894 22.8067 6.81931 22.9716 6.81609 23.1375H12.6239C12.6302 22.8107 12.7645 22.4994 12.9979 22.2705C13.2312 22.0416 13.5451 21.9134 13.872 21.9134C14.1988 21.9134 14.5127 22.0416 14.746 22.2705C14.9794 22.4994 15.1137 22.8107 15.12 23.1375H15.1669C15.1637 22.9716 15.1936 22.8067 15.2548 22.6524C15.3161 22.4982 15.4075 22.3577 15.5237 22.2392C15.64 22.1208 15.7786 22.0266 15.9316 21.9624C16.0847 21.8981 16.249 21.865 16.4149 21.865C16.5809 21.865 16.7452 21.8981 16.8982 21.9624C17.0512 22.0266 17.1899 22.1208 17.3061 22.2392C17.4223 22.3577 17.5137 22.4982 17.575 22.6524C17.6363 22.8067 17.6662 22.9716 17.663 23.1375H18.2869V17.4239H0V23.1361Z" fill="black"/>
<path d="M19.44 22.2239H18.72V23.1361H20.3522C20.3522 22.8052 20.4836 22.4878 20.7176 22.2538C20.9516 22.0198 21.269 21.8883 21.6 21.8883C21.9309 21.8883 22.2483 22.0198 22.4823 22.2538C22.7163 22.4878 22.8478 22.8052 22.8478 23.1361H24V20.8322H22.8478V19.68H24V18.5278H19.44V22.2239Z" fill="black"/>
<path d="M21.601 22.32C21.3859 22.3187 21.1791 22.403 21.026 22.5542C20.873 22.7053 20.7863 22.9111 20.7849 23.1262V23.1361C20.7849 23.2975 20.8328 23.4553 20.9224 23.5895C21.0121 23.7237 21.1396 23.8283 21.2887 23.8901C21.4378 23.9518 21.6019 23.968 21.7602 23.9365C21.9185 23.905 22.0639 23.8273 22.1781 23.7131C22.2922 23.599 22.3699 23.4536 22.4014 23.2953C22.4329 23.137 22.4167 22.9729 22.355 22.8238C22.2932 22.6747 22.1886 22.5472 22.0544 22.4575C21.9202 22.3679 21.7624 22.32 21.601 22.32Z" fill="black"/>
<path d="M16.4169 22.32C16.2023 22.3259 15.9982 22.4138 15.8464 22.5656C15.6946 22.7174 15.6067 22.9215 15.6008 23.1361C15.6008 23.2975 15.6487 23.4553 15.7384 23.5895C15.828 23.7237 15.9555 23.8283 16.1046 23.8901C16.2537 23.9518 16.4178 23.968 16.5761 23.9365C16.7344 23.905 16.8799 23.8273 16.994 23.7132C17.1081 23.599 17.1858 23.4536 17.2173 23.2953C17.2488 23.137 17.2327 22.9729 17.1709 22.8238C17.1091 22.6747 17.0045 22.5472 16.8703 22.4575C16.7361 22.3679 16.5783 22.32 16.4169 22.32Z" fill="black"/>
<path d="M13.8749 22.32C13.6598 22.3187 13.453 22.403 13.3 22.5542C13.1469 22.7053 13.0602 22.9111 13.0588 23.1262V23.1361C13.0588 23.2975 13.1067 23.4553 13.1964 23.5895C13.286 23.7237 13.4135 23.8283 13.5626 23.8901C13.7117 23.9518 13.8758 23.968 14.0341 23.9365C14.1925 23.905 14.3379 23.8273 14.452 23.7131C14.5661 23.599 14.6439 23.4536 14.6753 23.2953C14.7068 23.137 14.6907 22.9729 14.6289 22.8238C14.5671 22.6747 14.4625 22.5472 14.3283 22.4575C14.1941 22.3679 14.0363 22.32 13.8749 22.32Z" fill="black"/>
<path d="M5.56782 22.32C5.35333 22.326 5.14929 22.414 4.9976 22.5657C4.84592 22.7175 4.7581 22.9216 4.7522 23.1361C4.7522 23.2975 4.80007 23.4553 4.88977 23.5895C4.97946 23.7238 5.10694 23.8284 5.25609 23.8901C5.40524 23.9519 5.56936 23.968 5.72768 23.9365C5.886 23.905 6.03141 23.8272 6.14552 23.713C6.25964 23.5988 6.33732 23.4534 6.36876 23.295C6.4002 23.1367 6.38397 22.9726 6.32213 22.8235C6.26029 22.6744 6.15561 22.5469 6.02135 22.4573C5.88708 22.3677 5.72925 22.3199 5.56782 22.32Z" fill="black"/>
<path d="M3.07122 22.32C2.85478 22.32 2.6472 22.406 2.49416 22.559C2.34111 22.7121 2.25513 22.9197 2.25513 23.1361C2.25513 23.3525 2.34111 23.5601 2.49416 23.7132C2.6472 23.8662 2.85478 23.9522 3.07122 23.9522C3.28766 23.9522 3.49524 23.8662 3.64829 23.7132C3.80133 23.5601 3.88731 23.3525 3.88731 23.1361C3.88731 22.9197 3.80133 22.7121 3.64829 22.559C3.49524 22.406 3.28766 22.32 3.07122 22.32Z" fill="black"/>
<path d="M12.0961 8.83218H6.23999V11.8083H12.0961V8.83218Z" fill="black"/>
</g>
<defs>
<clipPath id="clip0_723_2230">
<rect width="24" height="24" fill="white"/>
</clipPath>
</defs>
</svg>
