<svg width="24" height="24" viewBox="0 0 24 24" fill="none" xmlns="http://www.w3.org/2000/svg">
<g clip-path="url(#clip0_723_2226)">
<path d="M23.5364 3.41486H8.26831V5.07329H23.5364V3.41486Z" fill="black"/>
<path d="M4.5122 2.63437L5.53642 1.65843H1.58533L2.60955 2.63437H4.5122Z" fill="black"/>
<path d="M6.46365 3.5611L5.48771 4.53656V6.43922H3.58552H3.53677H1.68287V4.58531L0.707397 3.60985V7.41469H6.46365V3.5611Z" fill="black"/>
<path d="M8.61003 0.682969L7.87784 0L3.53675 4.34156L1.19534 1.95141L0.463623 2.63438L3.53675 5.75625L8.61003 0.682969Z" fill="black"/>
<path d="M23.5364 11.7075H8.26831V13.3659H23.5364V11.7075Z" fill="black"/>
<path d="M4.5122 10.927L5.53642 9.95111H1.58533L2.60955 10.927H4.5122Z" fill="black"/>
<path d="M6.46365 11.8538L5.48771 12.8292V14.7319H3.58552H3.53677H1.68287V12.878L0.707397 11.9025V15.7074H6.46365V11.8538Z" fill="black"/>
<path d="M8.61003 8.97563L7.87784 8.29266L3.53675 12.6342L1.19534 10.2441L0.463623 10.927L3.53675 14.0489L8.61003 8.97563Z" fill="black"/>
<path d="M23.5364 20.0002H8.26831V21.6586H23.5364V20.0002Z" fill="black"/>
<path d="M4.5122 19.2197L5.53642 18.2437H1.58533L2.60955 19.2197H4.5122Z" fill="black"/>
<path d="M5.48771 22.9758H3.58552L3.53677 23.0245V22.9758H1.68287V21.1706L0.707397 20.1952V24H6.46365V20.0977L5.48771 21.1219V22.9758Z" fill="black"/>
<path d="M8.61003 17.2683L7.87784 16.5853L3.53675 20.9269L1.19534 18.5367L0.463623 19.2197L3.53675 22.3416L8.61003 17.2683Z" fill="black"/>
</g>
<defs>
<clipPath id="clip0_723_2226">
<rect width="24" height="24" fill="white"/>
</clipPath>
</defs>
</svg>
