<svg width="24" height="24" viewBox="0 0 24 24" fill="none" xmlns="http://www.w3.org/2000/svg">
<g clip-path="url(#clip0_723_2229)">
<path d="M15.3797 3.00796H13.494C13.6652 2.78751 13.7841 2.53106 13.8418 2.25796C13.9061 1.95067 13.8923 1.63213 13.8015 1.33157C13.7108 1.03101 13.546 0.758061 13.3223 0.537749C13.0986 0.317437 12.8232 0.156822 12.5213 0.0706382C12.2194 -0.015546 11.9007 -0.02454 11.5944 0.0444812C11.2881 0.113503 11.0041 0.258329 10.7683 0.465675C10.5325 0.673022 10.3526 0.936249 10.2451 1.23121C10.1375 1.52617 10.1057 1.84342 10.1526 2.15386C10.1996 2.46429 10.3237 2.75797 10.5136 3.00796H8.63208V5.25796H15.3821L15.3797 3.00796ZM13.0613 2.25796C12.9647 2.51952 12.7735 2.73534 12.5255 2.86277C12.2775 2.99021 11.9908 3.01998 11.7219 2.94622C11.453 2.87246 11.2215 2.70053 11.0733 2.46439C10.925 2.22826 10.8707 1.9451 10.9211 1.67087C10.9715 1.39664 11.1229 1.15128 11.3454 0.983279C11.568 0.815278 11.8454 0.736852 12.1229 0.763499C12.4005 0.790146 12.658 0.919926 12.8444 1.1272C13.0309 1.33447 13.1329 1.60415 13.1302 1.88296C13.129 2.01115 13.1057 2.13817 13.0613 2.25843V2.25796Z" fill="black"/>
<path d="M6.62964 7.75266C6.62964 7.90099 6.67363 8.046 6.75604 8.16933C6.83845 8.29267 6.95558 8.3888 7.09263 8.44556C7.22967 8.50233 7.38047 8.51718 7.52596 8.48824C7.67144 8.45931 7.80508 8.38787 7.90997 8.28298C8.01486 8.1781 8.08629 8.04446 8.11523 7.89897C8.14417 7.75349 8.12931 7.60269 8.07255 7.46564C8.01578 7.3286 7.91965 7.21146 7.79632 7.12905C7.67298 7.04664 7.52797 7.00266 7.37964 7.00266C7.18073 7.00266 6.98996 7.08167 6.84931 7.22233C6.70866 7.36298 6.62964 7.55374 6.62964 7.75266Z" fill="black"/>
<path d="M17.1779 7.00311H9.10132V8.50264H17.1779V7.00311Z" fill="black"/>
<path d="M7.37915 10.9017C7.23081 10.9017 7.08581 10.9457 6.96247 11.0281C6.83914 11.1105 6.74301 11.2277 6.68624 11.3647C6.62948 11.5018 6.61462 11.6526 6.64356 11.7981C6.6725 11.9435 6.74393 12.0772 6.84882 12.1821C6.95371 12.287 7.08735 12.3584 7.23283 12.3873C7.37832 12.4163 7.52912 12.4014 7.66616 12.3446C7.80321 12.2879 7.92034 12.1917 8.00275 12.0684C8.08516 11.9451 8.12915 11.8001 8.12915 11.6517C8.12915 11.4528 8.05013 11.2621 7.90948 11.1214C7.76883 10.9808 7.57806 10.9017 7.37915 10.9017Z" fill="black"/>
<path d="M17.1779 10.9017H9.10132V12.4013H17.1779V10.9017Z" fill="black"/>
<path d="M7.37915 14.7998C7.23081 14.7998 7.08581 14.8438 6.96247 14.9262C6.83914 15.0086 6.74301 15.1258 6.68624 15.2628C6.62948 15.3999 6.61462 15.5507 6.64356 15.6962C6.6725 15.8416 6.74393 15.9753 6.84882 16.0802C6.95371 16.1851 7.08735 16.2565 7.23283 16.2854C7.37832 16.3144 7.52912 16.2995 7.66616 16.2427C7.80321 16.186 7.92034 16.0898 8.00275 15.9665C8.08516 15.8432 8.12915 15.6982 8.12915 15.5498C8.12915 15.3509 8.05013 15.1602 7.90948 15.0195C7.76883 14.8789 7.57806 14.7998 7.37915 14.7998Z" fill="black"/>
<path d="M17.1779 14.7998H9.10132V16.2994H17.1779V14.7998Z" fill="black"/>
<path d="M16.1174 3.00797V4.5075H18.3665V22.5005H14.6291H9.3707H5.63336V4.5075H7.88242V3.00797H4.11133V24H9.3707H14.6291H19.8885V3.00797H16.1174Z" fill="black"/>
<path d="M7.37915 18.6984C7.23081 18.6984 7.08581 18.7424 6.96247 18.8248C6.83914 18.9072 6.74301 19.0244 6.68624 19.1614C6.62948 19.2985 6.61462 19.4493 6.64356 19.5947C6.6725 19.7402 6.74393 19.8739 6.84882 19.9788C6.95371 20.0836 7.08735 20.1551 7.23283 20.184C7.37832 20.213 7.52912 20.1981 7.66616 20.1413C7.80321 20.0846 7.92034 19.9884 8.00275 19.8651C8.08516 19.7418 8.12915 19.5968 8.12915 19.4484C8.12915 19.2495 8.05013 19.0587 7.90948 18.9181C7.76883 18.7774 7.57806 18.6984 7.37915 18.6984Z" fill="black"/>
<path d="M17.1576 18.6984H9.08105V20.198H17.1576V18.6984Z" fill="black"/>
</g>
<defs>
<clipPath id="clip0_723_2229">
<rect width="24" height="24" fill="white"/>
</clipPath>
</defs>
</svg>
