<svg width="40" height="40" viewBox="0 0 40 40" fill="none" xmlns="http://www.w3.org/2000/svg">
<path d="M20 39.9985C19.8288 39.998 19.6595 39.9625 19.5025 39.8943C19.3454 39.8261 19.204 39.7266 19.0867 39.6018C19.0584 39.5735 14.935 35.6052 2.06671 35.4452C1.52071 35.4365 0.000112178 35.4452 0.000112178 35.4452C0.000112178 35.4452 0.00778019 33.9212 4.711e-05 33.3752V7.49849C4.711e-05 6.94182 -6.10352e-05 5.41515 -6.10352e-05 5.41515C-6.10352e-05 5.41515 1.55338 5.41515 2.10838 5.41515C11.6384 5.53682 16.7384 7.58516 19.205 9.08016C19.7242 7.41787 20.6209 5.89825 21.825 4.64015C23.604 2.6702 25.8998 1.23875 28.4517 0.508488C29.2022 0.286938 30.1692 -8.99398e-05 31.25 0C31.25 0 31.235 1.76349 31.25 2.46349V5.88515C33.4475 5.59016 35.6613 5.43374 37.8784 5.41682C38.1987 5.41324 40 5.41682 40 5.41682C40 5.41682 39.9968 7.19416 40 7.49182V33.3618C39.9936 33.9103 40 35.4452 40 35.4452C40 35.4452 38.4769 35.4356 37.9284 35.4452C25.055 35.6052 20.94 39.5752 20.9 39.6152L20.8484 39.6652C20.6184 39.8802 20.3149 39.9994 20 39.9985ZM2.50005 32.9518C11.2717 33.1135 16.2217 34.9418 18.75 36.3468V11.7935C17.55 10.8835 13.055 8.12516 2.50005 7.92182V32.9518ZM31.25 28.0752C31.2496 28.3625 31.25 29.0834 31.25 29.0834C31.25 29.0834 30.5347 29.2399 30.2534 29.2985C27.7137 29.82 25.4015 31.1245 23.6417 33.0285C22.7986 33.9066 22.146 34.9495 21.725 36.0918C24.3584 34.7418 29.2284 33.1018 37.4984 32.9502V7.92016C35.407 7.95423 33.3198 8.11676 31.2484 8.40682L31.25 28.0752ZM21.25 31.9652C21.4334 31.7402 21.625 31.5218 21.825 31.3152C23.6975 29.2933 26.0951 27.8317 28.75 27.0935V3.03182C26.7911 3.66974 25.0341 4.81118 23.655 6.34182C22.3423 7.70851 21.4998 9.45834 21.25 11.3368V31.9652Z" fill="#1A1A1A"/>
</svg>
