<svg width="24" height="24" viewBox="0 0 24 24" fill="none" xmlns="http://www.w3.org/2000/svg">
<path d="M12.0469 1.92187C12.2973 1.92193 12.5471 1.94531 12.7931 1.99172V0.0332794H11.0977V2.03531C11.4085 1.9601 11.7271 1.92202 12.0469 1.92187Z" fill="black"/>
<path d="M20.0283 21.4458L16.9064 15.0047C17.5807 14.5455 18.1942 14.0027 18.7322 13.3894L19.5469 12.375L17.9691 11.1094L17.2031 12.0708C16.8463 12.4749 16.4484 12.8408 16.0158 13.1625L13.9331 8.86547C14.5804 8.45929 15.079 7.85477 15.3546 7.14207C15.6303 6.42936 15.6682 5.64665 15.4626 4.91065C15.2571 4.17466 14.8192 3.52482 14.2141 3.05804C13.6091 2.59126 12.8694 2.33255 12.1054 2.32049C11.3413 2.30844 10.5938 2.54367 9.97439 2.99113C9.35495 3.43858 8.89673 4.07428 8.66808 4.80342C8.43942 5.53256 8.45258 6.31608 8.70559 7.03713C8.9586 7.75818 9.4379 8.37813 10.072 8.80453L7.98608 13.1086C7.55406 12.7763 7.15841 12.3992 6.80577 11.9836L6.08249 11.0672L4.49436 12.3188L5.2289 13.2497L5.2514 13.2769C5.78864 13.9139 6.40558 14.4791 7.08702 14.9588L3.94312 21.4458L5.91608 22.3313L8.99718 15.9741C9.9367 16.3325 10.9326 16.5206 11.9381 16.5295H12.0211C13.0329 16.5297 14.0365 16.3488 14.9845 15.9952L18.0553 22.3313L20.0283 21.4458ZM12 4.99078C12.1633 4.99088 12.323 5.0394 12.4587 5.13021C12.5945 5.22102 12.7003 5.35005 12.7627 5.50097C12.8252 5.6519 12.8415 5.81796 12.8095 5.97814C12.7776 6.13833 12.6989 6.28545 12.5834 6.40091C12.4679 6.51638 12.3207 6.59499 12.1605 6.62682C12.0003 6.65865 11.8342 6.64227 11.6833 6.57974C11.5324 6.51722 11.4035 6.41135 11.3127 6.27554C11.222 6.13972 11.1736 5.98006 11.1736 5.81672C11.1736 5.70822 11.195 5.60078 11.2365 5.50054C11.278 5.4003 11.3389 5.30923 11.4157 5.23253C11.4924 5.15583 11.5835 5.095 11.6838 5.05352C11.784 5.01204 11.8915 4.99072 12 4.99078ZM12.0206 14.5092H11.9578C11.2512 14.5025 10.5505 14.3793 9.88405 14.1445L11.9855 9.80813L14.0991 14.1675C13.4294 14.3935 12.7274 14.5089 12.0206 14.5092Z" fill="black"/>
<path d="M3.83301 21.7594L5.80457 22.6387L3.95863 23.9667L3.83301 21.7594Z" fill="black"/>
<path d="M20.1671 21.7594L18.1956 22.6387L20.0415 23.9667L20.1671 21.7594Z" fill="black"/>
</svg>
