<svg width="56" height="68" viewBox="0 0 56 68" fill="none" xmlns="http://www.w3.org/2000/svg">
<rect width="56" height="68" fill="#E5E5E5"/>
<g clip-path="url(#clip0_1224_1420)">
<path d="M28 14C16.964 14 8.01794 22.9547 8.01794 34C8.01794 45.0453 16.964 54 28 54C39.0359 54 47.982 45.0453 47.982 34C47.982 22.9547 39.0359 14 28 14ZM28 51.7602C18.2 51.7602 10.2554 43.8086 10.2554 34C10.2554 24.1914 18.2015 16.2445 28 16.2398C37.7984 16.2352 45.7445 24.1914 45.7445 34C45.7445 43.8086 37.8 51.7602 28 51.7602Z" fill="#1A1A1A"/>
<path d="M44.5453 32.8789H41.4281V35.1187H44.5453V32.8789Z" fill="#1A1A1A"/>
<path d="M14.5719 32.8789H11.4547V35.1187H14.5719V32.8789Z" fill="#1A1A1A"/>
<path d="M29.1195 47.4395H26.8812V50.5598H29.1195V47.4395Z" fill="#1A1A1A"/>
<path d="M36.7125 25.4406L28.4 28.9609V22.9609H27.2805V29.3609L24.3235 30.7977L23.2039 33.4375H16.65V34.5578H22.725L19.0477 43.2008L27.361 39.6008V45.6008H28.4797V39.2008L31.4375 37.9211L32.8766 34.6398H39.111V33.4406H33.275L36.7125 25.4406ZM21.4461 40.7195L25.3625 31.7594L30.4781 36.8789L21.4461 40.7195Z" fill="#1A1A1A"/>
<path d="M29.0391 17.4395H26.8008V20.5598H29.0391V17.4395Z" fill="#1A1A1A"/>
</g>
<defs>
<clipPath id="clip0_1224_1420">
<rect width="40" height="40" fill="white" transform="translate(8 14)"/>
</clipPath>
</defs>
</svg>
