<svg width="24" height="24" viewBox="0 0 24 24" fill="none" xmlns="http://www.w3.org/2000/svg">
<g clip-path="url(#clip0_723_2263)">
<path d="M21.2052 2.18298C21.205 2.17939 21.205 2.17579 21.2052 2.1722L19.2623 2.25938C19.259 2.63766 19.2885 3.01735 19.3091 3.39516C19.3898 4.87641 19.0316 5.35641 17.5973 5.68266C17.1562 5.78298 16.7066 5.86595 16.2801 6.01079C14.3493 6.66704 13.4235 8.35735 13.874 10.3824L15.727 10.0345C15.727 9.94548 15.727 9.73548 15.7293 9.52595C15.7471 8.52376 16.0649 8.08782 17.031 7.8061C17.541 7.65751 18.0721 7.58438 18.5812 7.4311C20.3526 6.89907 21.2268 5.7436 21.2587 3.89345C21.268 3.32391 21.1916 2.75298 21.2052 2.18298Z" fill="black"/>
<path d="M16.0328 0.976655L15.2449 2.269L17.0483 3.36852L17.8362 2.07618L16.0328 0.976655Z" fill="black"/>
<path d="M23.7465 6.70642H22.2329V8.81861H23.7465V6.70642Z" fill="black"/>
<path d="M6.76499 2.96205L5.12524 4.10187L5.98799 5.34301L7.62774 4.20319L6.76499 2.96205Z" fill="black"/>
<path d="M19.4268 17.879L18.116 18.6358L19.1662 20.4549L20.477 19.6981L19.4268 17.879Z" fill="black"/>
<path d="M18.5062 9.32557L17.9231 10.7223L19.9224 11.557L20.5055 10.1603L18.5062 9.32557Z" fill="black"/>
<path d="M13.5608 13.8319C13.5608 13.8319 14.7252 13.3453 14.7599 13.3317C14.2037 12.4735 13.5572 11.6772 12.8315 10.9566C12.3962 10.5204 11.9343 10.1115 11.4486 9.73218V9.73499V9.7378V9.74062L10.7727 10.853C11.151 11.1666 11.5316 11.5125 11.9061 11.887C12.5097 12.4892 13.0631 13.1397 13.5608 13.8319Z" fill="black"/>
<path d="M14.8124 16.2656C14.9713 16.8825 14.9263 17.3742 14.6394 17.6611C13.8008 18.4997 11.2152 17.2739 8.86443 14.9226C6.51365 12.5714 5.2874 9.98624 6.12599 9.14765C6.55959 8.71405 7.46099 8.83265 8.55506 9.37359C8.55506 9.37359 9.03646 8.52187 9.13209 8.29827C7.43381 7.51968 5.91412 7.44327 5.10084 8.25515C4.86829 8.49235 4.70226 8.78658 4.61943 9.10827L4.48865 9.48608C4.47599 9.51655 4.46381 9.54749 4.45302 9.57983L0.104899 22.0898C-0.265413 23.1553 0.632712 24.0534 1.69865 23.6836L14.2077 19.3336L14.7454 19.1461C15.0414 19.0593 15.3113 18.9005 15.531 18.6839C16.1469 18.0684 16.2515 17.0433 15.9261 15.8451C15.6636 15.923 14.8124 16.2656 14.8124 16.2656Z" fill="black"/>
<path d="M9.80158 11.6377L8.19189 10.5375L8.99674 11.0873L8.19189 10.5375C8.20221 10.522 9.25643 8.97328 9.87049 7.63641C10.5188 6.22547 10.5521 3.62625 9.09377 1.25297L10.755 0.234375C12.5986 3.23438 12.5292 6.52313 11.6428 8.45297C10.9585 9.93984 9.84893 11.5692 9.80158 11.6377Z" fill="black"/>
<path d="M12.5503 14.7061L13.4222 16.4503L12.9844 15.578L13.4198 16.4503C13.4367 16.4423 15.1139 15.6066 16.522 15.1809C18.0079 14.73 20.5879 15.0501 22.7409 16.8173L23.9779 15.3098C21.2587 13.0781 17.9901 12.6984 15.9581 13.3148C14.3906 13.7906 12.6248 14.6686 12.5503 14.7061Z" fill="black"/>
</g>
<defs>
<clipPath id="clip0_723_2263">
<rect width="24" height="24" fill="white"/>
</clipPath>
</defs>
</svg>
