<svg width="24" height="24" viewBox="0 0 24 24" fill="none" xmlns="http://www.w3.org/2000/svg">
<path d="M18.4893 5.5683V14.1192H7.8482L6.18555 16.0191V17.1117H16.589L21.007 22.0997V17.1117H23.9999V5.5683H18.4893Z" fill="black"/>
<path d="M7.45828 13.4438H17.8617V1.90031H0V13.4438H2.99297V18.4317L7.45828 13.4438ZM13.3486 6.12797C13.6399 6.12788 13.9247 6.21418 14.167 6.37596C14.4092 6.53773 14.5981 6.76772 14.7096 7.03684C14.8212 7.30595 14.8504 7.6021 14.7936 7.88783C14.7369 8.17356 14.5966 8.43603 14.3907 8.64205C14.1847 8.84808 13.9223 8.9884 13.6366 9.04526C13.3509 9.10213 13.0547 9.07299 12.7855 8.96153C12.5164 8.85007 12.2864 8.6613 12.1245 8.41908C11.9626 8.17687 11.8762 7.8921 11.8762 7.60078C11.8762 7.21025 12.0314 6.83571 12.3075 6.55951C12.5836 6.28332 12.9581 6.1281 13.3486 6.12797ZM8.93062 6.12797C9.22194 6.12788 9.50674 6.21418 9.749 6.37596C9.99127 6.53773 10.1801 6.76772 10.2917 7.03684C10.4032 7.30595 10.4324 7.6021 10.3757 7.88783C10.3189 8.17356 10.1787 8.43603 9.97269 8.64205C9.76674 8.84808 9.50431 8.9884 9.2186 9.04526C8.93289 9.10213 8.63673 9.07299 8.36758 8.96153C8.09843 8.85007 7.86838 8.6613 7.70653 8.41908C7.54467 8.17687 7.45828 7.8921 7.45828 7.60078C7.45828 7.21025 7.61339 6.83571 7.88949 6.55951C8.1656 6.28332 8.54009 6.1281 8.93062 6.12797ZM4.46531 6.12797C4.75663 6.12788 5.04143 6.21418 5.28369 6.37596C5.52596 6.53773 5.7148 6.76772 5.82635 7.03684C5.93789 7.30595 5.96713 7.6021 5.91035 7.88783C5.85357 8.17356 5.71334 8.43603 5.50738 8.64205C5.30142 8.84808 5.039 8.9884 4.75328 9.04526C4.46757 9.10213 4.17142 9.07299 3.90227 8.96153C3.63312 8.85007 3.40307 8.6613 3.24121 8.41908C3.07936 8.17687 2.99297 7.8921 2.99297 7.60078C2.99297 7.21025 3.14808 6.83571 3.42418 6.55951C3.70028 6.28332 4.07478 6.1281 4.46531 6.12797Z" fill="black"/>
</svg>
