<svg width="24" height="24" viewBox="0 0 24 24" fill="none" xmlns="http://www.w3.org/2000/svg">
<path d="M6.48695 9.33794L6.13773 14.9915H5.48992V20.9728H1.01852V14.9915H0.370703L0.0214844 9.33794L1.83273 8.49982C2.24937 8.76264 2.73126 8.90356 3.22385 8.90662C3.71644 8.90969 4.20005 8.77478 4.61992 8.51716L6.48695 9.33794Z" fill="black"/>
<path d="M5.34365 5.542C5.34365 6.92904 4.40147 8.05497 3.2399 8.05497C2.07834 8.05497 1.13428 6.92997 1.13428 5.542C1.13428 4.15404 2.07647 3.02716 3.2399 3.02716C4.40334 3.02716 5.34365 4.1531 5.34365 5.542Z" fill="black"/>
<path d="M23.9782 9.33794L23.6289 14.9915H22.9811V20.9728H18.5097V14.9915H17.8619L17.5127 9.33794L19.3239 8.49982C19.7407 8.76263 20.2226 8.90354 20.7153 8.9066C21.208 8.90967 21.6916 8.77476 22.1116 8.51716L23.9782 9.33794Z" fill="black"/>
<path d="M22.8368 5.542C22.8368 6.92904 21.8946 8.05497 20.7335 8.05497C19.5724 8.05497 18.6274 6.92997 18.6274 5.542C18.6274 4.15404 19.5696 3.02716 20.7335 3.02716C21.8974 3.02716 22.8368 4.1531 22.8368 5.542Z" fill="black"/>
<path d="M14.6799 14.0508V12.607H9.32021V14.0508L6.98584 12L9.32021 9.94922V11.393H14.6799V9.94922L17.0143 12L14.6799 14.0508Z" fill="black"/>
</svg>
