<svg width="24" height="24" viewBox="0 0 24 24" fill="none" xmlns="http://www.w3.org/2000/svg">
<path d="M18.4791 1.81219C18.3082 1.81229 18.1412 1.7617 17.999 1.66683C17.8569 1.57196 17.7461 1.43707 17.6806 1.27922C17.6152 1.12137 17.598 0.947648 17.6313 0.780035C17.6646 0.612423 17.7468 0.458446 17.8676 0.33758C17.9884 0.216713 18.1423 0.134388 18.3099 0.101016C18.4775 0.0676435 18.6513 0.0847243 18.8091 0.150098C18.967 0.215471 19.102 0.3262 19.1969 0.468278C19.2919 0.610357 19.3426 0.777403 19.3426 0.948288C19.3423 1.17725 19.2513 1.39678 19.0894 1.55872C18.9276 1.72067 18.7081 1.81182 18.4791 1.81219ZM18.4791 0.440631C18.3787 0.440631 18.2806 0.470405 18.1971 0.526187C18.1136 0.581969 18.0485 0.661254 18.0101 0.754016C17.9717 0.846778 17.9616 0.948851 17.9812 1.04733C18.0008 1.1458 18.0492 1.23626 18.1202 1.30725C18.1912 1.37825 18.2816 1.4266 18.3801 1.44619C18.4786 1.46578 18.5806 1.45572 18.6734 1.4173C18.7662 1.37888 18.8454 1.31381 18.9012 1.23033C18.957 1.14684 18.9868 1.04869 18.9868 0.948288C18.9867 0.813687 18.9331 0.684635 18.838 0.589458C18.7428 0.49428 18.6137 0.440755 18.4791 0.440631Z" fill="black"/>
<path d="M20.079 4.53843C19.8418 4.53796 19.61 4.46719 19.413 4.33505C19.2159 4.20291 19.0625 4.01534 18.972 3.79602C18.8816 3.57671 18.8581 3.33551 18.9047 3.10288C18.9513 2.87026 19.0657 2.65666 19.2336 2.48907C19.4016 2.32148 19.6154 2.20743 19.8481 2.16132C20.0808 2.1152 20.322 2.1391 20.5411 2.23C20.7602 2.32089 20.9475 2.4747 21.0793 2.67199C21.211 2.86927 21.2813 3.10119 21.2813 3.33843C21.281 3.65698 21.1541 3.96234 20.9286 4.18737C20.7032 4.4124 20.3976 4.53867 20.079 4.53843ZM20.079 2.49421C19.9121 2.49421 19.749 2.54369 19.6102 2.6364C19.4715 2.72912 19.3633 2.86089 19.2995 3.01507C19.2356 3.16924 19.2189 3.33889 19.2515 3.50256C19.284 3.66624 19.3644 3.81658 19.4824 3.93458C19.6004 4.05258 19.7507 4.13294 19.9144 4.16549C20.0781 4.19805 20.2477 4.18134 20.4019 4.11748C20.5561 4.05362 20.6878 3.94547 20.7806 3.80672C20.8733 3.66797 20.9228 3.50484 20.9228 3.33796C20.9228 3.11418 20.8339 2.89957 20.6756 2.74134C20.5174 2.5831 20.3028 2.49421 20.079 2.49421Z" fill="black"/>
<path d="M15.3174 3.60562C15.0799 3.60571 14.8478 3.53538 14.6503 3.40353C14.4528 3.27168 14.2989 3.08422 14.208 2.86488C14.117 2.64553 14.0932 2.40414 14.1395 2.17124C14.1857 1.93834 14.3 1.72439 14.4679 1.55646C14.6358 1.38852 14.8497 1.27414 15.0826 1.22778C15.3154 1.18142 15.5568 1.20517 15.7762 1.29602C15.9956 1.38686 16.1831 1.54073 16.315 1.73816C16.447 1.93558 16.5174 2.1677 16.5174 2.40515C16.517 2.72334 16.3905 3.0284 16.1655 3.25343C15.9406 3.47847 15.6356 3.60512 15.3174 3.60562ZM15.3174 1.5614C15.1505 1.5614 14.9874 1.61089 14.8486 1.7036C14.7099 1.79631 14.6017 1.92809 14.5379 2.08226C14.474 2.23644 14.4573 2.40609 14.4899 2.56976C14.5224 2.73343 14.6028 2.88377 14.7208 3.00177C14.8388 3.11977 14.9891 3.20013 15.1528 3.23269C15.3165 3.26524 15.4861 3.24854 15.6403 3.18467C15.7945 3.12081 15.9262 3.01267 16.0189 2.87391C16.1117 2.73516 16.1611 2.57203 16.1611 2.40515C16.1611 2.18137 16.0722 1.96676 15.914 1.80853C15.7558 1.6503 15.5412 1.5614 15.3174 1.5614Z" fill="black"/>
<path d="M18.0216 18.6666C17.8508 18.6666 17.6837 18.6159 17.5417 18.521C17.3996 18.426 17.2889 18.2911 17.2235 18.1333C17.1581 17.9754 17.141 17.8017 17.1743 17.6341C17.2076 17.4665 17.2899 17.3126 17.4107 17.1918C17.5316 17.071 17.6855 16.9887 17.8531 16.9554C18.0207 16.922 18.1944 16.9391 18.3522 17.0045C18.5101 17.0699 18.645 17.1806 18.7399 17.3227C18.8349 17.4648 18.8855 17.6318 18.8855 17.8027C18.8853 18.0317 18.7942 18.2513 18.6322 18.4133C18.4703 18.5752 18.2507 18.6663 18.0216 18.6666ZM18.0216 17.295C17.9211 17.2949 17.8228 17.3246 17.7391 17.3804C17.6555 17.4362 17.5903 17.5156 17.5518 17.6085C17.5133 17.7013 17.5032 17.8035 17.5228 17.9021C17.5424 18.0008 17.5908 18.0913 17.6619 18.1624C17.7329 18.2335 17.8235 18.2819 17.9221 18.3015C18.0207 18.3211 18.123 18.311 18.2158 18.2725C18.3087 18.234 18.388 18.1688 18.4438 18.0851C18.4996 18.0015 18.5294 17.9032 18.5293 17.8027C18.5287 17.6684 18.4749 17.5398 18.3798 17.445C18.2847 17.3503 18.1559 17.297 18.0216 17.2969V17.295Z" fill="black"/>
<path d="M12.8358 23.4061C12.6649 23.4061 12.4979 23.3554 12.3558 23.2605C12.2137 23.1655 12.103 23.0306 12.0376 22.8727C11.9723 22.7148 11.9552 22.5411 11.9886 22.3735C12.0219 22.2059 12.1043 22.052 12.2251 21.9312C12.346 21.8103 12.5 21.7281 12.6676 21.6948C12.8352 21.6615 13.0089 21.6787 13.1668 21.7442C13.3246 21.8096 13.4595 21.9204 13.5544 22.0626C13.6492 22.2047 13.6998 22.3718 13.6997 22.5427C13.6995 22.7717 13.6084 22.9912 13.4464 23.1531C13.2844 23.315 13.0648 23.406 12.8358 23.4061ZM12.8358 22.035C12.7354 22.035 12.6373 22.0648 12.5538 22.1206C12.4703 22.1763 12.4052 22.2556 12.3668 22.3484C12.3284 22.4411 12.3183 22.5432 12.3379 22.6417C12.3575 22.7402 12.4059 22.8306 12.4769 22.9016C12.5479 22.9726 12.6383 23.021 12.7368 23.0406C12.8353 23.0601 12.9373 23.0501 13.0301 23.0117C13.1229 22.9732 13.2021 22.9082 13.2579 22.8247C13.3137 22.7412 13.3435 22.6431 13.3435 22.5427C13.3434 22.4081 13.2898 22.279 13.1947 22.1838C13.0995 22.0887 12.9704 22.0351 12.8358 22.035Z" fill="black"/>
<path d="M9.00007 9.19451L10.4532 7.33405L8.18726 8.39061C8.23413 8.42295 8.27726 8.45576 8.32132 8.48998C8.57927 8.69208 8.80773 8.92921 9.00007 9.19451Z" fill="black"/>
<path d="M19.9687 6.59719C20.0069 6.65914 20.0251 6.73127 20.0211 6.80391C20.0171 6.87655 19.991 6.94623 19.9462 7.00359L19.2122 7.94109L21.4912 6.87844L22.3214 6.49172C22.264 5.82358 21.9719 5.19735 21.4968 4.72406L19.4967 5.65781L19.2356 5.77969C19.5255 6.00765 19.7736 6.28427 19.9687 6.59719Z" fill="black"/>
<path d="M19.3445 8.27298C19.8837 8.53747 20.3383 8.94743 20.657 9.45658C20.689 9.50839 20.7071 9.56757 20.7095 9.62841C20.712 9.68925 20.6987 9.74969 20.671 9.80392L20.8079 9.74017L22.246 9.06939C22.1886 8.40205 21.8967 7.77662 21.422 7.30408L19.3445 8.27298Z" fill="black"/>
<path d="M2.29698 13.4822C2.35229 13.4011 2.40995 13.3205 2.47136 13.2422L6.60151 7.96266C6.63489 7.91999 6.67759 7.88551 6.72633 7.86187C6.77508 7.83823 6.82859 7.82605 6.88276 7.82626C6.91443 7.82636 6.94595 7.83061 6.97651 7.83891L7.09089 7.87032C7.34719 7.94118 7.59457 8.04105 7.82823 8.16798L10.9389 6.71485L11.0589 6.56157L11.2717 6.28923C11.1356 5.63842 10.7983 5.04691 10.3075 4.59844L10.2189 4.51923L4.14339 7.35188C3.11852 7.83137 2.32575 8.69789 1.93907 9.76125C1.55239 10.8246 1.6034 11.998 2.08089 13.0238L2.29698 13.4822Z" fill="black"/>
<path d="M20.7408 10.1648L20.1994 10.4175L17.7718 13.5211C17.6884 13.4361 17.5972 13.3592 17.4994 13.2914L19.4879 10.7494L20.3527 9.64359C20.3129 9.5789 20.2702 9.51656 20.2252 9.45609C20.2225 9.45269 20.2199 9.44909 20.2177 9.44531C20.1737 9.38687 20.1276 9.33015 20.0794 9.27515C20.0752 9.27 20.071 9.26484 20.0663 9.26015C20.0194 9.20625 19.9688 9.15469 19.9168 9.10453L19.9008 9.08906C19.8486 9.03937 19.7947 8.9925 19.7391 8.94844L19.7227 8.93484C19.6665 8.88953 19.6083 8.84625 19.5483 8.805L19.5333 8.79469C19.4724 8.75344 19.4096 8.71453 19.3458 8.67797L19.3341 8.6714C19.2685 8.63437 19.2015 8.59969 19.133 8.56828L19.1265 8.56547C19.0562 8.53422 18.9846 8.50484 18.9118 8.47734C18.8808 8.46609 18.8494 8.45484 18.818 8.445L18.7243 8.56453L16.0782 11.9442L15.5921 12.5658L14.0644 14.5186L13.7832 14.2992L13.8413 14.2247L18.684 8.03719L19.6622 6.78703C19.6383 6.74859 19.613 6.71062 19.5877 6.67312L19.5638 6.64031C19.5451 6.61359 19.5263 6.58734 19.5066 6.56156C19.4977 6.55031 19.4883 6.53906 19.4794 6.52734C19.4593 6.50203 19.4391 6.47672 19.418 6.45234L19.3927 6.42234C19.3693 6.39562 19.3458 6.36937 19.3205 6.34312L19.3013 6.3225C19.2704 6.29015 19.2385 6.25875 19.2076 6.22875C18.9971 6.02922 18.7575 5.86294 18.4969 5.73562C18.4407 5.70844 18.384 5.68312 18.3263 5.65969L18.3015 5.64984C18.2447 5.62734 18.1876 5.60578 18.1294 5.58703L17.7357 6.09047L17.2501 6.70687L14.604 10.0894L14.1183 10.7105L12.2532 13.095L12.2504 13.0983L11.9691 12.8789L13.4044 11.0442L13.8901 10.4236L15.4407 8.44125L17.0208 6.42187L17.9949 5.17687L18.5626 4.45312C18.5283 4.39781 18.4913 4.34391 18.4533 4.29141C18.4477 4.28344 18.4426 4.27547 18.4369 4.26797C18.3994 4.21687 18.3596 4.16719 18.3188 4.11891C18.3132 4.11234 18.3076 4.10531 18.3015 4.09875C18.2583 4.04859 18.2138 4.00031 18.1674 3.95344C18.1177 3.90328 18.0662 3.85547 18.0127 3.80906C17.7253 3.55936 17.3905 3.37013 17.0283 3.25266L15.669 4.99031L13.1316 8.23453L12.646 8.85515L10.4176 11.7L10.1363 11.4806L10.156 11.4553L15.2185 4.98187C14.8139 4.46097 14.2864 4.04851 13.6833 3.7814L11.3358 6.7814L11.1633 7.00172L5.50177 14.25L5.22052 14.0306L8.76943 9.48937C8.58551 9.21708 8.35995 8.97539 8.10099 8.77312C8.05412 8.73656 8.00724 8.70187 7.95802 8.66812L7.9524 8.66437C7.72731 8.50815 7.48273 8.38207 7.2249 8.28937L7.1874 8.27625C7.12318 8.25375 7.05849 8.23312 6.9924 8.21484L6.87849 8.18344L2.74927 13.4611C2.69927 13.5258 2.65131 13.5912 2.60537 13.6575L2.59974 13.6659C1.98277 14.5611 1.73044 15.6579 1.89419 16.7327C2.05794 17.8076 2.62543 18.7795 3.48099 19.4503L9.18756 23.9152L11.9307 20.4084C11.9396 20.4183 11.9485 20.4286 11.9579 20.438C12.4202 20.9106 13.0513 21.1803 13.7124 21.188C13.7995 21.4311 13.9552 21.6438 14.1607 21.8003C14.3662 21.9568 14.6126 22.0504 14.8702 22.0697C14.8922 22.0697 14.9138 22.073 14.9354 22.0734C14.9438 22.0734 14.9513 22.0734 14.9597 22.0734H14.9827C15.0226 22.0734 15.0624 22.0711 15.1018 22.0673H15.1121C15.1886 22.06 15.2643 22.0462 15.3385 22.0261C15.6426 21.9421 15.9067 21.752 16.0829 21.4903C16.0871 21.4842 16.0908 21.4772 16.0955 21.4706C16.1129 21.4434 16.1302 21.4162 16.1457 21.3881C16.1612 21.36 16.1705 21.3412 16.1818 21.3169C16.1874 21.3052 16.194 21.2934 16.1996 21.2808C16.3066 21.0417 16.3415 20.7765 16.2998 20.5178C16.2582 20.2591 16.1419 20.0183 15.9652 19.8248C16.224 19.3126 16.2999 18.7273 16.1804 18.1659C16.2364 18.1264 16.2892 18.0825 16.3383 18.0347C16.4123 17.9619 16.4774 17.8808 16.5324 17.7928C16.7165 17.5248 16.7866 17.1947 16.7274 16.875C16.7218 16.8361 16.7147 16.7977 16.7054 16.7587C17.0748 16.6994 17.419 16.5338 17.6959 16.282C17.9727 16.0303 18.1703 15.7034 18.2644 15.3412C18.3276 15.0973 18.3418 14.8433 18.3061 14.5939C18.2705 14.3445 18.1857 14.1046 18.0568 13.8881C18.0057 13.8035 17.9482 13.723 17.8847 13.6472L21.5626 11.9316C21.5056 11.2642 21.2145 10.6384 20.7408 10.1648ZM13.6627 20.8284C13.1161 20.8086 12.598 20.5798 12.2152 20.1891C12.1946 20.1684 12.1754 20.1459 12.1557 20.1244L14.2285 17.4745C14.3144 17.7329 14.4798 17.9575 14.701 18.1161C14.9223 18.2747 15.1881 18.3593 15.4604 18.3577C15.5763 18.357 15.6916 18.3412 15.8035 18.3108C15.818 18.3066 15.8321 18.3009 15.8466 18.2967C15.9285 18.7413 15.8688 19.2003 15.676 19.6092C15.6647 19.6027 15.6544 19.5947 15.6432 19.5886C15.435 19.4704 15.1988 19.4106 14.9595 19.4157C14.7202 19.4207 14.4867 19.4904 14.2837 19.6173C14.0807 19.7442 13.9159 19.9237 13.8066 20.1366C13.6972 20.3496 13.6475 20.5881 13.6627 20.827V20.8284ZM15.6676 21.4378C15.561 21.5431 15.4318 21.6227 15.2898 21.6703C15.1478 21.718 14.9967 21.7325 14.8482 21.7128C14.6997 21.693 14.5577 21.6396 14.4331 21.5565C14.3084 21.4734 14.2045 21.3629 14.1291 21.2334C14.1221 21.2203 14.1141 21.2077 14.1071 21.1941L14.1015 21.1819C14.0743 21.1265 14.0523 21.0688 14.0358 21.0094C14.0013 20.8843 13.9917 20.7537 14.0077 20.625C14.0236 20.4963 14.0647 20.372 14.1287 20.2592C14.1927 20.1463 14.2783 20.0472 14.3806 19.9675C14.4829 19.8877 14.5999 19.8289 14.7249 19.7944C14.811 19.7706 14.8999 19.7585 14.9893 19.7583C15.1843 19.7574 15.3751 19.8151 15.5371 19.9238C15.699 20.0325 15.8246 20.1873 15.8976 20.3682C15.9707 20.549 15.9878 20.7476 15.9468 20.9383C15.9058 21.129 15.8085 21.303 15.6676 21.4378ZM16.1977 17.6592C16.0733 17.816 15.9017 17.9284 15.7083 17.9798C15.4714 18.0461 15.2178 18.0166 15.0024 17.8976C14.7871 17.7786 14.6271 17.5796 14.5571 17.3437C14.5345 17.2632 14.5233 17.1799 14.5238 17.0962L15.2049 16.2258H15.2096C15.2912 16.2039 15.3754 16.1927 15.4599 16.1925C15.6208 16.1925 15.779 16.2335 15.9197 16.3116C16.0256 16.3691 16.119 16.447 16.1945 16.5409C16.27 16.6349 16.326 16.7428 16.3594 16.8586C16.366 16.882 16.3707 16.9055 16.3754 16.9294C16.413 17.1861 16.3487 17.4473 16.1963 17.6573L16.1977 17.6592ZM17.9213 15.2541C17.8397 15.5666 17.6637 15.8463 17.4172 16.055C17.1707 16.2637 16.8658 16.3913 16.5441 16.4203C16.4304 16.2493 16.2769 16.1082 16.0969 16.0092C15.9146 15.9075 15.7107 15.8508 15.5021 15.8437L16.8399 14.1337L17.2796 13.5712C17.5469 13.7508 17.7519 14.0087 17.8666 14.3095C17.9813 14.6104 17.9999 14.9394 17.9199 15.2512L17.9213 15.2541Z" fill="black"/>
<path d="M18.8957 5.54531L19.1033 5.44828C19.0507 5.17314 18.9683 4.90453 18.8577 4.64719C18.8521 4.65562 18.8469 4.66453 18.8408 4.67297L18.3604 5.28656C18.5465 5.35581 18.7257 5.44245 18.8957 5.54531Z" fill="black"/>
</svg>
