<svg width="24" height="24" viewBox="0 0 24 24" fill="none" xmlns="http://www.w3.org/2000/svg">
<g clip-path="url(#clip0_723_2214)">
<path d="M9.33701 15.3534L9.21045 15.6319C9.25123 15.6506 10.229 16.0842 12.0009 16.0842C13.9458 16.0842 14.7759 15.5686 14.8106 15.5451L14.6461 15.2869C14.6381 15.292 13.8436 15.7781 12.0009 15.7781C10.3017 15.7781 9.34592 15.3576 9.33701 15.3534Z" fill="black"/>
<path d="M14.8725 13.6462C14.864 13.6519 14.0011 14.1801 12 14.1801C10.1545 14.1801 9.11716 13.7226 9.10685 13.7184L8.96997 14.0212C9.01403 14.0414 10.0758 14.5125 12 14.5125C14.1122 14.5125 15.0136 13.95 15.0511 13.9266L14.8725 13.6462Z" fill="black"/>
<path d="M8.3124 10.8609H15.6615L19.4363 9.77672C19.4607 9.48375 19.4738 9.18656 19.4738 8.88609C19.4738 5.21484 17.5801 2.06813 14.9269 0.698437C14.1418 0.290156 13.2385 0.0571875 12.3352 0H11.7816C11.2862 0 10.8197 0.0876563 10.3538 0.204375C9.91647 0.320625 9.47959 0.466406 9.07178 0.699375C6.391 2.06906 4.5249 5.24625 4.5249 8.91656C4.5249 9.20656 4.53631 9.49359 4.55912 9.77766L8.3124 10.8609Z" fill="black"/>
<path d="M7.7114 11.0742L4.59937 10.1747C4.89374 12.6778 6.05249 14.8472 7.7114 16.2342V11.0742Z" fill="black"/>
<path d="M12.0132 17.3906C10.3852 17.3906 9.34978 17.1713 8.70337 16.9322C9.42574 17.3597 10.2235 17.6445 11.0532 17.7713C11.3738 17.8003 11.694 17.8294 12.0146 17.8294H12.0437C12.3759 17.8293 12.7075 17.8 13.0346 17.7417C13.7049 17.6278 14.3533 17.41 14.9565 17.0963C14.3143 17.2627 13.3763 17.393 12.0132 17.3906Z" fill="black"/>
<path d="M12.0028 12.0202L14.8284 12.8789L14.9222 12.5714L12 11.6831L9.09888 12.6216L9.19778 12.9277L12.0028 12.0202Z" fill="black"/>
<path d="M16.2886 11.0672V16.2052C17.9367 14.8209 19.0954 12.6656 19.3959 10.1756L16.2886 11.0672Z" fill="black"/>
<path d="M23.9427 24V21.9234L17.0924 18.8934C15.8625 19.6384 14.4885 20.1137 13.0612 20.288C12.7279 20.318 12.3641 20.3484 12.0299 20.3484H11.969C11.6357 20.3484 11.272 20.318 10.9687 20.288C9.46972 20.1409 8.02643 19.6431 6.75555 18.8348L0.0566406 21.9286V24H23.9427Z" fill="black"/>
</g>
<defs>
<clipPath id="clip0_723_2214">
<rect width="24" height="24" fill="white"/>
</clipPath>
</defs>
</svg>
