<svg width="24" height="24" viewBox="0 0 24 24" fill="none" xmlns="http://www.w3.org/2000/svg">
<g clip-path="url(#clip0_723_2220)">
<path d="M23.7033 14.7609V23.9705H21.375V20.2299H2.85188V23.9705H0.524536V10.6936H2.85188V17.903H9.46875V13.9547C9.46888 13.8037 9.52894 13.659 9.63573 13.5523C9.74253 13.4456 9.88732 13.3856 10.0383 13.3856H22.3289C22.6935 13.3859 23.0431 13.5309 23.3008 13.7888C23.5585 14.0467 23.7033 14.3964 23.7033 14.7609Z" fill="black"/>
<path d="M6.25027 17.332C7.48929 17.332 8.49371 16.4489 8.49371 15.3595C8.49371 14.2701 7.48929 13.387 6.25027 13.387C5.01126 13.387 4.00684 14.2701 4.00684 15.3595C4.00684 16.4489 5.01126 17.332 6.25027 17.332Z" fill="black"/>
<path d="M22.9551 9.04642L12 2.36954L1.04481 9.04642L0.00512695 7.34017L12 0.029541L23.9948 7.34017L22.9551 9.04642Z" fill="black"/>
</g>
<defs>
<clipPath id="clip0_723_2220">
<rect width="24" height="24" fill="white"/>
</clipPath>
</defs>
</svg>
