<svg width="24" height="24" viewBox="0 0 24 24" fill="none" xmlns="http://www.w3.org/2000/svg">
<g clip-path="url(#clip0_723_2211)">
<path d="M0.0755469 17.3381L0.0605469 23.5547H23.9396V17.3381H0.0755469Z" fill="black"/>
<path d="M22.9304 10.613H17.8955L19.7077 2.53125L18.9844 2.85609C18.2587 3.15906 17.5029 3.38438 16.7298 3.52828C14.6888 3.90328 13.5366 3.4514 12.9301 3.00656C12.7351 2.86594 12.5424 2.70375 12.338 2.53406C11.0626 1.47422 9.47163 0.155155 4.75319 0.50203L4.29241 0.53578L6.57616 10.6139H1.10116L0.0778809 16.3477V16.402H23.9396V16.3477L22.9304 10.613ZM9.54616 1.73437C10.583 2.10937 11.2168 2.63672 11.8299 3.14578C12.0437 3.32297 12.2457 3.49078 12.4594 3.64734C13.2933 4.25906 14.3105 4.46531 15.3033 4.46531C16.5938 4.46531 17.8435 4.11656 18.5958 3.85594L16.4532 13.4147H8.02694L5.27351 1.26562C7.02616 1.17515 8.42772 1.32937 9.54616 1.73437ZM17.2369 15.0398H6.76319V14.243H17.2369V15.0398Z" fill="black"/>
</g>
<defs>
<clipPath id="clip0_723_2211">
<rect width="24" height="24" fill="white"/>
</clipPath>
</defs>
</svg>
