<svg width="24" height="24" viewBox="0 0 24 24" fill="none" xmlns="http://www.w3.org/2000/svg">
<g clip-path="url(#clip0_723_2217)">
<path d="M8.92929 1.66829H3.63991L0.581787 3.98204L3.06804 6.1922V7.65985H6.23116V6.24985L8.92929 4.31298V1.66829Z" fill="black"/>
<path d="M11.2261 1.94437H9.65576V4.00827H11.2261V1.94437Z" fill="black"/>
<path d="M7.19336 6.6239L8.68117 5.46655C8.68117 5.46655 9.13586 7.61577 9.34211 7.94624C9.54836 8.27671 10.086 9.14437 10.086 9.14437L9.59008 9.59905L7.19336 6.6239Z" fill="black"/>
<path d="M12.7332 3.4036C13.0299 3.4036 13.2704 3.16309 13.2704 2.86641C13.2704 2.56973 13.0299 2.32922 12.7332 2.32922C12.4366 2.32922 12.196 2.56973 12.196 2.86641C12.196 3.16309 12.4366 3.4036 12.7332 3.4036Z" fill="black"/>
<path d="M14.5926 2.29876C14.8893 2.29876 15.1298 2.05825 15.1298 1.76157C15.1298 1.46489 14.8893 1.22438 14.5926 1.22438C14.2959 1.22438 14.0554 1.46489 14.0554 1.76157C14.0554 2.05825 14.2959 2.29876 14.5926 2.29876Z" fill="black"/>
<path d="M14.5926 4.56281C14.8893 4.56281 15.1298 4.3223 15.1298 4.02562C15.1298 3.72894 14.8893 3.48843 14.5926 3.48843C14.2959 3.48843 14.0554 3.72894 14.0554 4.02562C14.0554 4.3223 14.2959 4.56281 14.5926 4.56281Z" fill="black"/>
<path d="M22.4312 13.5047L18.3034 9.37499C17.6691 8.74368 16.8107 8.38925 15.9158 8.38925C15.0209 8.38925 14.1625 8.74368 13.5282 9.37499L12.5082 10.3955C11.8759 11.0292 11.5208 11.8878 11.5208 12.783C11.5208 13.6783 11.8759 14.5369 12.5082 15.1706L16.6356 19.298C17.2698 19.9293 18.1283 20.2837 19.0231 20.2837C19.918 20.2837 20.7765 19.9293 21.4107 19.298L22.4312 18.2812C23.0639 17.6474 23.4192 16.7885 23.4192 15.893C23.4192 14.9974 23.0639 14.1385 22.4312 13.5047ZM13.1687 12.6141C13.0846 12.5299 13.0274 12.4228 13.0042 12.3061C12.981 12.1895 12.993 12.0686 13.0385 11.9587C13.084 11.8488 13.1611 11.7549 13.26 11.6888C13.3589 11.6228 13.4752 11.5875 13.5941 11.5875C13.713 11.5875 13.8293 11.6228 13.9282 11.6888C14.0271 11.7549 14.1041 11.8488 14.1497 11.9587C14.1952 12.0686 14.2071 12.1895 14.184 12.3061C14.1608 12.4228 14.1035 12.5299 14.0195 12.6141C13.9637 12.67 13.8974 12.7144 13.8244 12.7447C13.7514 12.7749 13.6731 12.7905 13.5941 12.7905C13.5151 12.7905 13.4368 12.7749 13.3638 12.7447C13.2908 12.7144 13.2245 12.67 13.1687 12.6141ZM14.6607 15.3084C14.5766 15.3926 14.4695 15.4499 14.3528 15.4731C14.2361 15.4963 14.1152 15.4844 14.0053 15.4389C13.8954 15.3934 13.8014 15.3163 13.7353 15.2174C13.6692 15.1185 13.634 15.0022 13.634 14.8833C13.634 14.7643 13.6692 14.648 13.7353 14.5491C13.8014 14.4502 13.8954 14.3731 14.0053 14.3276C14.1152 14.2821 14.2361 14.2702 14.3528 14.2934C14.4695 14.3167 14.5766 14.374 14.6607 14.4581C14.7166 14.5139 14.7609 14.5802 14.7912 14.6532C14.8214 14.7261 14.837 14.8043 14.837 14.8833C14.837 14.9622 14.8214 15.0404 14.7912 15.1134C14.7609 15.1863 14.7166 15.2526 14.6607 15.3084ZM15.3043 10.3256C15.2202 10.2415 15.1629 10.1344 15.1396 10.0177C15.1164 9.90102 15.1283 9.78008 15.1738 9.67017C15.2193 9.56026 15.2964 9.46632 15.3953 9.40022C15.4942 9.33413 15.6105 9.29885 15.7295 9.29885C15.8484 9.29885 15.9647 9.33413 16.0636 9.40022C16.1625 9.46632 16.2396 9.56026 16.2851 9.67017C16.3306 9.78008 16.3425 9.90102 16.3193 10.0177C16.2961 10.1344 16.2388 10.2415 16.1546 10.3256C16.0988 10.3815 16.0325 10.4258 15.9596 10.456C15.8866 10.4863 15.8084 10.5019 15.7295 10.5019C15.6505 10.5019 15.5723 10.4863 15.4994 10.456C15.4264 10.4258 15.3601 10.3815 15.3043 10.3256ZM16.1223 13.1428C16.0382 13.0587 15.981 12.9515 15.9578 12.8349C15.9346 12.7182 15.9466 12.5973 15.9921 12.4874C16.0376 12.3776 16.1147 12.2837 16.2136 12.2176C16.3125 12.1515 16.4287 12.1163 16.5477 12.1163C16.6666 12.1163 16.7829 12.1515 16.8818 12.2176C16.9807 12.2837 17.0577 12.3776 17.1033 12.4874C17.1488 12.5973 17.1607 12.7182 17.1376 12.8349C17.1144 12.9515 17.0571 13.0587 16.9731 13.1428C16.9172 13.1987 16.8509 13.243 16.7779 13.2733C16.7049 13.3035 16.6267 13.3191 16.5477 13.3191C16.4687 13.3191 16.3904 13.3035 16.3174 13.2733C16.2445 13.243 16.1781 13.1987 16.1223 13.1428ZM16.8184 15.5414C16.8366 15.4238 16.8892 15.3143 16.9696 15.2267C17.05 15.139 17.1546 15.0772 17.2702 15.049C17.3857 15.0208 17.507 15.0275 17.6188 15.0683C17.7305 15.109 17.8277 15.182 17.898 15.278C17.9682 15.374 18.0085 15.4886 18.0136 15.6074C18.0187 15.7263 17.9885 15.844 17.9267 15.9456C17.8649 16.0473 17.7744 16.1283 17.6666 16.1785C17.5587 16.2287 17.4384 16.2458 17.3209 16.2276C17.2428 16.2156 17.1679 16.1883 17.1004 16.1472C17.0329 16.1062 16.9742 16.0523 16.9275 15.9886C16.8808 15.9249 16.8472 15.8526 16.8285 15.7758C16.8097 15.6991 16.8063 15.6194 16.8184 15.5414ZM18.3315 18.7092C18.3133 18.8267 18.2607 18.9363 18.1804 19.0239C18.1 19.1115 17.9954 19.1734 17.8799 19.2016C17.7643 19.2298 17.643 19.2232 17.5313 19.1825C17.4196 19.1417 17.3224 19.0688 17.2521 18.9729C17.1818 18.877 17.1415 18.7624 17.1363 18.6435C17.1311 18.5247 17.1613 18.4071 17.223 18.3054C17.2847 18.2037 17.3752 18.1226 17.4829 18.0723C17.5907 18.0221 17.711 18.0049 17.8285 18.023C17.9862 18.0473 18.1278 18.1333 18.2221 18.262C18.3164 18.3907 18.3557 18.5515 18.3315 18.7092ZM19.1003 12.3117C18.9812 12.3118 18.8647 12.2766 18.7657 12.2105C18.6666 12.1444 18.5894 12.0504 18.5438 11.9404C18.4982 11.8304 18.4862 11.7093 18.5095 11.5925C18.5327 11.4757 18.59 11.3684 18.6742 11.2842C18.7584 11.2 18.8657 11.1427 18.9825 11.1195C19.0993 11.0963 19.2203 11.1082 19.3303 11.1539C19.4403 11.1995 19.5343 11.2767 19.6004 11.3757C19.6665 11.4748 19.7018 11.5912 19.7017 11.7103C19.7015 11.8698 19.6381 12.0227 19.5254 12.1354C19.4126 12.2482 19.2597 12.3116 19.1003 12.3117ZM19.532 14.46C19.5319 14.3409 19.5671 14.2245 19.6332 14.1254C19.6993 14.0264 19.7933 13.9492 19.9033 13.9036C20.0133 13.8579 20.1344 13.846 20.2512 13.8692C20.368 13.8924 20.4752 13.9497 20.5594 14.0339C20.6436 14.1181 20.701 14.2254 20.7242 14.3422C20.7474 14.459 20.7354 14.5801 20.6898 14.6901C20.6442 14.8001 20.567 14.8941 20.4679 14.9602C20.3689 15.0263 20.2525 15.0615 20.1334 15.0614C19.9739 15.0613 19.821 14.9979 19.7083 14.8851C19.5955 14.7724 19.5321 14.6195 19.532 14.46ZM20.312 18.9516C20.193 18.9516 20.0768 18.9163 19.9779 18.8502C19.879 18.7841 19.8019 18.6902 19.7563 18.5803C19.7108 18.4704 19.6989 18.3495 19.7221 18.2328C19.7453 18.1162 19.8026 18.009 19.8867 17.9249C19.9708 17.8408 20.078 17.7835 20.1946 17.7603C20.3113 17.7371 20.4322 17.749 20.5421 17.7945C20.652 17.84 20.7459 17.9171 20.812 18.016C20.8781 18.1149 20.9134 18.2312 20.9134 18.3501C20.9134 18.5096 20.85 18.6626 20.7372 18.7754C20.6244 18.8882 20.4715 18.9516 20.312 18.9516ZM22.1335 16.8361C22.0144 16.8363 21.898 16.8011 21.7989 16.7351C21.6997 16.669 21.6225 16.5751 21.5768 16.4651C21.5311 16.3551 21.5191 16.234 21.5422 16.1172C21.5654 16.0004 21.6227 15.893 21.7068 15.8088C21.791 15.7245 21.8983 15.6672 22.0151 15.6439C22.1319 15.6207 22.253 15.6326 22.363 15.6782C22.4731 15.7238 22.5671 15.801 22.6332 15.9001C22.6993 15.9991 22.7346 16.1156 22.7345 16.2347C22.7345 16.3136 22.719 16.3918 22.6889 16.4648C22.6587 16.5378 22.6144 16.6041 22.5586 16.6599C22.5028 16.7158 22.4366 16.7601 22.3636 16.7903C22.2907 16.8205 22.2125 16.8361 22.1335 16.8361Z" fill="black"/>
<path d="M16.4522 3.36469C16.7489 3.36469 16.9894 3.12418 16.9894 2.8275C16.9894 2.53082 16.7489 2.29031 16.4522 2.29031C16.1555 2.29031 15.915 2.53082 15.915 2.8275C15.915 3.12418 16.1555 3.36469 16.4522 3.36469Z" fill="black"/>
<path d="M16.4522 1.13297C16.7489 1.13297 16.9894 0.892462 16.9894 0.595781C16.9894 0.299101 16.7489 0.0585938 16.4522 0.0585938C16.1555 0.0585938 15.915 0.299101 15.915 0.595781C15.915 0.892462 16.1555 1.13297 16.4522 1.13297Z" fill="black"/>
<path d="M16.4522 5.62876C16.7489 5.62876 16.9894 5.38825 16.9894 5.09157C16.9894 4.79489 16.7489 4.55438 16.4522 4.55438C16.1555 4.55438 15.915 4.79489 15.915 5.09157C15.915 5.38825 16.1555 5.62876 16.4522 5.62876Z" fill="black"/>
<path d="M7.48256 12.8667V9.9328L6.28443 8.52655H2.89584L0.82959 12.8667V21.8784L0.878809 21.8292L2.991 23.9414H9.20193L11.3141 21.8292L11.3258 21.8409V16.875L7.48256 12.8667ZM6.04678 22.0631C4.19193 22.0631 2.68865 20.8912 2.68865 19.448C2.68865 18.0047 4.19193 16.8323 6.04678 16.8323C7.90162 16.8323 9.4049 18.0042 9.4049 19.448C9.4049 20.8917 7.90303 22.0631 6.04678 22.0631Z" fill="black"/>
</g>
<defs>
<clipPath id="clip0_723_2217">
<rect width="24" height="24" fill="white"/>
</clipPath>
</defs>
</svg>
