<svg width="24" height="24" viewBox="0 0 24 24" fill="none" xmlns="http://www.w3.org/2000/svg">
<g clip-path="url(#clip0_723_2205)">
<path d="M14.5735 10.8928H15.4829L17.5875 5.77405H16.6786L14.5735 10.8928Z" fill="black"/>
<path d="M14.0235 10.8928L11.488 3.90845H10.5791L13.1146 10.8928H14.0235Z" fill="black"/>
<path d="M5.49422 20.0775L3.00656 13.2366H2.09766L4.58531 20.0775H5.49422Z" fill="black"/>
<path d="M6.0061 20.0775H6.86251L10.072 3.90845H9.20626L6.0061 20.0775Z" fill="black"/>
<path d="M21.816 14.624L19.0415 5.77405H18.1326L20.9071 14.624H21.816Z" fill="black"/>
<path d="M3.46122 12.8062V9.31406H0.0168457V12.8062H3.46122Z" fill="black"/>
<path d="M7.5557 20.5078H4.11133V24H7.5557V20.5078Z" fill="black"/>
<path d="M11.9761 0H8.53174V3.49219H11.9761V0Z" fill="black"/>
<path d="M19.544 1.83234H16.0996V5.32452H19.544V1.83234Z" fill="black"/>
<path d="M12.3732 11.3133H12.3586V14.8055H12.3732H15.803H15.8175V11.3133H15.803H12.3732Z" fill="black"/>
<path d="M23.9832 15.0066H20.5388V18.4987H23.9832V15.0066Z" fill="black"/>
</g>
<defs>
<clipPath id="clip0_723_2205">
<rect width="24" height="24" fill="white"/>
</clipPath>
</defs>
</svg>
