<svg width="24" height="24" viewBox="0 0 24 24" fill="none" xmlns="http://www.w3.org/2000/svg">
<g clip-path="url(#clip0_723_2216)">
<path d="M22.5202 16.6462H19.0669V16.9753H22.5202V16.6462Z" fill="black"/>
<path d="M22.5202 17.5481H19.0669V17.8772H22.5202V17.5481Z" fill="black"/>
<path d="M21.7378 18.4102H19.0669V18.7392H21.7378V18.4102Z" fill="black"/>
<path d="M22.5202 15.7444H19.0669V16.0734H22.5202V15.7444Z" fill="black"/>
<path d="M22.5202 14.8772H19.0669V15.2063H22.5202V14.8772Z" fill="black"/>
<path d="M22.5197 12.6197H21V14.1394H22.5197V12.6197Z" fill="black"/>
<path d="M20.5468 12.6197H19.0271V14.1394H20.5468V12.6197Z" fill="black"/>
<path d="M23.4469 10.567C23.4386 10.5666 23.4303 10.5666 23.422 10.567H18.1252C18.0513 10.565 17.9777 10.5775 17.9086 10.6039C17.8395 10.6303 17.7763 10.6701 17.7227 10.7209C17.669 10.7718 17.6259 10.8327 17.5957 10.9003C17.5656 10.9678 17.5491 11.0406 17.5472 11.1145C17.5472 11.123 17.5472 11.1314 17.5472 11.1398V21.6591C17.5447 21.8097 17.6021 21.9552 17.7068 22.0636C17.8114 22.1719 17.9548 22.2343 18.1055 22.237H23.422C23.5726 22.2397 23.7181 22.1824 23.8265 22.0778C23.9349 21.9732 23.9973 21.8298 24 21.6792V11.1398C24.0014 11.0659 23.9881 10.9924 23.9611 10.9236C23.934 10.8547 23.8936 10.7919 23.8422 10.7387C23.7909 10.6855 23.7295 10.643 23.6617 10.6135C23.5938 10.584 23.5208 10.5683 23.4469 10.567ZM20.2969 10.9458H21.3834C21.4098 10.9458 21.4352 10.9562 21.4539 10.9749C21.4726 10.9935 21.4832 11.0188 21.4833 11.0452C21.4835 11.0469 21.4835 11.0486 21.4833 11.0503C21.4833 11.0767 21.4728 11.102 21.4542 11.1207C21.4356 11.1395 21.4103 11.15 21.3839 11.1502H20.2969C20.2707 11.1513 20.245 11.1421 20.2255 11.1246C20.2059 11.1071 20.194 11.0826 20.1924 11.0564V11.0513C20.1922 11.0374 20.1948 11.0238 20.2 11.011C20.2052 10.9982 20.2129 10.9865 20.2226 10.9767C20.2324 10.9669 20.2439 10.9591 20.2567 10.9538C20.2694 10.9485 20.2831 10.9458 20.2969 10.9458ZM20.8763 21.57C20.8627 21.5707 20.8491 21.5707 20.8355 21.57L20.8603 21.555C20.8135 21.5055 20.7879 21.4396 20.7891 21.3714C20.7902 21.3033 20.818 21.2383 20.8665 21.1904C20.915 21.1425 20.9804 21.1156 21.0485 21.1153C21.1167 21.115 21.1823 21.1414 21.2312 21.1889C21.2801 21.2363 21.3084 21.3011 21.3102 21.3692C21.3119 21.4374 21.2869 21.5035 21.2405 21.5534C21.1941 21.6033 21.1299 21.633 21.0619 21.6362C20.9938 21.6394 20.9271 21.6158 20.8763 21.5705V21.57ZM18.3038 20.3086V11.5936H23.3438L23.3536 20.3086H18.3038Z" fill="black"/>
<path d="M18.9587 4.54498H8.96069V5.01655H18.9587V4.54498Z" fill="black"/>
<path d="M18.9587 5.53546H8.96069V6.00702H18.9587V5.53546Z" fill="black"/>
<path d="M11.4601 6.57327H8.96069V6.99749H11.4601V6.57327Z" fill="black"/>
<path d="M7.73427 4.215H4.43286V7.5164H7.73427V4.215Z" fill="black"/>
<path d="M18.9587 9.35532H8.96069V9.82688H18.9587V9.35532Z" fill="black"/>
<path d="M13.8652 11.3836H8.96069V11.8552H13.8652V11.3836Z" fill="black"/>
<path d="M7.73427 8.93109H4.43286V12.2325H7.73427V8.93109Z" fill="black"/>
<path d="M17.0119 10.3458H8.96069V10.8173H17.0119V10.3458Z" fill="black"/>
<path d="M2.87672 2.70609H20.6559V10.1545H21.5995V1.76297H1.93359V14.9677H17.0114V14.0245H2.87672V2.70609Z" fill="black"/>
<path d="M13.6763 16.0144H9.95062V15.637H0V16.9106H17.0114V15.637H13.6763V16.0144Z" fill="black"/>
</g>
<defs>
<clipPath id="clip0_723_2216">
<rect width="24" height="24" fill="white"/>
</clipPath>
</defs>
</svg>
