<svg width="24" height="24" viewBox="0 0 24 24" fill="none" xmlns="http://www.w3.org/2000/svg">
<path d="M21.3121 4.8L16.5121 0H2.63989V24H21.3599L21.3121 4.8ZM16.896 2.01562L19.3438 4.46344H16.896V2.01562ZM3.79208 22.8478V1.15219H15.7452V5.61609H20.1613L20.2082 22.8478H3.79208Z" fill="black"/>
<path d="M15.216 3.64783H5.90381V4.56001H15.216V3.64783Z" fill="black"/>
<path d="M17.9516 8.9761H5.90381V9.88829H17.9516V8.9761Z" fill="black"/>
<path d="M17.9516 6.28781H5.90381V7.2H17.9516V6.28781Z" fill="black"/>
<path d="M17.9516 11.6161H5.90381V12.5283H17.9516V11.6161Z" fill="black"/>
<path d="M17.9516 14.3039H5.90381V15.2161H17.9516V14.3039Z" fill="black"/>
<path d="M17.9516 16.9439H5.90381V17.8561H17.9516V16.9439Z" fill="black"/>
<path d="M11.9999 19.6322H5.90381V20.5444H11.9999V19.6322Z" fill="black"/>
</svg>
