<svg width="24" height="24" viewBox="0 0 24 24" fill="none" xmlns="http://www.w3.org/2000/svg">
<g clip-path="url(#clip0_723_2238)">
<path d="M9.46875 15.6806L7.58484 16.553L7.01016 16.8155V19.5811H0V13.6631L3.22172 12.1762C3.96349 12.644 4.82143 12.8947 5.69836 12.8999C6.57529 12.9051 7.43615 12.6647 8.18344 12.2058L8.41125 12.3051C8.39302 12.4547 8.38472 12.6054 8.38641 12.7561C8.38641 13.9008 8.79797 14.9367 9.46875 15.6806Z" fill="black"/>
<path d="M5.72824 11.385C7.7959 11.385 9.47262 9.38156 9.47262 6.91031C9.47262 4.43906 7.7959 2.4375 5.72824 2.4375C3.66059 2.4375 1.9834 4.43906 1.9834 6.91031C1.9834 9.38156 3.66012 11.385 5.72824 11.385Z" fill="black"/>
<path d="M24.0002 13.6631V19.5811H16.9915V16.8056L16.3966 16.5426L14.4836 15.6989C15.1577 14.9489 15.5791 13.9097 15.5791 12.7547C15.5791 12.5874 15.5691 12.4202 15.5491 12.2541L15.7179 12.1748C16.4595 12.6426 17.3174 12.8933 18.1943 12.8985C19.0711 12.9038 19.9319 12.6633 20.6791 12.2044L24.0002 13.6631Z" fill="black"/>
<path d="M18.2236 11.385C20.2917 11.385 21.9685 9.38156 21.9685 6.91031C21.9685 4.43906 20.2917 2.4375 18.2236 2.4375C16.1555 2.4375 14.4792 4.44047 14.4792 6.91172C14.4792 9.38297 16.156 11.385 18.2236 11.385Z" fill="black"/>
<path d="M16.0002 17.4503V21.5626H8.00049V17.4503L10.2406 16.4143C10.6257 16.6556 11.0567 16.8143 11.5063 16.8803C11.6649 16.9082 11.8257 16.9214 11.9867 16.9196C12.1579 16.9197 12.3287 16.9048 12.4972 16.8751C12.9208 16.8089 13.327 16.659 13.6921 16.434L16.0002 17.4503Z" fill="black"/>
<path d="M14.5879 12.7562C14.5879 14.2628 13.6907 15.5218 12.4958 15.8031C12.3286 15.8431 12.1573 15.8631 11.9854 15.8626C11.8237 15.8623 11.6626 15.844 11.5049 15.8083C10.2904 15.5401 9.37817 14.2717 9.37817 12.7548V12.73C9.38802 11.02 10.55 9.64185 11.9854 9.64185C13.408 9.64185 14.5579 11.0012 14.5827 12.6953C14.5871 12.7153 14.5888 12.7358 14.5879 12.7562Z" fill="black"/>
</g>
<defs>
<clipPath id="clip0_723_2238">
<rect width="24" height="24" fill="white"/>
</clipPath>
</defs>
</svg>
