<svg width="24" height="24" viewBox="0 0 24 24" fill="none" xmlns="http://www.w3.org/2000/svg">
<path d="M17.5781 5.18859L16.5071 10.6655L13.2727 3.25922L12.1477 8.41547L10.6946 0.0248413L6.71018 10.6655L6.2883 3.86859C4.19273 6.75921 3.08661 10.2492 3.13455 13.8192C3.42424 19.6317 7.0608 24.1786 12.4331 23.9681C17.4924 23.7722 20.7188 19.4133 20.8664 13.942C20.82 9.99281 18.8977 6.58734 17.5781 5.18859ZM15.5227 18.1655C15.1247 19.6022 13.7817 20.6189 12.218 20.6189C10.4194 20.6189 8.96018 19.2436 8.77268 17.4623C8.73846 17.2411 8.75815 16.9936 8.77268 16.74C8.9133 14.2748 11.1825 11.647 11.1825 11.647C11.1825 11.647 12.3835 13.1977 13.0894 14.8069C13.3527 14.3579 13.6418 13.9245 13.9552 13.5089C13.9552 13.5089 15.6633 15.5883 15.6633 16.9936C15.6633 17.3878 15.63 17.8866 15.5227 18.1655Z" fill="black"/>
</svg>
