<svg width="24" height="24" viewBox="0 0 24 24" fill="none" xmlns="http://www.w3.org/2000/svg">
<path d="M9.10172 11.5209C9.86812 10.9941 10.4433 10.2277 10.7784 9.36469L11.5927 9.55641L12.0239 7.64016L11.3053 7.40063V7.20938C11.3053 6.29953 11.0658 5.48484 10.6828 4.71844L11.3053 4.19156L10.1555 2.65875L9.43734 3.1875C8.71875 2.61094 7.90406 2.17969 6.94594 2.03578V1.17188H5.03016V2.03578C4.11984 2.2275 3.30562 2.65875 2.58703 3.28125L1.91625 2.75437L0.670781 4.28719L1.38937 4.81453C0.958125 5.58094 0.814219 6.39516 0.814219 7.25766V7.49719L0 7.64062L0.335156 9.55688L1.14984 9.36516C1.485 10.2277 2.15578 10.9462 2.87437 11.5214L2.53875 12.2878L4.26562 13.102L4.60125 12.3352C5.05178 12.4693 5.52013 12.534 5.99016 12.5269C6.46033 12.534 6.92884 12.4693 7.37953 12.3352L7.71469 13.102L9.43969 12.2873L9.10172 11.5209ZM5.98781 10.1798C5.40031 10.1798 4.826 10.0056 4.33751 9.67923C3.84902 9.35283 3.46829 8.88891 3.24346 8.34612C3.01863 7.80334 2.9598 7.20608 3.07442 6.62987C3.18904 6.05365 3.47195 5.52436 3.88737 5.10894C4.3028 4.69351 4.83209 4.4106 5.4083 4.29598C5.98452 4.18137 6.58178 4.24019 7.12456 4.46502C7.66734 4.68985 8.13127 5.07058 8.45767 5.55907C8.78407 6.04756 8.95828 6.62187 8.95828 7.20938C8.95434 7.99598 8.64011 8.74924 8.0839 9.30546C7.52768 9.86168 6.77441 10.1759 5.98781 10.1798Z" fill="black"/>
<path d="M5.9878 4.76624C5.5046 4.76624 5.03225 4.90952 4.63048 5.17798C4.22871 5.44643 3.91557 5.82799 3.73065 6.27442C3.54574 6.72084 3.49735 7.21207 3.59162 7.68599C3.68589 8.15991 3.91858 8.59523 4.26025 8.93691C4.60193 9.27859 5.03725 9.51127 5.51117 9.60554C5.98509 9.69981 6.47632 9.65143 6.92275 9.46651C7.36917 9.2816 7.75073 8.96846 8.01919 8.56669C8.28764 8.16492 8.43093 7.69256 8.43093 7.20936C8.42809 6.56228 8.16978 5.94251 7.71222 5.48494C7.25466 5.02738 6.63489 4.76907 5.9878 4.76624ZM5.9878 8.02405C5.50874 8.02405 5.17359 7.68842 5.17359 7.20936C5.17359 6.7303 5.50874 6.39514 5.9878 6.39514C6.46687 6.39514 6.80249 6.7303 6.80249 7.20936C6.80249 7.68842 6.46874 8.02405 5.9878 8.02405Z" fill="black"/>
<path d="M23.1374 15.1617L23.9999 14.97L23.5687 13.0537L22.7066 13.2455C22.477 12.6889 22.1876 12.159 21.8437 11.6648L22.4666 11.0419L21.1251 9.65249L20.503 10.2755C20.0087 9.93176 19.4786 9.64257 18.922 9.41296L19.1615 8.50312L17.2452 8.07187L17.054 8.9339C16.4788 8.88703 15.8085 8.9339 15.2334 9.02765L14.8982 8.21343L13.078 8.83828L13.4137 9.70078C12.8861 9.98058 12.402 10.3355 11.9765 10.7545L11.2101 10.1798L10.0602 11.7605L10.828 12.3351C10.5407 12.8625 10.3012 13.4372 10.2055 14.0119L9.19961 13.965L9.10352 15.8812L10.0138 15.9281C10.0702 16.5123 10.1824 17.0898 10.349 17.6526L9.53477 18.0839L10.4451 19.8084L11.2593 19.3772C11.6147 19.8776 12.0512 20.3152 12.5507 20.6719L12.0716 21.4866L13.7005 22.3964L14.1796 21.5822C14.467 21.6783 14.7543 21.7739 15.0416 21.8217C15.329 21.8695 15.6168 21.9155 15.9041 21.9155L15.951 22.8258L17.8673 22.732L17.8204 21.8217C18.3951 21.728 18.9698 21.4866 19.4971 21.1992L20.024 21.9656L21.6046 20.8125L21.0777 20.0461C21.509 19.6148 21.892 19.1836 22.1798 18.6089L23.0418 18.9441L23.7604 17.1239L22.9462 16.8366C23.1374 16.3594 23.1374 15.7364 23.1374 15.1617ZM16.528 19.3294C15.77 19.3295 15.029 19.1048 14.3987 18.6837C13.7684 18.2626 13.2771 17.6641 12.9869 16.9638C12.6968 16.2635 12.6208 15.4929 12.7687 14.7495C12.9165 14.006 13.2815 13.3231 13.8174 12.787C14.3534 12.251 15.0363 11.886 15.7797 11.738C16.5232 11.5901 17.2938 11.666 17.9941 11.9561C18.6944 12.2461 19.293 12.7373 19.7142 13.3676C20.1353 13.9979 20.3601 14.7389 20.3601 15.4969C20.3626 16.0009 20.2652 16.5005 20.0735 16.9666C19.8818 17.4328 19.5995 17.8563 19.2431 18.2127C18.8866 18.5691 18.4631 18.8513 17.9969 19.043C17.5307 19.2346 17.0312 19.332 16.5271 19.3294H16.528Z" fill="black"/>
<path d="M16.5273 12.1917C14.6589 12.1917 13.2217 13.7245 13.2217 15.4969C13.2217 17.2692 14.7545 18.8025 16.5273 18.8025C18.3953 18.8025 19.8325 17.2697 19.8325 15.4969C19.8325 13.7241 18.3953 12.1917 16.5273 12.1917ZM16.5273 16.7906C15.7604 16.7906 15.1857 16.2155 15.1857 15.4491C15.1857 14.6826 15.7604 14.1094 16.5273 14.1094C17.2942 14.1094 17.8684 14.6841 17.8684 15.4505C17.8684 16.2169 17.2937 16.7906 16.5273 16.7906Z" fill="black"/>
</svg>
