<svg width="24" height="24" viewBox="0 0 24 24" fill="none" xmlns="http://www.w3.org/2000/svg">
<g clip-path="url(#clip0_723_2209)">
<path d="M12 0C5.38312 0 0 5.38312 0 12C0 18.6169 5.38312 24 12 24C18.6169 24 24 18.6169 24 12C24 5.38312 18.6169 0 12 0ZM16.7086 21.9375C15.2449 22.6608 13.6326 23.0325 12 23.0231C10.7152 23.0227 9.44026 22.7995 8.23172 22.3636C8.32547 21.6098 8.65359 20.8561 9.78609 20.8561C9.78609 19.3959 11.2463 18.6422 11.2463 18.6422V17.8889L7.94906 14.5917C7.94906 14.5917 5.35828 14.9667 4.65188 13.508H3.18984V12H5.02688V12.7547H5.40188V12C5.40188 12 6.15562 9.07969 8.32219 9.07969C8.32026 8.98257 8.33749 8.88602 8.3729 8.79557C8.40831 8.70511 8.4612 8.62252 8.52855 8.55252C8.59589 8.48252 8.67638 8.42648 8.7654 8.3876C8.85441 8.34872 8.95022 8.32777 9.04734 8.32594H9.07594V7.95094C8.65406 7.52906 8.65406 7.24453 9.07594 6.86766C9.07594 6.11391 8.32219 4.65375 8.32219 4.65375H9.07594V3.89906H8.32406V3.14531C8.12795 3.14908 7.93838 3.0748 7.79703 2.93881C7.65568 2.80282 7.57413 2.61626 7.57031 2.42016V2.39062H6.48703C7.19329 1.9941 7.93434 1.66303 8.70094 1.40156C9.31312 1.875 9.73734 2.34375 9.73734 3.09844H10.4906V3.85219H9.73734V4.60547C9.73734 4.60547 10.4906 4.60547 10.4906 6.06562H11.2444V3.89906H13.4583C13.4552 3.75991 13.4795 3.62151 13.5299 3.49176C13.5802 3.36201 13.6557 3.24346 13.7519 3.14286C13.8481 3.04227 13.9632 2.96161 14.0905 2.90549C14.2179 2.84937 14.3551 2.81889 14.4942 2.81578H14.5411V1.30828C15.9431 1.66057 17.2686 2.26735 18.4514 3.09844L16.3786 5.40656V5.78156H18.1214V5.40656H18.9225L19.9584 4.41703C20.1113 4.56254 20.2531 4.71923 20.3827 4.88578C20.2843 5.30276 20.1046 5.69626 19.8541 6.0438C19.6036 6.39134 19.287 6.6861 18.9225 6.91125L18.6413 6.1575H18.1725V6.91125L16.6181 8.37141V9.12516H14.6358V10.2084C14.9244 10.1866 15.2099 10.2801 15.4296 10.4686C15.6493 10.657 15.7853 10.9249 15.8077 11.2134C15.81 11.2392 15.8109 11.2655 15.8109 11.2917H15.0127V12C13.0345 13.837 15.0127 16.4278 15.0127 16.4278H17.3681V19.3481C16.6144 20.1023 16.7086 20.1023 16.7086 21.9375ZM3.94359 14.9681V16.4288H3.52172V18.2658C4.27547 18.2658 6.1125 19.3491 6.1125 20.8561L6.44062 21.563C4.8408 20.6153 3.50301 19.2831 2.54869 17.6873C1.59437 16.0914 1.05376 14.2825 0.975937 12.4247C1.72969 12.7547 2.4375 13.2727 2.4375 14.2148C2.53462 14.2129 2.63117 14.2302 2.72162 14.2656C2.81208 14.301 2.89466 14.3539 2.96467 14.4212C3.03467 14.4886 3.09071 14.569 3.12959 14.6581C3.16847 14.7471 3.18942 14.8429 3.19125 14.94V14.9681H3.94359ZM17.1323 9.78703L17.8861 8.70375L21.5625 10.5408V11.2941C21.5625 11.2472 17.8884 12.0009 17.8884 9.78703H17.1323Z" fill="black"/>
</g>
<defs>
<clipPath id="clip0_723_2209">
<rect width="24" height="24" fill="white"/>
</clipPath>
</defs>
</svg>
