<svg width="24" height="24" viewBox="0 0 24 24" fill="none" xmlns="http://www.w3.org/2000/svg">
<g clip-path="url(#clip0_723_2199)">
<path d="M3.6187 13.6031V13.2656H3.95151V8.33438C4.1437 8.14219 4.28901 7.90313 4.28901 7.61719C4.28901 7.18594 4.00308 6.80157 3.6187 6.70782V6.27657L2.94839 6.13126V6.75469C2.56401 6.90001 2.27808 7.23282 2.27808 7.66407C2.27808 7.95001 2.42339 8.24063 2.61558 8.38126V13.2656H2.94839V13.6031H3.6187Z" fill="black" stroke="black" stroke-width="0.046875" stroke-miterlimit="10"/>
<path d="M6.06084 5.7C6.25303 5.55469 6.44522 5.46094 6.6374 5.31563C7.45303 4.8375 8.45615 4.5 9.51084 4.30781C9.79678 4.26094 10.0358 4.21406 10.3265 4.1625C10.903 4.11563 11.4749 4.06875 12.0046 4.06875C13.1155 4.06875 14.2265 4.19531 15.3093 4.44844C16.3171 4.6875 17.2733 5.11875 17.9905 5.64375V6.51562L22.5421 5.175L11.9999 0L1.4624 5.31563L6.06084 6.46875V5.7Z" fill="black" stroke="black" stroke-width="0.046875" stroke-miterlimit="10"/>
<path d="M19.5703 19.9266H15.3563L12 23.9531L8.78906 19.9266H4.42969C4.42969 19.9266 0.0234375 19.9266 0.0234375 24H23.9766C23.9766 19.9266 19.5703 19.9266 19.5703 19.9266Z" fill="black" stroke="black" stroke-width="0.046875" stroke-miterlimit="10"/>
<path d="M15.2156 19.3031V17.7422C16.9453 16.4531 18.0938 14.1656 18.0938 11.5547C18.0984 10.425 17.8687 9.30937 17.4281 8.27344H6.57656C6.13125 9.31875 5.90625 10.4438 5.90625 11.5828C5.90625 14.1937 7.05 16.4859 8.78437 17.7703V19.3078H15.2156V19.3031Z" fill="black" stroke="black" stroke-width="0.046875" stroke-miterlimit="10"/>
<path d="M17.5547 5.93907C16.2656 5.07657 14.2031 4.55157 12 4.55157C9.79688 4.55157 7.73438 5.07657 6.49219 5.93907V7.75782H17.5594V5.93907H17.5547Z" fill="black" stroke="black" stroke-width="0.046875" stroke-miterlimit="10"/>
</g>
<defs>
<clipPath id="clip0_723_2199">
<rect width="24" height="24" fill="white"/>
</clipPath>
</defs>
</svg>
