<svg width="24" height="24" viewBox="0 0 24 24" fill="none" xmlns="http://www.w3.org/2000/svg">
<g clip-path="url(#clip0_723_2196)">
<path d="M10.0515 15.6094L10.0895 15.5902C9.33949 14.9372 8.8609 13.9003 8.8609 12.7387C8.8609 11.4731 9.43699 10.358 10.2915 9.71484L9.4848 9.35953C9.08307 9.60559 8.63087 9.75756 8.16207 9.80408C7.69327 9.85059 7.22003 9.79044 6.77777 9.62812C6.83538 9.89933 6.86429 10.1759 6.86402 10.4531C6.86402 11.6339 6.37465 12.6802 5.61621 13.3331L5.62559 13.3425L7.81465 14.3025L8.20793 14.4755V16.4625L10.0515 15.6094Z" fill="black"/>
<path d="M7.87221 8.82234C9.23533 8.82234 10.3392 7.49765 10.3392 5.87531C10.3392 4.25296 9.22549 2.93765 7.87221 2.93765C6.51893 2.93765 5.41455 4.24312 5.41455 5.87531C5.41455 7.5075 6.50861 8.82234 7.87221 8.82234Z" fill="black"/>
<path d="M18.3069 13.2961C17.5569 12.6431 17.0783 11.6086 17.0783 10.4447C17.078 10.164 17.1069 9.88408 17.1646 9.60939C16.822 9.74375 16.4572 9.81229 16.0893 9.81142C15.5077 9.81185 14.9383 9.64525 14.4487 9.33142L13.6616 9.69611C14.5255 10.3392 15.1016 11.4624 15.1016 12.7294C15.1016 13.9106 14.6122 14.9569 13.8538 15.6094L13.8632 15.6192L15.7851 16.463V14.4769L16.1497 14.3039L18.2713 13.3153L18.3069 13.2961Z" fill="black"/>
<path d="M16.0893 8.82234C17.4529 8.82234 18.5568 7.49765 18.5568 5.87531C18.5568 4.25296 17.443 2.93765 16.0893 2.93765C14.7355 2.93765 13.6321 4.24312 13.6321 5.87531C13.6321 7.5075 14.7261 8.82234 16.0893 8.82234Z" fill="black"/>
<path d="M21.8207 13.9294C21.4311 14.1654 20.9959 14.316 20.5438 14.3714C20.4383 14.3808 20.323 14.3906 20.2157 14.3906H20.2059C20.1004 14.3906 19.9949 14.3808 19.8894 14.3714C19.4156 14.32 18.9595 14.1625 18.5549 13.9106L16.4333 14.8894V18.7776H23.9999V14.8894L21.8207 13.9294Z" fill="black"/>
<path d="M18.0094 9.14861C17.9612 9.24715 17.9228 9.35013 17.8945 9.45611C17.7904 9.78183 17.7385 10.122 17.7408 10.4639C17.7408 11.9639 18.6816 13.2 19.8914 13.3824C19.9969 13.3922 20.1024 13.4016 20.2078 13.4016H20.2177C20.3277 13.4017 20.4375 13.3921 20.5458 13.373C21.7458 13.1714 22.6674 11.9424 22.6674 10.4546C22.6674 8.82236 21.5635 7.50705 20.2097 7.52627C19.3556 7.52627 18.5874 8.05455 18.1556 8.8608C18.0955 8.95051 18.0464 9.04715 18.0094 9.14861Z" fill="black"/>
<path d="M12.3362 16.6561C12.2307 16.6655 12.1154 16.6753 12.008 16.6753H11.9893C11.8833 16.6753 11.768 16.6655 11.6724 16.6561C11.1976 16.6093 10.7404 16.4514 10.3379 16.1953L8.21631 17.1745V21.0623H15.7824V17.1745L13.613 16.2145C13.2234 16.4503 12.7882 16.6008 12.3362 16.6561Z" fill="black"/>
<path d="M11.6719 15.6478C11.7774 15.6576 11.8829 15.667 11.9888 15.667H11.9982C12.1082 15.6672 12.218 15.6576 12.3263 15.6384C13.5263 15.4369 14.4479 14.2078 14.4479 12.72C14.4479 11.5106 13.824 10.4737 12.9507 10.0223C12.6846 9.88784 12.3938 9.80949 12.0962 9.79218H11.9138C11.7554 9.79511 11.598 9.81763 11.4451 9.85921C11.298 9.89509 11.1562 9.94992 11.0232 10.0223C10.1401 10.4737 9.52319 11.52 9.52319 12.7294C9.52319 14.227 10.4532 15.4655 11.6719 15.6478Z" fill="black"/>
<path d="M4.10859 14.3714C4.00313 14.3808 3.88781 14.3906 3.78047 14.3906H3.77109C3.66516 14.3906 3.55031 14.3808 3.45422 14.3714C2.97943 14.3244 2.52232 14.1666 2.11969 13.9106L0 14.8894V18.7776H7.56469V14.8894L5.38547 13.9294C4.99594 14.1654 4.56071 14.3161 4.10859 14.3714Z" fill="black"/>
<path d="M3.45613 13.3823C3.56159 13.3922 3.66706 13.4016 3.773 13.4016H3.78238C3.89238 13.4017 4.00218 13.3921 4.1105 13.373C5.3105 13.1714 6.23253 11.9423 6.23253 10.4545C6.23381 10.1087 6.17855 9.76491 6.06894 9.43687C6.04072 9.33089 6.00226 9.2279 5.95409 9.12937C5.91503 9.02779 5.87011 8.92856 5.81956 8.83218C5.378 8.04468 4.62894 7.52625 3.77488 7.52625C2.41128 7.52625 1.30738 8.84156 1.30738 10.4639C1.3055 11.9616 2.23691 13.2 3.45613 13.3823Z" fill="black"/>
</g>
<defs>
<clipPath id="clip0_723_2196">
<rect width="24" height="24" fill="white"/>
</clipPath>
</defs>
</svg>
