<svg width="24" height="24" viewBox="0 0 24 24" fill="none" xmlns="http://www.w3.org/2000/svg">
<g clip-path="url(#clip0_723_2204)">
<path d="M12.5277 15.8348L12.5155 15.8564L12.4799 15.8348L11.773 17.0625L10.273 16.0781L10.2613 16.1025L10.2248 16.0781L9.80289 16.9687L7.72867 15.7903L7.71695 15.8109L7.68086 15.7903L7.16523 16.6809L4.70523 15.262C4.70101 15.2686 4.69773 15.2756 4.69351 15.2826L4.65742 15.262C4.4915 15.5599 4.39266 15.8904 4.3678 16.2305C4.34294 16.5705 4.39267 16.9119 4.51351 17.2308C4.58507 17.3961 4.69478 17.5421 4.83367 17.6569L4.8482 17.6691L4.85242 17.6728C5.05287 17.8388 5.30953 17.9212 5.56914 17.903C5.78406 17.895 5.99624 17.8519 6.19726 17.7755C6.22492 17.7656 6.24133 17.7586 6.24133 17.7586C6.42709 18.1517 6.72962 18.4779 7.10764 18.6926C7.48566 18.9074 7.92075 19.0003 8.35351 18.9586C8.49353 19.1789 8.68379 19.3628 8.90869 19.4953C9.13359 19.6278 9.38671 19.7051 9.64726 19.7208C9.69414 19.7245 9.74429 19.7273 9.79351 19.7269C10.0109 19.73 10.2265 19.6867 10.4259 19.5998C10.4901 19.7287 10.6354 19.8722 10.8234 19.9847C11.0272 20.128 11.2707 20.2044 11.5199 20.2031C11.6989 20.2044 11.8746 20.1556 12.0272 20.0622C12.1799 19.9689 12.3034 19.8347 12.3838 19.6748C12.9416 18.6892 13.423 17.6623 13.8238 16.6031L12.5277 15.8348Z" fill="black"/>
<path d="M7.58379 7.77094L5.8077 6.81094L2.87988 14.3948L4.46379 15.2592L7.58379 7.77094Z" fill="black"/>
<path d="M8.83222 12.1406L11.4239 10.2656L11.8561 10.5056L19.2478 15.2592L16.1278 7.77095C15.0239 6.90704 14.4961 6.47485 13.2 6.47485C11.7122 6.47485 7.82394 10.267 7.77612 10.267L8.83222 12.1406Z" fill="black"/>
<path d="M16.5122 7.57922L16.56 7.62703L19.6322 15.0192L21.0722 14.2509L18.0961 6.71484L16.5122 7.57922Z" fill="black"/>
<path d="M18.4799 6.42705L18.4884 6.44814L18.4321 6.47486L22.416 16.507L23.9999 15.691V15.6431V3.78705L18.4799 6.42705Z" fill="black"/>
<path d="M0 3.83484V15.6909L1.58391 16.507L5.52 6.47484L0 3.83484Z" fill="black"/>
<path d="M19.0077 15.5949L11.6638 10.8909L11.4721 10.7949L9.11993 12.4749L8.73603 12.7631L8.49603 12.3309L7.43993 10.4592L7.29603 10.1719L7.53603 9.93188C8.78555 8.64546 10.188 7.51705 11.7121 6.57188C11.534 6.47936 11.3367 6.43006 11.136 6.42798C9.83993 6.42798 9.31212 6.86017 8.20774 7.72407L5.18384 14.9709L7.00774 16.0749L7.29603 15.547L7.48774 15.1631L7.87212 15.4031L9.55212 16.3631L9.79212 15.8831L10.0321 15.4509L10.4638 15.7392L11.616 16.507L12.096 15.6909L12.336 15.307L12.7199 15.547L14.0156 16.3149L14.3517 16.507L14.1595 16.7949C13.7535 17.883 13.2723 18.9417 12.7195 19.9631C12.6816 20.0488 12.613 20.1172 12.5273 20.1549C12.7851 20.2389 13.0638 20.2324 13.3174 20.1364C13.571 20.0404 13.7843 19.8607 13.9218 19.627C14.2833 19.7873 14.6904 19.8125 15.0689 19.698C15.4474 19.5835 15.7722 19.3369 15.9843 19.0031C16.415 19.0339 16.8446 18.9304 17.214 18.7069C17.5834 18.4833 17.8743 18.1507 18.0468 17.7549C18.0468 17.7549 19.3429 18.2831 19.8229 17.227C19.9825 16.9166 20.0339 16.5617 19.9687 16.2188L19.0077 15.5949Z" fill="black"/>
</g>
<defs>
<clipPath id="clip0_723_2204">
<rect width="24" height="24" fill="white"/>
</clipPath>
</defs>
</svg>
