<svg width="24" height="24" viewBox="0 0 24 24" fill="none" xmlns="http://www.w3.org/2000/svg">
<path d="M12 22.8722L19.2 17.4478C19.2 17.4478 24 13.8 24 9.28781C24 4.77562 20.7839 1.12781 16.8 1.12781C14.2561 1.12781 12.7688 2.85609 12 3.96M12 3.96C11.1361 2.80781 9.69609 1.12781 7.2 1.12781C3.21609 1.12781 0 4.77609 0 9.28781C0 13.7995 4.8 17.4478 4.8 17.4478L12 22.8722M7.34391 13.9439H4.46391V10.0561H7.39219L7.34531 13.9439H7.34391ZM11.422 13.9439H8.49609V7.12781H11.4239L11.422 13.9439ZM15.5002 13.9439H12.5761V9.09609H15.5039L15.5002 13.9439ZM19.5783 13.9439H16.6561V6.16781H19.5839L19.5783 13.9439Z" fill="black"/>
</svg>
