<svg width="24" height="24" viewBox="0 0 24 24" fill="none" xmlns="http://www.w3.org/2000/svg">
<g clip-path="url(#clip0_723_2192)">
<path d="M17.603 14.7188C18.3741 14.7188 18.4993 13.4063 18.4993 12.4828C18.4993 12.061 18.4524 11.2688 18.3259 10.8253C18.2874 10.6425 18.1238 10.0449 17.5937 10.0449C17.1793 10.0449 16.996 10.4199 16.9285 10.6233C16.7068 11.3072 16.7068 12.3385 16.7068 12.5025C16.7068 13.6491 16.8802 14.7188 17.603 14.7188Z" fill="black"/>
<path d="M12.4471 11.4328C12.4471 11.3456 12.4565 10.8642 12.4664 10.6903L10.7507 13.2056H12.4471V11.4328Z" fill="black"/>
<path d="M6.70324 11.4328C6.70324 11.3456 6.71262 10.8642 6.72246 10.6903L5.00684 13.2056H6.70324V11.4328Z" fill="black"/>
<path d="M24 0H0V3.75H24V0Z" fill="black"/>
<path d="M0 15L12 24L24 15V5.25H0V15ZM17.5837 8.92688C18.5283 8.92688 19.087 9.43781 19.3378 9.81375C19.6847 10.3242 19.9448 10.9795 19.9448 12.2419C19.9448 13.8033 19.5886 15.8559 17.5645 15.8559C15.8395 15.8559 15.2423 14.1984 15.2423 12.4059C15.2423 11.5097 15.4252 8.92688 17.5837 8.92688ZM9.67172 12.9844L12.3698 9.02344H13.8061L13.7963 13.177H14.7117V14.2852H13.7963V15.75H12.3698V14.2852H9.67172V12.9844ZM3.92672 12.9844L6.62484 9.02344H8.0625L8.05266 13.177H8.96813V14.2852H8.05125V15.75H6.62484V14.2852H3.92672V12.9844Z" fill="black"/>
</g>
<defs>
<clipPath id="clip0_723_2192">
<rect width="24" height="24" fill="white"/>
</clipPath>
</defs>
</svg>
