<svg width="24" height="24" viewBox="0 0 24 24" fill="none" xmlns="http://www.w3.org/2000/svg">
<path d="M6.96151 10.3285L7.40635 10.8282C7.57033 9.3181 8.25695 7.91285 9.34745 6.8555C9.54271 6.66515 9.74951 6.487 9.96666 6.32206C9.37764 6.04554 8.70551 6.00332 8.08651 6.20394L2.95323 0.402219C2.77287 0.206341 2.52289 0.0889925 2.25698 0.0753691C1.99106 0.0617458 1.7304 0.152934 1.53097 0.329354C1.33154 0.505775 1.20923 0.753361 1.19032 1.01895C1.1714 1.28455 1.25738 1.54697 1.42979 1.74988L6.5626 7.55347C6.35126 8.00453 6.27643 8.50754 6.3473 9.00059C6.41818 9.49364 6.63167 9.9552 6.96151 10.3285Z" fill="black"/>
<path d="M22.1828 15.2344C22.4286 14.881 22.5783 14.4698 22.6171 14.0411C22.656 13.6124 22.5826 13.181 22.4042 12.7892C22.2259 12.3975 21.9487 12.0589 21.5998 11.8067C21.251 11.5545 20.8426 11.3974 20.4146 11.3508C20.3032 9.76798 19.5959 8.28627 18.4352 7.2044C17.2745 6.12252 15.7468 5.52094 14.1601 5.52094C12.5734 5.52094 11.0457 6.12252 9.88499 7.2044C8.7243 8.28627 8.01695 9.76798 7.90557 11.3508C7.4781 11.3982 7.0703 11.5559 6.72218 11.8084C6.37406 12.061 6.09758 12.3997 5.91988 12.7914C5.74218 13.183 5.66936 13.6142 5.70857 14.0425C5.74778 14.4707 5.89767 14.8815 6.14354 15.2344H22.1828Z" fill="black"/>
<path d="M15.3704 19.3927C15.5162 19.1147 15.5316 18.8433 15.3859 18.6966C15.2401 18.5498 14.9677 18.5658 14.6893 18.7116C14.5955 18.4116 14.4146 18.2081 14.207 18.2081C13.9993 18.2081 13.8193 18.4116 13.7251 18.7116C13.4466 18.5658 13.1752 18.5498 13.029 18.6966C12.8827 18.8433 12.8982 19.1147 13.0435 19.3927C12.744 19.4864 12.541 19.6673 12.541 19.875C12.541 20.0827 12.744 20.2627 13.0435 20.3564C12.8982 20.6377 12.8823 20.9067 13.029 21.0534C13.1757 21.2002 13.4466 21.1838 13.7251 21.038C13.8188 21.3384 13.9998 21.5414 14.207 21.5414C14.4141 21.5414 14.5955 21.338 14.6893 21.038C14.9677 21.1838 15.2391 21.1997 15.3859 21.0534C15.5326 20.9072 15.5162 20.6353 15.3704 20.3564C15.6704 20.2627 15.8738 20.0822 15.8738 19.875C15.8738 19.6678 15.6704 19.4873 15.3704 19.3927ZM14.8941 20.1595C14.9795 20.3236 14.9879 20.4839 14.9026 20.5702C14.8173 20.6564 14.656 20.6475 14.4915 20.5617C14.4362 20.7384 14.3293 20.8584 14.207 20.8584C14.0846 20.8584 13.9782 20.7384 13.9224 20.5617C13.7584 20.6475 13.5985 20.6555 13.5118 20.5706C13.4251 20.4858 13.4345 20.3236 13.5202 20.1595C13.343 20.1038 13.2235 19.9973 13.2235 19.875C13.2235 19.7527 13.343 19.6458 13.5202 19.5905C13.4345 19.4259 13.4265 19.2656 13.5118 19.1794C13.5971 19.0931 13.7584 19.102 13.9224 19.1878C13.9782 19.0111 14.0846 18.8911 14.207 18.8911C14.3293 18.8911 14.4362 19.0111 14.4915 19.1878C14.656 19.102 14.8163 19.0941 14.9026 19.1794C14.9888 19.2647 14.9795 19.4259 14.8941 19.5905C15.0713 19.6458 15.1909 19.7527 15.1909 19.875C15.1909 19.9973 15.0713 20.1038 14.8941 20.1595Z" fill="black"/>
<path d="M22.3894 15.9291H5.53125V16.9561H6.28734L7.76813 23.9649H20.6822L22.1634 16.9561H22.8239V15.9291H22.3894ZM16.0711 20.6475C16.3055 21.0938 16.3303 21.5283 16.095 21.7627C15.8597 21.997 15.4256 21.9722 14.9789 21.7392C14.8289 22.2188 14.5392 22.5469 14.2069 22.5469C13.8745 22.5469 13.5853 22.2216 13.4353 21.7411C12.9881 21.9755 12.5536 21.9999 12.3192 21.765C12.0848 21.5302 12.1097 21.0956 12.3427 20.6494C11.8622 20.4985 11.5369 20.2088 11.5369 19.8769C11.5369 19.545 11.8622 19.2553 12.3427 19.1044C12.1083 18.6581 12.0839 18.2236 12.3187 17.9888C12.5536 17.7539 12.9881 17.7792 13.4353 18.0127C13.5858 17.5313 13.875 17.2031 14.2069 17.2031C14.5387 17.2031 14.8289 17.5313 14.9789 18.0094C15.4256 17.775 15.8602 17.7502 16.095 17.9855C16.3298 18.2208 16.3045 18.6549 16.0716 19.1011C16.5516 19.252 16.8773 19.5408 16.8773 19.8736C16.8773 20.2064 16.5516 20.4966 16.0711 20.6475Z" fill="black"/>
</svg>
