<svg width="24" height="24" viewBox="0 0 24 24" fill="none" xmlns="http://www.w3.org/2000/svg">
<g clip-path="url(#clip0_723_2262)">
<path d="M8.26401 4.93594L6.4612 4.15406L5.75292 3.84375C5.68735 3.88122 5.61974 3.91502 5.55042 3.945C5.48028 3.98061 5.40638 4.00828 5.33011 4.0275H5.32073C5.24499 4.04757 5.16814 4.06323 5.09058 4.07437C4.93217 4.09921 4.77086 4.09921 4.61245 4.07437C4.49557 4.05731 4.38126 4.02582 4.27214 3.98062C4.16744 3.93936 4.06605 3.89016 3.96886 3.83344L3.24229 4.15547L1.45776 4.93594V6.39844H8.26401V4.93594Z" fill="black"/>
<path d="M5.55054 3.93328C5.62074 3.90522 5.68847 3.87135 5.75304 3.83203L6.46132 4.14468L5.76241 3.82312C5.68882 3.85968 5.62507 3.89671 5.55054 3.93328Z" fill="black"/>
<path d="M4.86094 3.4917C5.66865 3.4917 6.32344 2.70932 6.32344 1.7442C6.32344 0.779086 5.66865 -0.0032959 4.86094 -0.0032959C4.05322 -0.0032959 3.39844 0.779086 3.39844 1.7442C3.39844 2.70932 4.05322 3.4917 4.86094 3.4917Z" fill="black"/>
<path d="M-0.0136719 6.88593L0.473828 9.65389H9.24789L9.73539 6.88593H-0.0136719Z" fill="black"/>
<path d="M15.8048 22.9069V23.2411H12.7809V22.9069H4.5332V24.0033H24.0135V22.9069H15.8048Z" fill="black"/>
<path d="M20.3682 13.2488H18.6592V14.9578H20.3682V13.2488Z" fill="black"/>
<path d="M20.3682 16.1105H18.6592V17.8195H20.3682V16.1105Z" fill="black"/>
<path d="M20.3682 18.9806H18.6592V20.6897H20.3682V18.9806Z" fill="black"/>
<path d="M22.3813 22.3964V11.4666H6.12646V22.3964H22.3813ZM6.95053 12.2906H21.5568V21.5719H6.95053V12.2906Z" fill="black"/>
<path d="M17.1243 13.6472V20.2913H8.41162V13.6472H17.1243ZM17.4993 13.2722H8.03662V20.6663H17.4993V13.2722Z" fill="black"/>
<path d="M12.7791 17.5542C12.8344 17.5594 12.8921 17.5645 12.9493 17.5645H12.9544C13.014 17.5645 13.0734 17.5592 13.1321 17.5486C13.7883 17.4356 14.2796 16.7395 14.2796 15.9291C14.2796 15.2812 13.9622 14.6939 13.471 14.4328C13.3266 14.3576 13.168 14.3137 13.0055 14.3039H12.9085C12.8218 14.3057 12.7357 14.3183 12.6521 14.3414C12.5719 14.3625 12.4948 14.394 12.4229 14.4351C11.9316 14.6934 11.6143 15.2826 11.6143 15.9351C11.6161 16.7559 12.1163 17.4525 12.7791 17.5542Z" fill="black"/>
<path d="M13.8122 17.8125L13.8014 17.8195C13.5985 17.9464 13.3704 18.0276 13.133 18.0576C13.0763 18.0628 13.0167 18.0679 12.9614 18.0679H12.9511C12.8934 18.0679 12.8288 18.0619 12.7852 18.0576C12.5357 18.0317 12.2961 17.9466 12.0862 17.8092L12.075 17.8017L10.9219 18.3515V19.9265H14.9916V18.3511L13.8122 17.8125Z" fill="black"/>
<path d="M5.65787 11.4666V10.9978H6.12662H8.36537V10.1414H1.35662L1.34912 18.3914H5.65787V11.4666Z" fill="black"/>
</g>
<defs>
<clipPath id="clip0_723_2262">
<rect width="24" height="24" fill="white"/>
</clipPath>
</defs>
</svg>
