<svg width="24" height="24" viewBox="0 0 24 24" fill="none" xmlns="http://www.w3.org/2000/svg">
<g clip-path="url(#clip0_727_309)">
<path d="M12 9.1425C11.4349 9.14271 10.8826 9.31048 10.4128 9.6246C9.94302 9.93871 9.57694 10.3851 9.36083 10.9072C9.14471 11.4294 9.08828 12.0039 9.19866 12.5581C9.30903 13.1124 9.58127 13.6214 9.98094 14.0209C10.3806 14.4205 10.8898 14.6925 11.444 14.8027C11.9983 14.9128 12.5728 14.8562 13.0949 14.6399C13.617 14.4236 14.0632 14.0573 14.3771 13.5874C14.6911 13.1175 14.8586 12.5651 14.8586 12C14.8581 11.2421 14.5567 10.5155 14.0207 9.97969C13.4847 9.4439 12.7579 9.14278 12 9.1425ZM18.6809 6.94607C18.5355 6.57742 18.3158 6.24258 18.0356 5.96234C17.7553 5.6821 17.4205 5.46243 17.0518 5.31696C15.9268 4.87286 13.2483 4.9725 12 4.9725C10.7518 4.9725 8.07594 4.86911 6.94772 5.31696C6.57907 5.46243 6.24424 5.6821 5.964 5.96234C5.68376 6.24258 5.46409 6.57742 5.31862 6.94607C4.87505 8.07107 4.97415 10.7523 4.97415 11.9995C4.97415 13.2466 4.87505 15.9246 5.32076 17.0534C5.46623 17.422 5.6859 17.7569 5.96614 18.0371C6.24638 18.3174 6.58121 18.537 6.94987 18.6825C8.07487 19.1266 10.7534 19.027 12.0022 19.027C13.2509 19.027 15.9258 19.1304 17.054 18.6825C17.4226 18.537 17.7575 18.3174 18.0377 18.0371C18.3179 17.7569 18.5376 17.422 18.6831 17.0534C19.1304 15.9284 19.0275 13.2471 19.0275 12C19.0275 10.7529 19.1304 8.07536 18.6831 6.94661L18.6809 6.94607ZM12 16.3929C11.1312 16.3929 10.2819 16.1352 9.55951 15.6525C8.8371 15.1698 8.27406 14.4838 7.94158 13.6811C7.60909 12.8784 7.5221 11.9951 7.6916 11.143C7.8611 10.2909 8.27948 9.50813 8.89383 8.89378C9.50818 8.27943 10.2909 7.86105 11.143 7.69155C11.9952 7.52205 12.8784 7.60904 13.6811 7.94153C14.4838 8.27401 15.1699 8.83706 15.6526 9.55946C16.1353 10.2819 16.3929 11.1312 16.3929 12C16.3936 12.5771 16.2805 13.1486 16.06 13.6819C15.8394 14.2152 15.5159 14.6997 15.1078 15.1078C14.6998 15.5158 14.2152 15.8394 13.682 16.0599C13.1487 16.2804 12.5771 16.3936 12 16.3929ZM16.574 8.44821C16.3712 8.44832 16.1729 8.38827 16.0042 8.27567C15.8355 8.16307 15.704 8.00297 15.6263 7.81562C15.5486 7.62827 15.5282 7.42208 15.5677 7.22315C15.6072 7.02421 15.7048 6.84146 15.8482 6.69801C15.9916 6.55456 16.1743 6.45685 16.3732 6.41724C16.5721 6.37763 16.7783 6.39791 16.9657 6.4755C17.1531 6.55309 17.3133 6.68451 17.426 6.85314C17.5386 7.02177 17.5988 7.22004 17.5988 7.42286C17.5994 7.55754 17.5733 7.69101 17.5222 7.81562C17.4711 7.94022 17.3958 8.0535 17.3008 8.14896C17.2058 8.24442 17.0929 8.32019 16.9685 8.37191C16.8442 8.42363 16.7108 8.45029 16.5761 8.45036L16.574 8.44821ZM24 0H5.31047e-05C7.08493e-06 8 -4.26292e-05 16 6.16282e-05 24H24C24.0003 16 24.0001 8 24 0ZM20.5115 15.5357C20.4424 16.9088 20.129 18.1254 19.1267 19.125C18.1243 20.1246 16.9088 20.4445 15.5374 20.5098C14.1225 20.5896 9.88076 20.5896 8.46594 20.5098C7.0929 20.4407 5.88058 20.1268 4.87665 19.125C3.87272 18.1232 3.55719 16.9061 3.49183 15.5357C3.41201 14.1204 3.41201 9.87804 3.49183 8.46429C3.56094 7.09125 3.87058 5.87464 4.87665 4.875C5.88272 3.87536 7.09826 3.55929 8.46594 3.49393C9.88076 3.41411 14.1225 3.41411 15.5374 3.49393C16.9104 3.56304 18.1265 3.87696 19.1267 4.87875C20.1268 5.88054 20.4461 7.09768 20.5115 8.47071C20.5913 9.88071 20.5913 14.1193 20.5115 15.5357Z" fill="black"/>
</g>
<defs>
<clipPath id="clip0_727_309">
<rect width="24" height="24" fill="white"/>
</clipPath>
</defs>
</svg>
