<svg width="24" height="24" viewBox="0 0 24 24" fill="none" xmlns="http://www.w3.org/2000/svg">
<path d="M5.90864 11.2017H2.47974V20.8706H5.90864V11.2017Z" fill="black"/>
<path d="M1.18457 21.8316L1.18457 23.9297H18.1229V21.8316H1.18457Z" fill="black"/>
<path d="M11.1301 11.2017H7.70117V20.8706H11.1301V11.2017Z" fill="black"/>
<path d="M15.3638 19.9917L12.9221 14.7417V20.8706H16.2502C15.858 20.6948 15.543 20.3824 15.3638 19.9917Z" fill="black"/>
<path d="M10.2248 8.94047C9.71566 7.77661 9.51313 6.5017 9.63656 5.23734C9.65906 5.00719 9.69328 4.77891 9.73781 4.55297L9.58406 4.45312L1.03125 10.1611H10.7925L10.3561 9.22359C10.3125 9.13406 10.2694 9.04125 10.2248 8.94047Z" fill="black"/>
<path d="M16.9538 0.0703125C16.808 0.0703125 16.6603 0.0754688 16.5155 0.0857813C15.5553 0.155768 14.626 0.455286 13.8057 0.959147C12.9854 1.46301 12.298 2.15648 11.8015 2.98124C11.3049 3.806 11.0137 4.73794 10.9522 5.69868C10.8907 6.65942 11.0609 7.62088 11.4483 8.50219C11.4858 8.58797 11.5219 8.66578 11.5617 8.74641V8.75062V8.75484L16.6603 19.7105C16.6864 19.7663 16.7279 19.8135 16.7799 19.8466C16.8318 19.8797 16.8922 19.8972 16.9538 19.8972C17.0154 19.8972 17.0757 19.8797 17.1277 19.8466C17.1797 19.8135 17.2211 19.7663 17.2472 19.7105L22.3453 8.74828V8.74359L22.3477 8.73891C22.7574 7.91373 22.97 7.00473 22.9688 6.08344C22.9688 2.76797 20.2697 0.0703125 16.9538 0.0703125ZM17.0321 8.96766C16.4559 8.96766 15.8926 8.79679 15.4135 8.47668C14.9344 8.15656 14.561 7.70157 14.3405 7.16924C14.12 6.63691 14.0623 6.05114 14.1747 5.48602C14.2872 4.9209 14.5646 4.4018 14.9721 3.99437C15.3795 3.58694 15.8986 3.30948 16.4637 3.19707C17.0288 3.08466 17.6146 3.14235 18.1469 3.36285C18.6792 3.58335 19.1342 3.95676 19.4544 4.43584C19.7745 4.91493 19.9453 5.47818 19.9453 6.05438C19.9452 6.82699 19.6382 7.56792 19.0919 8.11424C18.5456 8.66056 17.8047 8.96753 17.0321 8.96766Z" fill="black"/>
</svg>
