<svg width="24" height="24" viewBox="0 0 24 24" fill="none" xmlns="http://www.w3.org/2000/svg">
<path d="M10.1278 18.8002V18.4163H0V19.7124H24V18.4163H13.9219V18.8002" fill="black"/>
<path d="M19.2962 7.11981H9.12012V7.59981H19.2962V7.11981Z" fill="black"/>
<path d="M19.2962 8.12762H9.12012V8.60762H19.2962V8.12762Z" fill="black"/>
<path d="M11.664 9.18372H9.12012V9.6159H11.664V9.18372Z" fill="black"/>
<path d="M7.87221 6.78375H4.51221V10.1438H7.87221V6.78375Z" fill="black"/>
<path d="M19.2962 12.0155H9.12012V12.4955H19.2962V12.0155Z" fill="black"/>
<path d="M19.2962 13.0237H9.12012V13.5037H19.2962V13.0237Z" fill="black"/>
<path d="M14.1123 14.0798H9.12012V14.5598H14.1123V14.0798Z" fill="black"/>
<path d="M7.87221 11.5837H4.51221V14.9437H7.87221V11.5837Z" fill="black"/>
<path d="M21.9844 17.7277H1.96875V4.28766H21.9844V17.7277ZM2.92781 16.7677H21.0239V5.25H2.93016L2.92781 16.7677Z" fill="black"/>
</svg>
