<svg width="24" height="24" viewBox="0 0 24 24" fill="none" xmlns="http://www.w3.org/2000/svg">
<path d="M8.0672 16.5939V20.1911H3.98438V14.7292H3.39329L3.07642 9.57012L4.72735 8.80371C5.08101 9.02766 5.48705 9.15529 5.90523 9.17395C6.32342 9.19262 6.73922 9.10167 7.11142 8.91012L7.41329 13.7851L7.47235 14.7287L7.55251 16.0361L7.58767 16.5925L8.0672 16.5939Z" fill="black"/>
<path d="M8.06723 13.7856V14.7292H8.06395L8.00488 13.7856H8.06723Z" fill="black"/>
<path d="M6.01367 8.40015C7.07445 8.40015 7.93555 7.37265 7.93555 6.10327C7.93555 4.8339 7.07586 3.8064 6.01367 3.8064C4.95148 3.8064 4.0918 4.8339 4.0918 6.10327C4.0918 7.37265 4.95336 8.40015 6.01367 8.40015Z" fill="black"/>
<path d="M8.06723 13.7855V14.7764L8.06395 14.7291L8.00488 13.7855H8.06723Z" fill="black"/>
<path d="M15.9952 13.7856L15.9361 14.7292H15.9329V13.7856H15.9952Z" fill="black"/>
<path d="M20.9236 9.57013L20.6068 14.7292H20.0157V20.1901H15.9329V16.5939H16.4124L16.4475 16.0375L16.5277 14.7301L16.5868 13.7865L16.8854 8.91997C17.2192 9.09022 17.5888 9.17844 17.9635 9.17731C18.4065 9.17519 18.8405 9.05217 19.2188 8.82153L20.9236 9.57013Z" fill="black"/>
<path d="M17.9619 8.40015C19.0227 8.40015 19.8838 7.37265 19.8838 6.10327C19.8838 4.8339 19.0241 3.8064 17.9619 3.8064C16.8997 3.8064 16.04 4.8339 16.04 6.10327C16.04 7.37265 16.9016 8.40015 17.9619 8.40015Z" fill="black"/>
<path d="M15.9952 13.7855L15.9361 14.7291L15.9329 14.7764V13.7855H15.9952Z" fill="black"/>
<path d="M16.3233 8.43985L16.291 8.98126L15.9952 13.7855H15.9329V14.7764L15.856 16.0008H14.9893V24H9.01082V16.0008H8.1441L8.06723 14.7764V13.7855H8.00488L7.71191 9.0136L7.67676 8.43985L10.0993 7.3186C10.6564 7.67003 11.3009 7.85851 11.9596 7.86274C12.6183 7.86696 13.2651 7.68676 13.8268 7.34251L16.3233 8.43985Z" fill="black"/>
<path d="M8.00488 13.7855H8.06723V14.7764L8.06395 14.7291L8.00488 13.7855Z" fill="black"/>
<path d="M15.9952 13.7855L15.9361 14.7291L15.9329 14.7764V13.7855H15.9952Z" fill="black"/>
<path d="M14.797 3.36328C14.797 5.21812 13.5365 6.72422 11.9845 6.72422C10.4324 6.72422 9.16821 5.21812 9.16821 3.36328C9.16821 1.50844 10.4277 0 11.9835 0C13.5393 0 14.797 1.50563 14.797 3.36328Z" fill="black"/>
</svg>
