<svg width="24" height="24" viewBox="0 0 24 24" fill="none" xmlns="http://www.w3.org/2000/svg">
<path d="M3.34541 10.8478H1.0415V11.7117H3.34541V10.8478Z" fill="black"/>
<path d="M22.9585 10.8478H20.7024V11.7117H22.9585V10.8478Z" fill="black"/>
<path d="M14.0061 19.3922H13.5599V18.0338H12.1344V19.7231H11.6877V18.0338H10.2669V19.3922H9.82066V18.0338H8.48145V19.9922L9.86379 20.6592V21.24H14.0497V20.6592L15.4321 19.9922V18.0338H14.0061V19.3922Z" fill="black"/>
<path d="M9.86401 23.333H10.6656L11.064 24H12.85L13.2479 23.333H14.05V22.7522H9.86401V23.333Z" fill="black"/>
<path d="M14.0495 21.6863H9.86401V22.3102H14.0495V21.6863Z" fill="black"/>
<path d="M12.0239 4.22859C10.6225 4.22552 9.25662 4.66994 8.12531 5.49713C6.99399 6.32432 6.1563 7.49108 5.73424 8.82748C5.31217 10.1639 5.32777 11.6001 5.77876 12.927C6.22975 14.254 7.09258 15.4023 8.24159 16.2047H8.21768L8.48159 17.5781H15.4322L15.8306 16.2052C16.6962 15.5984 17.4032 14.7924 17.8918 13.8551C18.3805 12.9178 18.6366 11.8767 18.6385 10.8197C18.6172 9.07418 17.9127 7.40651 16.6762 6.17435C15.4397 4.94219 13.7695 4.24367 12.0239 4.22859Z" fill="black"/>
<path d="M19.6524 2.61712L18.0139 4.23682L18.6213 4.8512L20.2597 3.2315L19.6524 2.61712Z" fill="black"/>
<path d="M12.5277 0H11.6638V2.30391H12.5277V0Z" fill="black"/>
<path d="M4.35442 2.61456L3.74707 3.22894L5.38553 4.84864L5.99288 4.23426L4.35442 2.61456Z" fill="black"/>
</svg>
