<svg width="24" height="24" viewBox="0 0 24 24" fill="none" xmlns="http://www.w3.org/2000/svg">
<g clip-path="url(#clip0_723_2255)">
<path d="M18.8818 8.09436H11.978L12.5968 8.66577H18.5007L18.8818 8.09436Z" fill="black"/>
<path d="M9.12094 8.09436H2.07422V8.66577H8.74031L9.12094 8.09436Z" fill="black"/>
<path d="M1.55064 22.4733V0H0.0239258V24H23.9761V22.4733H1.55064Z" fill="black"/>
<path d="M16.9771 16.3313L16.739 16.7119H23.4998V16.0931H17.1201L16.9771 16.3313Z" fill="black"/>
<path d="M7.40671 16.0931L6.97827 16.7119H16.5487L16.3106 16.4264L15.9773 16.0931H7.40671Z" fill="black"/>
<path d="M3.93141 16.0931H2.07422V16.7119H3.55031L3.93141 16.0931Z" fill="black"/>
<path d="M10.6448 10.2366L16.5961 16.0931L21.548 8.57018L23.2144 9.66518L23.5476 3.61877L18.12 6.38018L19.8337 7.47518L16.2628 12.9506L10.3111 7.04674L2.02686 19.8544L3.74061 20.9499L10.6448 10.2366Z" fill="black"/>
</g>
<defs>
<clipPath id="clip0_723_2255">
<rect width="24" height="24" fill="white"/>
</clipPath>
</defs>
</svg>
