<svg width="24" height="24" viewBox="0 0 24 24" fill="none" xmlns="http://www.w3.org/2000/svg">
<g clip-path="url(#clip0_727_308)">
<path d="M24 0H0C0.000282068 8 0.000183411 16 1.06096e-05 24H24C24 16 24 8 24 0ZM7.2536 20.5714H3.69646V9.11786H7.25896V20.5714H7.2536ZM5.47503 7.55357C4.33396 7.55357 3.41253 6.62679 3.41253 5.49107C3.41253 4.35536 4.33396 3.42857 5.47503 3.42857C6.61074 3.42857 7.53753 4.35536 7.53753 5.49107C7.53753 6.63214 6.6161 7.55357 5.47503 7.55357ZM20.5875 20.5714H17.0304V15C17.0304 13.6714 17.0036 11.9625 15.1822 11.9625C13.3286 11.9625 13.0447 13.4089 13.0447 14.9036V20.5714H9.48753V9.11786H12.9V10.6821H12.9482C13.425 9.78214 14.5875 8.83393 16.3179 8.83393C19.9179 8.83393 20.5875 11.2071 20.5875 14.2929V20.5714Z" fill="black"/>
</g>
<defs>
<clipPath id="clip0_727_308">
<rect width="24" height="24" fill="white"/>
</clipPath>
</defs>
</svg>
