<svg width="24" height="24" viewBox="0 0 24 24" fill="none" xmlns="http://www.w3.org/2000/svg">
<path d="M15.8778 7.2328C15.877 6.21451 15.4721 5.23818 14.752 4.51814C14.032 3.7981 13.0557 3.3932 12.0374 3.39233C11.9436 3.39233 11.8499 3.39562 11.7561 3.40218C11.1428 3.4468 10.5492 3.63804 10.0252 3.95982C9.50115 4.28161 9.06206 4.72452 8.74482 5.2513C8.42759 5.77809 8.2415 6.37336 8.20219 6.98703C8.16288 7.6007 8.27151 8.21485 8.51894 8.7778C8.54285 8.83171 8.56582 8.8814 8.58925 8.92921L9.47003 10.823L11.4636 15.1101C11.5142 15.2191 11.5949 15.3113 11.6961 15.3759C11.7973 15.4405 11.9149 15.4748 12.035 15.4748C12.1551 15.4748 12.2727 15.4405 12.374 15.3759C12.4752 15.3113 12.5559 15.2191 12.6064 15.1101L14.6005 10.823L15.4808 8.92921C15.7427 8.40211 15.8786 7.82139 15.8778 7.2328ZM10.7075 7.22296C10.7471 6.93082 10.8815 6.65974 11.0899 6.45127C11.2984 6.24281 11.5695 6.10849 11.8616 6.0689C11.9199 6.06143 11.9786 6.05767 12.0374 6.05765C12.3796 6.05507 12.7098 6.18339 12.9604 6.41633C13.2111 6.64927 13.3632 6.96922 13.3857 7.31066C13.4081 7.65211 13.2992 7.98923 13.0813 8.253C12.8633 8.51677 12.5527 8.68725 12.2132 8.72952C12.1549 8.73699 12.0961 8.74075 12.0374 8.74077C11.8464 8.74074 11.6577 8.69994 11.4837 8.6211C11.3098 8.54226 11.1547 8.4272 11.0288 8.28361C10.9029 8.14001 10.8091 7.9712 10.7537 7.78845C10.6983 7.6057 10.6826 7.41322 10.7075 7.2239V7.22296Z" fill="black"/>
<path d="M18.9844 10.8229H15.1641L14.0326 13.2759L16.531 14.2307L18.6638 11.6822L18.9066 12.2536L13.1598 19.0462L14.0012 19.8951H13.2849L10.8648 17.4534L6.12804 19.8951H4.77382L10.4766 17.0625L5.45351 12.0661L5.68788 11.5125L12.7984 18.6843L16.0848 14.7623L13.7452 13.8717L13.0684 15.3272C12.9814 15.5141 12.8454 15.6739 12.6748 15.7897C12.5042 15.9054 12.3054 15.9726 12.0995 15.9842C11.8937 15.9958 11.6886 15.9513 11.506 15.8555C11.3235 15.7597 11.1704 15.6161 11.063 15.4401C11.0523 15.4143 11.041 15.389 11.0293 15.3637L9.57991 12.2667L7.66085 11.5373H8.45538L9.24569 11.5481L8.9096 10.8253H5.19241L0.171631 20.6076H23.8285L18.9844 10.8229Z" fill="black"/>
</svg>
