<svg width="24" height="24" viewBox="0 0 24 24" fill="none" xmlns="http://www.w3.org/2000/svg">
<g clip-path="url(#clip0_723_2218)">
<path d="M18.0722 21.0239C18.4046 20.2506 18.576 19.4176 18.576 18.5759C18.576 17.7341 18.4046 16.9012 18.0722 16.1278L15.6722 17.4722C15.8691 18.0828 15.8972 18.7353 15.7535 19.3605C15.6098 19.9858 15.2997 20.5605 14.8561 21.0239L9.04781 21.0708C8.00538 18.9195 7.78355 16.4618 8.42391 14.1586C8.78196 12.7512 9.47328 11.4506 10.4395 10.3664L12.6956 14.3977L13.6073 13.8699L14.6156 15.6938L17.1595 14.1099L16.1517 12.3338L16.9688 11.8561L11.3522 1.39221L6.88781 3.93752L8.85656 7.53752C7.21957 9.13229 6.04225 11.1385 5.44828 13.3453C4.72376 15.887 4.8247 18.593 5.73656 21.0736H1.07812V23.9531H15.4322V24L15.4791 23.9531H22.9219V21.0239H18.0722Z" fill="black"/>
<path d="M11.1601 1.10391L10.584 0L6.07227 2.54391L6.69617 3.64781L11.1601 1.10391Z" fill="black"/>
<path d="M19.0057 13.9677L13.3376 17.2059L13.8615 18.1229L19.5295 14.8846L19.0057 13.9677Z" fill="black"/>
</g>
<defs>
<clipPath id="clip0_723_2218">
<rect width="24" height="24" fill="white"/>
</clipPath>
</defs>
</svg>
