<svg width="24" height="24" viewBox="0 0 24 24" fill="none" xmlns="http://www.w3.org/2000/svg">
<g clip-path="url(#clip0_723_2203)">
<path d="M15.6759 12.5072H8.57764V13.1831H15.6759V12.5072Z" fill="black"/>
<path d="M15.6759 14.3663H8.57764V15.0422H15.6759V14.3663Z" fill="black"/>
<path d="M14.0704 16.1409H8.57764V16.8169H14.0704V16.1409Z" fill="black"/>
<path d="M15.6759 10.6481H8.57764V11.3241H15.6759V10.6481Z" fill="black"/>
<path d="M15.6759 8.87341H8.57764V9.54935H15.6759V8.87341Z" fill="black"/>
<path d="M15.6759 4.22534H12.5493V7.3519H15.6759V4.22534Z" fill="black"/>
<path d="M11.6197 4.22534H8.49316V7.3519H11.6197V4.22534Z" fill="black"/>
<path d="M17.5017 -1.13857e-06H6.5494C6.39739 -0.00348676 6.24618 0.0230275 6.10442 0.0780254C5.96267 0.133023 5.83315 0.215426 5.72326 0.32052C5.61338 0.425615 5.52529 0.55134 5.46403 0.690506C5.40278 0.829671 5.36956 0.979547 5.36627 1.13156C5.36627 1.14891 5.36627 1.16578 5.36627 1.18312V22.8159C5.36278 22.968 5.38931 23.1193 5.44432 23.2612C5.49934 23.403 5.58177 23.5326 5.6869 23.6426C5.79203 23.7525 5.91781 23.8407 6.05703 23.902C6.19626 23.9634 6.3462 23.9967 6.4983 24H17.4506C17.6027 24.0035 17.7539 23.977 17.8956 23.922C18.0374 23.867 18.1669 23.7846 18.2768 23.6795C18.3867 23.5744 18.4748 23.4487 18.536 23.3095C18.5973 23.1703 18.6305 23.0205 18.6338 22.8684C18.6338 22.8511 18.6338 22.8342 18.6338 22.8169V1.18359C18.6372 1.03154 18.6106 0.880296 18.5556 0.738512C18.5005 0.596727 18.4181 0.467177 18.313 0.357262C18.2078 0.247348 18.0821 0.159223 17.9429 0.0979224C17.8037 0.0366219 17.6538 0.00334704 17.5017 -1.13857e-06ZM12.1266 22.8164C11.9761 22.8164 11.829 22.7718 11.7039 22.6882C11.5787 22.6045 11.4812 22.4857 11.4237 22.3467C11.3661 22.2076 11.3511 22.0546 11.3805 21.907C11.4098 21.7594 11.4824 21.6239 11.5888 21.5175C11.6952 21.4111 11.8308 21.3387 11.9785 21.3094C12.1261 21.2801 12.279 21.2952 12.418 21.3529C12.5571 21.4105 12.6758 21.5081 12.7594 21.6333C12.8429 21.7585 12.8875 21.9056 12.8874 22.0561C12.8874 22.156 12.8677 22.2549 12.8294 22.3472C12.7912 22.4394 12.7352 22.5233 12.6645 22.5939C12.5939 22.6645 12.51 22.7205 12.4177 22.7587C12.3254 22.7968 12.2265 22.8165 12.1266 22.8164ZM17.2828 20.1127H6.88736V2.1975H17.2814L17.2828 20.1127Z" fill="black"/>
</g>
<defs>
<clipPath id="clip0_723_2203">
<rect width="24" height="24" fill="white"/>
</clipPath>
</defs>
</svg>
