<svg width="24" height="24" viewBox="0 0 24 24" fill="none" xmlns="http://www.w3.org/2000/svg">
<g clip-path="url(#clip0_723_2236)">
<path d="M13.2651 15.7781C15.725 15.7781 17.7192 13.784 17.7192 11.3241C17.7192 8.86415 15.725 6.87 13.2651 6.87C10.8052 6.87 8.81104 8.86415 8.81104 11.3241C8.81104 13.784 10.8052 15.7781 13.2651 15.7781Z" fill="black"/>
<path d="M18.5476 21.1542C18.6508 21.2673 18.7617 21.373 18.8795 21.4706C18.7617 21.373 18.6508 21.2673 18.5476 21.1542Z" fill="black"/>
<path d="M18.5476 21.1542C18.4941 21.0952 18.4435 21.0338 18.3943 20.9709C18.4435 21.0338 18.4941 21.0938 18.5476 21.1542Z" fill="black"/>
<path d="M20.9078 8.04235C22.6156 8.04235 24.0001 6.65786 24.0001 4.95001C24.0001 3.24216 22.6156 1.85767 20.9078 1.85767C19.1999 1.85767 17.8154 3.24216 17.8154 4.95001C17.8154 6.65786 19.1999 8.04235 20.9078 8.04235Z" fill="black"/>
<path d="M20.9078 22.1025C22.6156 22.1025 24.0001 20.718 24.0001 19.0102C24.0001 17.3023 22.6156 15.9178 20.9078 15.9178C19.1999 15.9178 17.8154 17.3023 17.8154 19.0102C17.8154 20.718 19.1999 22.1025 20.9078 22.1025Z" fill="black"/>
<path d="M3.09234 14.46C4.8002 14.46 6.18469 13.0755 6.18469 11.3677C6.18469 9.65982 4.8002 8.27533 3.09234 8.27533C1.38449 8.27533 0 9.65982 0 11.3677C0 13.0755 1.38449 14.46 3.09234 14.46Z" fill="black"/>
<path d="M8.55012 11.7994C8.53543 11.6494 8.52809 11.4977 8.52809 11.3442C8.52809 11.2064 8.53402 11.0702 8.5459 10.9355H6.43652C6.4766 11.2219 6.47833 11.5125 6.44168 11.7994H8.55012Z" fill="black"/>
<path d="M18.0468 6.76031L16.603 7.97156C16.807 8.17552 16.9922 8.39752 17.1562 8.63485L18.5952 7.42735C18.3848 7.22922 18.2005 7.00507 18.0468 6.76031Z" fill="black"/>
<path d="M20.4505 22.0889C19.8189 21.9944 19.2321 21.7063 18.771 21.2644C19.2321 21.7063 19.8189 21.9944 20.4505 22.0889Z" fill="black"/>
<path d="M18.8802 16.3331L16.9429 14.3962C16.7585 14.6173 16.5545 14.8212 16.3335 15.0056L18.2633 16.9355C18.4428 16.7095 18.6501 16.5072 18.8802 16.3331Z" fill="black"/>
</g>
<defs>
<clipPath id="clip0_723_2236">
<rect width="24" height="24" fill="white"/>
</clipPath>
</defs>
</svg>
