<svg width="24" height="24" viewBox="0 0 24 24" fill="none" xmlns="http://www.w3.org/2000/svg">
<path d="M23.7796 16.8384H0.220215C0.220215 18.5213 1.48209 19.3622 2.74443 19.3622H21.6763C22.9382 19.3622 23.7796 18.1003 23.7796 16.8384Z" fill="black"/>
<path d="M19.5727 4.63782H5.2688V13.8928C5.2688 15.1552 6.53067 15.9966 7.37208 15.9966H16.628C17.8899 15.9966 18.7313 15.1552 18.7313 13.8928V13.0514C21.6765 13.0514 23.3593 10.9481 23.3593 8.84485C23.3593 6.32016 21.6765 4.63782 19.5727 4.63782ZM18.7313 11.3691V6.32016H19.5727C21.2555 6.32016 21.6765 8.00344 21.6765 8.84485C21.6765 10.1067 20.8351 11.3691 18.7313 11.3691Z" fill="black"/>
</svg>
