<svg width="24" height="24" viewBox="0 0 24 24" fill="none" xmlns="http://www.w3.org/2000/svg">
<path d="M6.18422 0V1.99031H4.19391V3.98438H2.20312V24H17.8158V22.0083H19.8075V20.018H21.7969V0H6.18422ZM16.8548 23.0391H3.16266V4.94531H4.19391V22.0083H16.8548V23.0391ZM18.8466 21.0469H5.15625V2.95312H6.1875V20.018H18.8466V21.0469ZM20.8373 19.0566H7.14516V0.960938H20.8373V19.0566Z" fill="black"/>
<path d="M18.9554 3.04175H8.90723V3.80347H18.9554V3.04175Z" fill="black"/>
<path d="M18.9554 7.48596H8.90723V8.24768H18.9554V7.48596Z" fill="black"/>
<path d="M18.9554 5.2439H8.90723V6.00561H18.9554V5.2439Z" fill="black"/>
<path d="M18.9554 9.68811H8.90723V10.4498H18.9554V9.68811Z" fill="black"/>
<path d="M18.9554 11.9297H8.90723V12.6914H18.9554V11.9297Z" fill="black"/>
<path d="M18.9554 14.1319H8.90723V14.8936H18.9554V14.1319Z" fill="black"/>
<path d="M13.9913 16.3744H8.90674V17.1352H13.9913V16.3744Z" fill="black"/>
</svg>
