<svg width="24" height="24" viewBox="0 0 24 24" fill="none" xmlns="http://www.w3.org/2000/svg">
<path d="M16.5 17.625V3.375L16.5469 1.125L4.5 3.375V17.1872C4.0269 16.9807 3.51618 16.8745 3 16.875C1.34297 16.875 0 17.8823 0 19.125C0 20.3677 1.34297 21.375 3 21.375C4.65703 21.375 6 20.3677 6 19.125V5.34375L15 3.65625V15.6872C14.5269 15.4807 14.0162 15.3745 13.5 15.375C11.843 15.375 10.5 16.3823 10.5 17.625C10.5 18.8677 11.843 19.875 13.5 19.875C15.157 19.875 16.5 18.8677 16.5 17.625Z" fill="black"/>
<path d="M22.5 4.875V18.6872C22.0269 18.4807 21.5162 18.3745 21 18.375C19.343 18.375 18 19.3823 18 20.625C18 21.8677 19.343 22.875 21 22.875C22.657 22.875 24 21.8677 24 20.625V4.875H22.5Z" fill="black"/>
</svg>
