<svg width="24" height="24" viewBox="0 0 24 24" fill="none" xmlns="http://www.w3.org/2000/svg">
<path d="M23.2336 7.13763H7.52109L7.13766 7.90404H6.37125V8.67185H5.98781C5.3175 9.43873 3.73781 9.43873 3.73781 9.43873V10.1569H3.01781L2.25 10.9219H1.485C1.2976 11.1343 1.06977 11.3073 0.814814 11.4307C0.559854 11.5542 0.282864 11.6256 0 11.6409L0 12.7425H3.01781C4.50281 11.9761 8.8125 12.1678 8.8125 12.1678L9.7725 13.125H12.7903L15.8086 16.8614H17.2453L19.4953 14.6114L20.9803 13.845H22.5131V13.0781L21.75 13.5089H20.9822L20.2158 12.7425L20.9822 13.125L22.0837 12.5498V11.9761H21.7031L20.9363 11.2097L21.7031 11.5926H23.1881L23.9531 10.8281V9.34123H23.5687V10.8281H23.1858V9.34123H21.7031L23.1881 8.57482H24V7.90404L23.2336 7.13763ZM17.8683 12.4073L16.4789 11.3531L15.09 12.4073L15.6169 10.6828L14.2275 9.62857H15.952L16.4789 7.90404L17.0058 9.62857H18.7303L17.3438 10.6828L17.8683 12.4073Z" fill="black"/>
</svg>
