<svg width="24" height="24" viewBox="0 0 24 24" fill="none" xmlns="http://www.w3.org/2000/svg">
<path d="M9.4777 8.75903H7.89661C7.93603 9.59918 8.23183 10.4071 8.74421 11.0741C9.25658 11.7411 9.96095 12.2352 10.7625 12.4898C10.5318 12.2555 10.3365 11.9888 10.1827 11.6981C9.75004 10.9045 9.50301 9.86669 9.4777 8.75903Z" fill="black"/>
<path d="M19.5168 0H3.21606V24H19.5168C19.5168 24 20.7825 23.9761 20.7825 22.7344V1.26562C20.7825 1.26562 20.6526 0 19.5168 0ZM16.4808 17.6283H7.51919V16.3678H16.4808V17.6283ZM12 13.0533C11.1136 13.0534 10.2472 12.7906 9.51015 12.2983C8.77314 11.8059 8.19869 11.106 7.85946 10.2871C7.52022 9.46829 7.43144 8.56722 7.60433 7.6979C7.77723 6.82858 8.20404 6.03005 8.83078 5.40331C9.45752 4.77657 10.256 4.34976 11.1254 4.17686C11.9947 4.00397 12.8958 4.09275 13.7146 4.43199C14.5335 4.77122 15.2334 5.34566 15.7257 6.08267C16.2181 6.81968 16.4808 7.68615 16.4808 8.5725C16.4794 9.76046 16.0069 10.8994 15.1669 11.7394C14.3268 12.5794 13.1879 13.0519 12 13.0533Z" fill="black"/>
<path d="M10.1827 5.4464C10.3366 5.15595 10.5319 4.88942 10.7625 4.65515C9.96088 4.9097 9.25644 5.40373 8.74405 6.07075C8.23165 6.73776 7.9359 7.54574 7.89661 8.38593H9.4777C9.50301 7.27781 9.75004 6.24 10.1827 5.4464Z" fill="black"/>
<path d="M10.5104 5.62499C10.1072 6.36515 9.87521 7.33968 9.85083 8.38593H11.8125V4.48077C11.3288 4.56234 10.8718 4.96124 10.5104 5.62499Z" fill="black"/>
<path d="M10.5104 11.52C10.8718 12.1837 11.3288 12.5822 11.8135 12.6642V8.75903H9.85083C9.87521 9.80481 10.1072 10.7812 10.5104 11.52Z" fill="black"/>
<path d="M13.2375 4.65515C13.4681 4.88942 13.6635 5.15595 13.8174 5.4464C14.2491 6.24 14.4971 7.27781 14.5205 8.38593H16.1016C16.0625 7.54598 15.767 6.73816 15.2549 6.07117C14.7429 5.40418 14.0389 4.91001 13.2375 4.65515Z" fill="black"/>
<path d="M13.8174 11.6981C13.6636 11.9888 13.4683 12.2555 13.2375 12.4898C14.0391 12.2352 14.7435 11.7411 15.2559 11.0741C15.7683 10.4071 16.0641 9.59918 16.1035 8.75903H14.5224C14.4971 9.86669 14.25 10.9045 13.8174 11.6981Z" fill="black"/>
<path d="M13.4896 5.62499C13.1282 4.96124 12.6712 4.56234 12.1865 4.48077V8.38593H14.1492C14.1248 7.33968 13.8928 6.36515 13.4896 5.62499Z" fill="black"/>
<path d="M14.1492 8.75903H12.1875V12.6642C12.6722 12.5822 13.1292 12.1837 13.4906 11.52C13.8928 10.7812 14.1248 9.80481 14.1492 8.75903Z" fill="black"/>
</svg>
