<svg width="24" height="24" viewBox="0 0 24 24" fill="none" xmlns="http://www.w3.org/2000/svg">
<g clip-path="url(#clip0_723_2183)">
<path d="M23.9462 3.41718H2.74463V18.1612H24.0001L23.9462 3.41718ZM22.8681 16.9776H3.82088V4.49343H22.816L22.8699 4.86843L22.8681 16.9776Z" fill="black"/>
<path d="M13.3454 11.6503L10.1167 7.02234L5.1123 15.5245H20.2871L15.5518 9.33656L13.3454 11.6503Z" fill="black"/>
<path d="M18.4574 9.17483C19.3193 9.17483 20.0179 8.47619 20.0179 7.61436C20.0179 6.75254 19.3193 6.05389 18.4574 6.05389C17.5956 6.05389 16.897 6.75254 16.897 7.61436C16.897 8.47619 17.5956 9.17483 18.4574 9.17483Z" fill="black"/>
<path d="M22.4395 18.7533H21.3094V19.4531H1.13016V6.96843H1.99125V5.83875H1.13016H0V6.96843V19.4531V20.5289V20.5828H22.4395V19.4531V18.7533Z" fill="black"/>
</g>
<defs>
<clipPath id="clip0_723_2183">
<rect width="24" height="24" fill="white"/>
</clipPath>
</defs>
</svg>
