<svg width="24" height="24" viewBox="0 0 24 24" fill="none" xmlns="http://www.w3.org/2000/svg">
<path d="M23.4999 8.625C23.096 8.87063 22.7808 9.23836 22.5999 9.675C22.8992 9.86805 23.1688 10.1038 23.4 10.3748C23.5032 10.0205 23.7126 9.70636 24 9.47484L23.4999 8.625Z" fill="black"/>
<path d="M6 21.9248H9.15V19.3748C8.03973 19.035 6.98022 18.5474 6 17.925V21.9248Z" fill="black"/>
<path d="M14.6499 21.8751H17.7999V17.925C16.8394 18.5715 15.7734 19.0453 14.6499 19.3251V21.8751Z" fill="black"/>
<path d="M21.2498 9.87513C21.0981 9.86676 20.9461 9.88355 20.7998 9.92482C20.1 6.27513 16.4498 3.47482 12.0998 3.47482C10.9228 3.46222 9.75349 3.66558 8.64984 4.07482L4.65 2.07513V7.07482C4.04305 7.91115 3.61726 8.86491 3.39984 9.87513H0V14.025H3.9C5.15016 16.9251 8.34984 19.0251 12.15 19.0251C15.9502 19.0251 19.2502 16.875 20.4502 13.8248C20.7185 13.944 21.0067 14.0119 21.3 14.025C21.8429 14.0224 22.3627 13.8056 22.7466 13.4217C23.1305 13.0379 23.3473 12.518 23.3498 11.9751C23.3384 11.4218 23.1134 10.8943 22.722 10.5029C22.3307 10.1116 21.8032 9.88663 21.2498 9.87513ZM7.02 10.425H6.99984C6.84159 10.425 6.68689 10.378 6.5553 10.2901C6.42372 10.2022 6.32116 10.0772 6.2606 9.93103C6.20003 9.78482 6.18419 9.62393 6.21506 9.46872C6.24594 9.3135 6.32214 9.17093 6.43405 9.05903C6.54595 8.94712 6.68853 8.87091 6.84374 8.84004C6.99896 8.80917 7.15984 8.82501 7.30605 8.88557C7.45226 8.94614 7.57723 9.04869 7.66515 9.18028C7.75307 9.31186 7.8 9.46657 7.8 9.62482C7.80136 9.72859 7.78226 9.8316 7.7438 9.92798C7.70533 10.0244 7.64824 10.1122 7.57581 10.1865C7.50337 10.2608 7.417 10.3201 7.32163 10.3611C7.22626 10.402 7.12377 10.4237 7.02 10.425ZM12.6347 14.9601C12.5082 14.9871 12.378 14.9922 12.2498 14.9751V15.525H11.7502V14.925C11.6169 14.8981 11.4905 14.8444 11.3787 14.767C11.2669 14.6896 11.1721 14.5902 11.1 14.475V14.925H10.4002V13.3251H11.1502C11.1502 13.7751 11.3002 14.2748 11.7502 14.3751V12.9248L11.4998 12.825C10.8998 12.5751 10.4498 12.3248 10.4498 11.625C10.4252 11.2917 10.5339 10.9623 10.7521 10.7091C10.9702 10.4559 11.28 10.2998 11.6133 10.275C11.6757 10.2702 11.7384 10.2702 11.8008 10.275V9.72513H12.3V10.3251C12.5256 10.3875 12.721 10.5296 12.8498 10.725V10.3748H13.5V11.8748H12.75C12.6998 11.325 12.5498 11.025 12.2002 10.9251V12.2751L12.45 12.375C12.7468 12.4637 13.0202 12.6174 13.2502 12.825C13.4288 13.052 13.5177 13.3368 13.5 13.6251C13.5623 13.9169 13.5061 14.2215 13.3438 14.4718C13.1815 14.7222 12.9265 14.8978 12.6347 14.9601ZM14.55 6.27513C13.7261 5.93392 12.8415 5.76376 11.9498 5.77498C11.0583 5.7637 10.1738 5.93387 9.35016 6.27513V5.22513C10.1738 4.88387 11.0583 4.7137 11.9498 4.72498C12.8415 4.71376 13.7261 4.88392 14.55 5.22513V6.27513ZM21.3 12.9783C21.2827 12.9783 21.2658 12.9783 21.2484 12.9783C21.0554 12.9755 20.8663 12.9239 20.6986 12.8283C20.8172 12.3028 20.8842 11.7669 20.8988 11.2284V10.9781C21.0096 10.9334 21.1296 10.9163 21.2484 10.9284C21.5265 10.9296 21.7929 11.0407 21.9895 11.2373C22.1862 11.434 22.2972 11.7003 22.2984 11.9784C22.2979 12.2428 22.1928 12.4962 22.0059 12.6832C21.8191 12.8702 21.5658 12.9756 21.3014 12.9764L21.3 12.9783Z" fill="black"/>
<path d="M12.2498 13.125V14.3752C12.3817 14.3411 12.4982 14.2631 12.58 14.1541C12.6617 14.045 12.704 13.9114 12.6998 13.7752C12.7499 13.3748 12.5498 13.2248 12.2498 13.125Z" fill="black"/>
<path d="M11.3 11.475C11.3 11.8252 11.4997 11.9752 11.7997 12.075V10.875C11.6999 10.875 11.6 10.9748 11.4997 11.025C11.384 11.148 11.3136 11.3067 11.3 11.475Z" fill="black"/>
</svg>
