<svg width="24" height="24" viewBox="0 0 24 24" fill="none" xmlns="http://www.w3.org/2000/svg">
<g clip-path="url(#clip0_723_2258)">
<path d="M8.41211 24H15.5877L16.5721 13.2361H7.42773L8.41211 24Z" fill="black"/>
<path d="M16.4401 6.44389L14.0879 5.42389L13.164 5.01561C13.0785 5.06445 12.9904 5.10842 12.9001 5.14732C12.8083 5.19379 12.7118 5.23009 12.6122 5.25561H12.6001C12.5013 5.28122 12.4011 5.30125 12.3001 5.31561C12.0933 5.34748 11.8829 5.34748 11.6762 5.31561C11.5238 5.29404 11.3747 5.25373 11.2322 5.19561C11.0957 5.14134 10.9633 5.07711 10.8362 5.00342L9.88787 5.42529L7.56006 6.44529V8.35357H16.4401V6.44389Z" fill="black"/>
<path d="M12.8999 5.13608C12.9913 5.09911 13.0795 5.05491 13.1638 5.00389L14.0877 5.41217L13.176 4.9903C13.078 5.03998 12.996 5.0878 12.8999 5.13608Z" fill="black"/>
<path d="M12.0001 4.56C13.0538 4.56 13.9079 3.53921 13.9079 2.28C13.9079 1.02079 13.0538 0 12.0001 0C10.9464 0 10.0923 1.02079 10.0923 2.28C10.0923 3.53921 10.9464 4.56 12.0001 4.56Z" fill="black"/>
<path d="M5.63989 8.98779L6.27599 12.6H17.7238L18.3599 8.98779H5.63989Z" fill="black"/>
</g>
<defs>
<clipPath id="clip0_723_2258">
<rect width="24" height="24" fill="white"/>
</clipPath>
</defs>
</svg>
