<svg width="24" height="24" viewBox="0 0 24 24" fill="none" xmlns="http://www.w3.org/2000/svg">
<path d="M23.9761 15.7969V15.7711C23.9565 13.415 23.2423 11.117 21.9229 9.16477C20.6036 7.21257 18.7377 5.69294 16.5588 4.7961C14.3799 3.89927 11.9849 3.66508 9.67362 4.12286C7.3623 4.58065 5.23737 5.71005 3.56484 7.3697C2.4515 8.46851 1.56566 9.77602 0.958001 11.2174C0.350338 12.6589 0.0327637 14.2059 0.0234375 15.7702V15.8002H0.0285938V20.1052H1.93875V17.0414H2.83641V20.1052H4.01484V18.8288H4.9125V20.1052H6.14297V18.8288H7.04062V20.1052H8.38688V17.0414H9.28453V20.1052H10.5745V18.8288H11.4722V20.1052H12.7031V18.8288H13.6008V20.1052H14.7258V17.0414H15.623V20.1052H16.8019V18.8288H17.6991V20.1052H18.93V18.8288H19.8281V20.1052H21.1744V17.0414H22.0716V20.1052H23.9766V15.7969H23.9761ZM4.55438 15.7969C4.57637 13.8367 5.3705 11.9642 6.76444 10.5858C8.15837 9.20741 10.0396 8.43434 12 8.43434C13.9604 8.43434 15.8416 9.20741 17.2356 10.5858C18.6295 11.9642 19.4236 13.8367 19.4456 15.7969H4.55438Z" fill="black"/>
</svg>
