<svg width="24" height="24" viewBox="0 0 24 24" fill="none" xmlns="http://www.w3.org/2000/svg">
<path d="M0 12.8573H0.857344V18H2.57156V12.8573H4.28578V18H6V12.8573H7.71422V18H9.42844V12.8573H11.1427V18H12.8573V12.8573H14.5716V18H16.2858V12.8573H18V18H19.7142V12.8573H21.4284V18H23.1427V12.8573H24V12H0V12.8573Z" fill="black"/>
<path d="M24 18.8574H0V20.5716H24V18.8574Z" fill="black"/>
<path d="M16.2857 6.00003H15.4283C15.0561 5.25915 14.455 4.65801 13.7141 4.28581V3.42847H10.2857V4.28581C9.54313 4.6557 8.94135 5.25749 8.57145 6.00003H7.71411V6.85737H16.2857V6.00003Z" fill="black"/>
<path d="M17.1427 9.42845V7.71423H6.85734V9.42845H0V11.1427H24V9.42845H17.1427Z" fill="black"/>
</svg>
