<svg width="24" height="24" viewBox="0 0 24 24" fill="none" xmlns="http://www.w3.org/2000/svg">
<g clip-path="url(#clip0_723_2215)">
<path d="M14.9761 15.0239L13.3922 14.5922L11.9522 15.6L10.56 14.64L8.92784 15.0239L7.92003 13.5839L6.28784 23.2322L9.02394 21.2161L10.9439 24L11.9522 18.0961L13.0078 24L14.9278 21.12L17.6639 23.1361L15.9361 13.4878L14.9761 15.0239Z" fill="black"/>
<path d="M12 10.8961C13.9352 10.8961 15.5039 9.32737 15.5039 7.39221C15.5039 5.45706 13.9352 3.88831 12 3.88831C10.0648 3.88831 8.49609 5.45706 8.49609 7.39221C8.49609 9.32737 10.0648 10.8961 12 10.8961Z" fill="black"/>
<path d="M19.3923 7.39219L18.384 6.14391L18.8162 4.60781L17.3279 3.84L17.2342 2.16L15.6479 1.96875L14.8801 0.576094L13.2962 1.10391L12.047 0L10.7523 1.00781L9.21619 0.576094L8.44791 2.0625L6.76791 2.15625L6.57619 3.74016L5.184 4.50844L5.71229 6.09234L4.60791 7.34391L5.61619 8.59219L5.184 10.1278L6.67228 10.8961L6.76603 12.5761L8.35041 12.7678L9.11822 14.16L10.7021 13.6322L11.9532 14.7361L13.201 13.7278L14.7371 14.16L15.5049 12.6722L17.1849 12.5784L17.3771 10.9945L18.7688 10.2262L18.241 8.64234L19.3923 7.39219ZM12.0001 11.4703C11.1935 11.4703 10.4051 11.2311 9.73441 10.783C9.06377 10.3349 8.54106 9.698 8.2324 8.95282C7.92374 8.20764 7.84298 7.38766 8.00033 6.59658C8.15769 5.80551 8.54609 5.07885 9.11643 4.50852C9.68676 3.93818 10.4134 3.54978 11.2045 3.39242C11.9956 3.23507 12.8155 3.31583 13.5607 3.62449C14.3059 3.93315 14.9428 4.45586 15.3909 5.1265C15.839 5.79715 16.0782 6.58561 16.0782 7.39219C16.0785 7.92789 15.9732 8.4584 15.7683 8.95339C15.5635 9.44839 15.2631 9.89818 14.8844 10.2771C14.5057 10.656 14.0561 10.9565 13.5612 11.1616C13.0663 11.3666 12.5358 11.4722 12.0001 11.4722V11.4703Z" fill="black"/>
</g>
<defs>
<clipPath id="clip0_723_2215">
<rect width="24" height="24" fill="white"/>
</clipPath>
</defs>
</svg>
