<svg width="24" height="24" viewBox="0 0 24 24" fill="none" xmlns="http://www.w3.org/2000/svg">
<g clip-path="url(#clip0_723_2194)">
<path d="M6.72797 17.0972C6.16958 16.5833 5.43842 16.298 4.67953 16.298C3.92064 16.298 3.18948 16.5833 2.63109 17.0972C1.82813 17.8997 1.77328 19.3238 1.64062 19.8127L2.75578 19.65L2.27484 21.7252L4.35 21.2461L4.19016 22.3641C4.67953 22.23 6.10359 22.1738 6.90609 21.3722C7.4493 20.7817 7.7357 19.9995 7.7023 19.1978C7.66889 18.3961 7.31842 17.6405 6.72797 17.0972ZM6.24469 19.0782C5.64703 19.6758 4.26 19.7396 4.26 19.7396C4.26 19.7396 4.30219 18.375 4.92188 17.7558C5.18906 17.4877 5.71031 17.22 6.24516 17.7558C6.78 18.2916 6.51234 18.8114 6.24469 19.0782Z" fill="black"/>
<path d="M10.6561 16.2112L7.78872 13.3444L5.58325 14.4464L9.55356 18.4172L10.6561 16.2112Z" fill="black"/>
<path d="M23.4492 0.550767C21.3141 -1.58533 13.3242 2.93577 9.60516 6.49217L5.58328 5.18295L0 12.8344L1.67484 14.5087L4.46625 11.7187L7.05984 11.9531L12.2002 17.0934L12.2812 19.5337L9.48984 22.3251L11.1661 24L18.8161 18.4172L17.5078 14.3948C21.0642 10.68 25.5844 2.68686 23.4492 0.550767ZM15.4687 8.53358C15.1375 8.20224 14.9119 7.78012 14.8205 7.32057C14.7291 6.86103 14.776 6.38471 14.9554 5.95184C15.1347 5.51898 15.4383 5.149 15.8279 4.8887C16.2175 4.6284 16.6755 4.48947 17.1441 4.48947C17.6126 4.48947 18.0706 4.6284 18.4602 4.8887C18.8498 5.149 19.1534 5.51898 19.3328 5.95184C19.5121 6.38471 19.559 6.86103 19.4676 7.32057C19.3762 7.78012 19.1507 8.20224 18.8194 8.53358C18.3747 8.97752 17.7719 9.22667 17.1436 9.22623C16.5152 9.22579 15.9128 8.9758 15.4687 8.53123V8.53358Z" fill="black"/>
</g>
<defs>
<clipPath id="clip0_723_2194">
<rect width="24" height="24" fill="white"/>
</clipPath>
</defs>
</svg>
