<svg width="24" height="24" viewBox="0 0 24 24" fill="none" xmlns="http://www.w3.org/2000/svg">
<g clip-path="url(#clip0_723_2207)">
<path d="M3.49688 14.7544L4.88625 14.6606L2.15625 10.5867L0 14.9461L1.485 14.8524C2.00852 16.7508 3.03842 18.4712 4.46448 19.8294C5.89053 21.1876 7.65905 22.1324 9.58078 22.5628L10.012 20.6466C8.5027 20.3267 7.10489 19.6131 5.9606 18.5783C4.8163 17.5434 3.96628 16.2241 3.49688 14.7544Z" fill="black"/>
<path d="M14.7543 20.5032L14.6606 19.1138L10.5867 21.8438L14.946 24L14.8523 22.515C16.7537 21.9815 18.4748 20.9424 19.8326 19.5084C21.1903 18.0744 22.1339 16.2991 22.5628 14.3714L20.6465 13.9402C20.3275 15.4553 19.6149 16.8597 18.5805 18.0118C17.5461 19.164 16.2264 20.0233 14.7543 20.5032Z" fill="black"/>
<path d="M20.5032 9.24565L19.1138 9.3394L21.8438 13.4133L24 9.05394L22.515 9.14769C21.9833 7.24037 20.9457 5.51234 19.5121 4.14656C18.0785 2.78079 16.3023 1.82811 14.3714 1.3894L13.9402 3.30565C15.4549 3.64247 16.8562 4.36702 18.0067 5.4083C19.1572 6.44959 20.0174 7.77189 20.5032 9.24565Z" fill="black"/>
<path d="M9.24565 3.49688L9.3394 4.88625L13.4133 2.15625L9.05394 0L9.10081 1.485C7.20994 2.02349 5.49765 3.05823 4.14164 4.48182C2.78564 5.90541 1.83535 7.66597 1.3894 9.58078L3.30565 10.012C3.64365 8.50326 4.36933 7.10874 5.41103 5.96616C6.45274 4.82359 7.77445 3.97248 9.24565 3.49688Z" fill="black"/>
<path d="M11.4015 18.7303H12.5031V17.4844C14.3715 17.4375 15.617 16.335 15.617 14.3709C15.6707 14.0289 15.6469 13.6791 15.5474 13.3474C15.4478 13.0157 15.2751 12.7107 15.0418 12.4547C14.5076 11.9539 13.869 11.5777 13.172 11.3531L12.549 11.1136V8.00016C13.3637 8.23969 13.6988 8.95829 13.7467 10.2502H15.4234V6.8025H13.7963V7.66454C13.486 7.2183 13.0279 6.89605 12.5031 6.75469V5.3175H11.4015V6.60938C9.48525 6.60938 8.2876 7.80704 8.2876 9.67547C8.2876 11.3517 9.34135 11.9747 10.7307 12.5016L11.4015 12.7889V16.0945C10.3473 15.855 10.0121 14.753 10.0121 13.6514H8.2876V17.2922H9.91603V16.2877C10.0606 16.5745 10.2703 16.8236 10.5282 17.0151C10.7861 17.2065 11.0851 17.3352 11.4015 17.3906V18.7303ZM12.5509 13.1719C12.8767 13.256 13.1639 13.4493 13.3644 13.7195C13.565 13.9898 13.6668 14.3206 13.6529 14.6569C13.6509 14.9783 13.5413 15.2898 13.3415 15.5416C13.1418 15.7935 12.8634 15.9711 12.5509 16.0463V13.1719ZM10.3009 9.29157C10.3017 9.10355 10.3403 8.91762 10.4144 8.74481C10.4884 8.572 10.5965 8.41585 10.7321 8.28563C10.9292 8.12714 11.1579 8.0127 11.4029 7.95001V10.6613C10.7996 10.4227 10.2995 10.0402 10.2995 9.29344L10.3009 9.29157Z" fill="black"/>
</g>
<defs>
<clipPath id="clip0_723_2207">
<rect width="24" height="24" fill="white"/>
</clipPath>
</defs>
</svg>
