<svg width="24" height="24" viewBox="0 0 24 24" fill="none" xmlns="http://www.w3.org/2000/svg">
<g clip-path="url(#clip0_723_2176)">
<path d="M22.5408 17.6728L20.0714 20.1427L19.3448 19.4166L21.8152 16.9462L20.8617 15.9919L19.8417 17.0123L19.1152 16.2863L20.1361 15.2653L19.1409 14.2687L18.1195 15.2902L17.393 14.5641L18.4148 13.5422L17.3264 12.4519L14.8533 14.925L14.1272 14.1984L16.6003 11.7253L15.5569 10.6809L14.5336 11.7042L13.807 10.9781L14.8312 9.95391L13.8361 8.95781L12.8114 9.98203L12.0853 9.25594L13.11 8.23078L12.2011 7.32094L9.72515 9.79688L8.99906 9.07031L11.4755 6.59437L10.522 5.64L9.49546 6.66656L8.76937 5.94L9.7964 4.91297L8.80124 3.91687L7.77375 4.94438L7.04718 4.21828L8.07562 3.18984L6.98671 2.1L4.5075 4.57922L3.7814 3.85266L6.26062 1.37344L4.98281 0.09375L0.108276 4.97438L19.0172 23.9062L23.8917 19.0256L22.5408 17.6728Z" fill="black" stroke="black" stroke-width="0.046875" stroke-miterlimit="10"/>
</g>
<defs>
<clipPath id="clip0_723_2176">
<rect width="24" height="24" fill="white"/>
</clipPath>
</defs>
</svg>
