<svg width="24" height="24" viewBox="0 0 24 24" fill="none" xmlns="http://www.w3.org/2000/svg">
<g clip-path="url(#clip0_723_2232)">
<path d="M20.1369 19.68C20.0994 19.5609 20.0572 19.4428 20.0099 19.3247C19.9414 19.1568 19.8631 18.9931 19.7755 18.8344C19.7582 18.8025 19.7408 18.7697 19.7225 18.7383C19.6387 18.591 19.5463 18.4487 19.446 18.3122C19.4277 18.2887 19.4094 18.2653 19.3911 18.2428C19.2983 18.1215 19.1991 18.0052 19.0939 17.8945C19.0794 17.879 19.0649 17.8626 19.0494 17.8476C18.9379 17.7352 18.8197 17.6295 18.6955 17.5312C18.6683 17.5111 18.6416 17.4895 18.6149 17.4703C18.4925 17.3769 18.3641 17.2917 18.2305 17.2153C18.2182 17.2081 18.2056 17.2017 18.1925 17.1961C18.0702 17.1286 17.9435 17.0692 17.8133 17.0184L17.7355 16.9875C17.6021 16.9395 17.4653 16.9014 17.3263 16.8736C17.2996 16.8675 17.2719 16.8647 17.2438 16.86C17.1107 16.8362 16.9759 16.8233 16.8407 16.8215H16.813C16.6819 16.8229 16.5512 16.8351 16.4221 16.8581L16.326 16.8764C16.195 16.9028 16.0665 16.9406 15.9421 16.9894C15.5601 17.1476 15.2257 17.4023 14.9718 17.7286L13.8491 13.8004L13.3593 12.9844C15.4916 9.54326 18.545 4.46013 18.545 3.59998C18.545 2.27998 17.945 0.599976 17.945 0.599976L11.9825 10.6875L5.94692 0.599976C5.94692 0.599976 5.34692 2.27998 5.34692 3.59998C5.34692 4.46388 8.4566 9.56248 10.6175 13.0078L10.1488 13.8047L9.0191 17.7281C8.76461 17.403 8.43012 17.1494 8.04832 16.9922C7.92387 16.9433 7.79542 16.9054 7.66442 16.8787L7.57067 16.8604C7.44168 16.838 7.31112 16.8257 7.1802 16.8239H7.15348C7.01781 16.8256 6.88252 16.8385 6.74895 16.8623C6.72129 16.867 6.69457 16.8698 6.66645 16.8759C6.52722 16.9045 6.39028 16.9434 6.25676 16.9922L6.17989 17.0226C6.04806 17.0731 5.91979 17.1325 5.79598 17.2003C5.78346 17.206 5.77125 17.2125 5.75942 17.2195C5.62517 17.2948 5.49627 17.3792 5.37364 17.4722L5.29254 17.5312C5.16781 17.6294 5.04915 17.7351 4.93723 17.8476C4.92176 17.8631 4.90817 17.8795 4.89411 17.8945C4.79086 18.0062 4.69369 18.1234 4.60301 18.2456C4.58567 18.269 4.56739 18.2925 4.54911 18.314C4.44961 18.4511 4.35745 18.5933 4.27301 18.7401C4.25473 18.7711 4.23832 18.8034 4.22098 18.8362C4.13264 18.9946 4.05436 19.1583 3.98661 19.3265C3.75824 19.885 3.64503 20.4839 3.65379 21.0872C3.65864 21.4178 3.7067 21.7464 3.79676 22.0645C3.82629 22.1662 3.86098 22.2651 3.89942 22.3622C3.95154 22.4914 4.01279 22.6167 4.0827 22.7372C4.16205 22.8792 4.25365 23.0141 4.35645 23.1403C4.69028 23.5547 5.15859 23.8393 5.6802 23.9447C5.71207 23.9508 5.74254 23.9573 5.77395 23.962C5.90313 23.9854 6.03408 23.9976 6.16535 23.9986H6.19254C6.32805 23.9968 6.46319 23.9839 6.5966 23.9601L6.67911 23.9456C6.81785 23.9183 6.95434 23.8805 7.08739 23.8326C7.1141 23.8228 7.13895 23.8115 7.16473 23.8008C7.29678 23.7508 7.42521 23.6917 7.54911 23.624L7.58754 23.6048C7.72064 23.5278 7.84885 23.4426 7.97145 23.3498C7.99817 23.3297 8.02489 23.3095 8.05114 23.2879C8.17593 23.19 8.29445 23.0843 8.40598 22.9715C8.42145 22.957 8.43504 22.9397 8.44957 22.9247C8.55546 22.8142 8.65514 22.6979 8.74817 22.5764C8.76504 22.5534 8.78426 22.5295 8.80254 22.507C8.89814 22.3692 8.98624 22.2263 9.06645 22.079C9.08473 22.0472 9.10207 22.0158 9.11942 21.9829C9.20682 21.8244 9.28508 21.661 9.35379 21.4936C9.49041 21.1571 9.58701 20.8058 9.64161 20.4469L11.3436 16.199C11.3436 16.199 11.5907 15.8151 11.991 15.1767C12.3969 15.8123 12.6472 16.199 12.6472 16.199L14.3455 20.4478C14.3998 20.8069 14.4965 21.1583 14.6338 21.4945C14.7023 21.6621 14.7806 21.8255 14.8682 21.9839C14.885 22.0167 14.9014 22.0481 14.9207 22.08C15.0047 22.2269 15.097 22.3688 15.1972 22.5051C15.2146 22.529 15.2329 22.552 15.2511 22.5745C15.344 22.6959 15.4433 22.8122 15.5488 22.9228C15.5638 22.9383 15.5774 22.9556 15.5929 22.9697C15.7044 23.0826 15.8229 23.1885 15.9477 23.2865C15.9739 23.3076 16.0007 23.3278 16.0279 23.3479C16.1502 23.4413 16.2784 23.5266 16.4118 23.6034L16.4493 23.6226C16.5729 23.6906 16.7012 23.7497 16.8332 23.7994C16.8589 23.8097 16.8847 23.8214 16.911 23.8312C17.0439 23.879 17.1802 23.9167 17.3188 23.9442L17.4022 23.9587C17.5354 23.9823 17.6702 23.9951 17.8054 23.9972H17.8325C17.9638 23.9958 18.0947 23.9835 18.2239 23.9606C18.2558 23.9559 18.2863 23.9489 18.32 23.9433C18.4511 23.9163 18.5795 23.878 18.7039 23.8289C19.162 23.6408 19.5511 23.3165 19.8186 22.8998C19.9306 22.7298 20.0249 22.5487 20.0999 22.3594C20.1388 22.2619 20.1727 22.1626 20.2016 22.0617C20.2915 21.7448 20.3396 21.4175 20.3446 21.0881C20.3522 20.6106 20.2821 20.135 20.1369 19.68ZM8.47207 21.1406H8.46692C8.01598 22.2609 7.07004 23.0433 6.17004 23.0433C5.99284 23.0453 5.81688 23.0134 5.65161 22.9495C4.67754 22.5562 4.32036 21.0661 4.87348 19.695C5.32536 18.5737 6.27082 17.7914 7.17739 17.7904C7.35463 17.7879 7.53068 17.8198 7.69582 17.8842C8.13457 18.0609 8.46364 18.4678 8.62957 19.0294C8.81239 19.6626 8.75614 20.4309 8.47207 21.1406ZM11.9408 13.8033C11.8222 13.8033 11.7062 13.7681 11.6075 13.7021C11.5088 13.6362 11.4319 13.5425 11.3865 13.4329C11.3411 13.3232 11.3292 13.2026 11.3524 13.0862C11.3755 12.9698 11.4326 12.8629 11.5166 12.779C11.6005 12.6951 11.7074 12.6379 11.8238 12.6148C11.9402 12.5916 12.0608 12.6035 12.1704 12.6489C12.2801 12.6943 12.3738 12.7712 12.4397 12.8699C12.5056 12.9686 12.5408 13.0846 12.5408 13.2033C12.5402 13.3617 12.4769 13.5135 12.3648 13.6255C12.2526 13.7375 12.1007 13.8005 11.9422 13.8009L11.9408 13.8033ZM18.4096 22.9439C18.2444 23.008 18.0684 23.0399 17.8911 23.0376C16.9888 23.0376 16.0429 22.2553 15.5868 21.134C15.2989 20.4309 15.246 19.6612 15.4307 19.0219C15.5947 18.4594 15.9257 18.0534 16.3654 17.8767C16.5294 17.8117 16.7045 17.7791 16.881 17.7806C17.7833 17.7806 18.7302 18.5639 19.1849 19.6851C19.7413 21.0586 19.385 22.5469 18.4096 22.942V22.9439Z" fill="black"/>
<path d="M12.2455 17.4H11.6455V19.2H12.2455V17.4Z" fill="black"/>
<path d="M12.2455 19.8H11.6455V21.6H12.2455V19.8Z" fill="black"/>
<path d="M12.2516 22.2H11.6516V24H12.2516V22.2Z" fill="black"/>
<path d="M12.2455 2.40002H11.6455V4.20002H12.2455V2.40002Z" fill="black"/>
<path d="M12.2455 0H11.6455V1.8H12.2455V0Z" fill="black"/>
<path d="M12.2455 4.79999H11.6455V6.59999H12.2455V4.79999Z" fill="black"/>
<path d="M12.2516 7.20001H11.6516V9.00001H12.2516V7.20001Z" fill="black"/>
</g>
<defs>
<clipPath id="clip0_723_2232">
<rect width="24" height="24" fill="white"/>
</clipPath>
</defs>
</svg>
