<svg width="24" height="24" viewBox="0 0 24 24" fill="none" xmlns="http://www.w3.org/2000/svg">
<path d="M17.563 0H8.5752V3.74109H17.563V0Z" fill="black"/>
<path d="M17.563 20.2589H8.5752V24H17.563V20.2589Z" fill="black"/>
<path d="M5.56323 4.51831V19.5305H20.5754V4.51831H5.56323ZM19.1181 18.0244H7.11808V6.0244H19.1181V18.0244Z" fill="black"/>
<path d="M4.9309 5.96863H3.4248V8.98082H4.9309V5.96863Z" fill="black"/>
<path d="M4.9309 9.70923H3.4248V12.7214H4.9309V9.70923Z" fill="black"/>
<path d="M10.6923 7.91956H8.45728V11.5753H10.6923V7.91956Z" fill="black"/>
<path d="M10.6923 12.4247H8.45728V16.0805H10.6923V12.4247Z" fill="black"/>
<path d="M17.6807 14.7985H11.7117V15.5864H17.6807V14.7985Z" fill="black"/>
<path d="M17.6807 12.9183H11.7117V13.7062H17.6807V12.9183Z" fill="black"/>
<path d="M17.6807 8.43701H11.7117V9.22498H17.6807V8.43701Z" fill="black"/>
<path d="M17.6807 10.2703H11.7117V11.0583H17.6807V10.2703Z" fill="black"/>
</svg>
