<svg width="24" height="24" viewBox="0 0 24 24" fill="none" xmlns="http://www.w3.org/2000/svg">
<g clip-path="url(#clip0_723_2175)">
<path d="M20.131 14.6836H18.3826L18.9282 13.7672L18.076 13.246L17.2032 14.6836H16.1766L17.672 12.1927L16.8127 11.6719L15.0057 14.6836H12.4351L11.672 13.3978L13.007 11.168H16.5123V10.1658H13.606L14.1315 9.28127L15.811 9.2733V8.27112L14.7329 8.27815L15.6352 6.76924L14.7816 6.2569L13.8788 7.75971L13.3745 6.81424L12.4923 7.2858L13.2774 8.7694L12.7454 9.65627L11.3743 7.0908L10.4912 7.5619L12.1459 10.6556L10.7691 12.9525H9.36992L7.99508 10.6589L9.64742 7.56518L8.7657 7.08846L7.39508 9.65299L6.86305 8.76237L7.65617 7.2858L6.77305 6.81424L6.26867 7.75971L5.36633 6.25971L4.50336 6.76877L5.40617 8.27815L4.33648 8.27112L4.32664 9.27377L6.00758 9.28174L6.53305 10.1658H3.6268V11.168H7.13211L8.49758 13.4433L7.76305 14.6836H5.34617L3.53914 11.6719L2.67852 12.1927L4.16727 14.6836H3.1407L2.2768 13.2464L1.41523 13.7672L1.96883 14.6836H0.212891V15.6858H1.96883L1.41523 16.6022L2.2768 17.123L3.1407 15.6858H4.16727L2.67852 18.1772L3.53914 18.6975L5.34617 15.6858H7.76445L8.45305 16.8502L7.13352 19.0491H3.6282V20.0517H6.53445L6.00899 20.9358L4.32805 20.9438L4.33789 21.9464L5.40758 21.9394L4.50477 23.4488L5.3668 23.9597L6.26914 22.4597L6.77352 23.4047L7.65664 22.9331L6.86352 21.4571L7.39555 20.5664L8.7657 23.1291L9.64836 22.658L7.99602 19.5614L9.27945 17.4202H10.8615L12.1468 19.5652L10.4921 22.6589L11.3752 23.1305L12.7463 20.565L13.2784 21.4496L12.4923 22.9317L13.3745 23.4028L13.8788 22.4578L14.7816 23.9606L15.6352 23.4483L14.7329 21.9375L15.811 21.9446V20.9438L14.1315 20.9358L13.606 20.0517H16.5123V19.0491H13.0055L11.7188 16.8956L12.4374 15.6858H15.008L16.8151 18.6975L17.672 18.1767L16.1757 15.6858H17.2032L18.0751 17.1235L18.9273 16.6022L18.3816 15.6858H20.1301L20.131 14.6836ZM10.8371 16.418H9.36289L8.63539 15.1852L9.36289 13.9524H10.8371L11.5641 15.1852L10.8371 16.418Z" fill="black"/>
<path d="M23.5753 6.23015L20.7928 6.99421L19.1231 6.0389L20.7928 5.07984L23.5753 5.8439L23.7872 5.09015L21.7547 4.53609L23.7319 3.40827L23.3475 2.72577L21.3731 3.85077L21.9272 1.82718L21.1683 1.62421L20.4108 4.40109L18.7247 5.36484V3.42374L20.7652 1.38796L20.2097 0.832493L18.7247 2.31702V0.0393677H17.9414V2.31702L16.4564 0.832024L15.9009 1.38796L17.9414 3.42374V5.36484L16.2553 4.40109L15.4978 1.62421L14.7389 1.82718L15.293 3.85077L13.3186 2.72577L12.9342 3.40781L14.9077 4.53609L12.8789 5.09062L13.0908 5.8439L14.5392 5.4464L14.5673 5.39906L14.6128 5.42624L15.8733 5.07984L17.543 6.0389L16.4147 6.68437L16.1719 7.09031L15.84 7.64531L16.3092 7.64249L17.9414 6.70921V8.6503L17.04 9.53999V10.1658V10.5619L17.9414 9.75702V11.6236L17.9972 11.6573L18.7247 12.0783V9.75702L20.2097 11.2416L20.7652 10.6861L18.7247 8.6503V6.70921L20.4108 7.67296L21.1683 10.4498L21.9272 10.2469L21.3731 8.22327L23.3475 9.34827L23.7319 8.66577L21.7547 7.53796L23.7872 6.9839L23.5753 6.23015Z" fill="black"/>
<path d="M13.0823 6.2611L13.1235 6.23907L13.0907 6.23016L13.0823 6.2611Z" fill="black"/>
<path d="M13.9112 6.49128L13.9299 6.46035L13.8887 6.4491L13.9112 6.49128Z" fill="black"/>
</g>
<defs>
<clipPath id="clip0_723_2175">
<rect width="24" height="24" fill="white"/>
</clipPath>
</defs>
</svg>
