<svg width="24" height="24" viewBox="0 0 24 24" fill="none" xmlns="http://www.w3.org/2000/svg">
<g clip-path="url(#clip0_723_2174)">
<path d="M17.1736 0H14.6348C12 0 12 3.11391 12 3.11391H14.587C17.1736 3.11391 17.1736 0 17.1736 0Z" fill="black"/>
<path d="M9.40368 3.11391H12.0001C12.0001 3.11391 12.0001 0 9.40368 0H6.81665C6.81665 0 6.81665 3.11391 9.40368 3.11391Z" fill="black"/>
<path d="M9.28118 8.75672C11.0995 6.89062 8.89586 4.6875 8.89586 4.6875L7.07524 6.50766C5.25508 8.37609 7.45867 10.5797 7.45867 10.5797L9.28118 8.75672Z" fill="black"/>
<path d="M5.62873 12.4073L7.44889 10.5867C7.49576 10.5867 5.29264 8.3836 3.42514 10.2038L1.60498 12.0239C1.60498 12.0239 3.80857 14.2275 5.62873 12.4073Z" fill="black"/>
<path d="M15.2003 7.55908C15.2003 7.55908 12.9971 9.76221 14.8745 11.5833L16.6375 13.4035C16.6375 13.4035 18.8406 11.2003 17.0204 9.37971L15.2003 7.55908Z" fill="black"/>
<path d="M18.4688 15.2344C20.2894 17.055 22.493 14.8514 22.493 14.8514L20.6719 13.0313C18.8518 11.2111 16.6482 13.4147 16.6482 13.4147L18.4688 15.2344Z" fill="black"/>
<path d="M12 19.7367C6.44299 19.7367 1.74846 21.509 0.0239258 24H23.9771C22.2516 21.509 17.5571 19.7367 12 19.7367Z" fill="black"/>
<path d="M12.8141 19.2576V18.2034L16.8383 14.2275L15.8324 13.2215L12.8141 16.1916V3.59296H11.2335V13.4133L8.26351 10.4433L7.25757 11.4492L11.2335 15.3773V19.2576H12.8141Z" fill="black"/>
</g>
<defs>
<clipPath id="clip0_723_2174">
<rect width="24" height="24" fill="white"/>
</clipPath>
</defs>
</svg>
