<svg width="24" height="24" viewBox="0 0 24 24" fill="none" xmlns="http://www.w3.org/2000/svg">
<path d="M12.48 19.2H11.52V21.12H12.48V19.2Z" fill="black"/>
<path d="M6.72005 13.44H4.80005V14.4H6.72005V13.44Z" fill="black"/>
<path d="M12.96 12.96V7.20001H11.04V14.88H19.2V12.96H12.96Z" fill="black"/>
<path d="M12 3.83997C6.43219 3.83997 1.92188 8.35215 1.92188 13.9181C1.92188 19.484 6.43406 23.9962 12 23.9962C17.5659 23.9962 22.0781 19.484 22.0781 13.9181C22.0781 8.35215 17.5678 3.83997 12 3.83997ZM12 22.0781C10.3859 22.0781 8.80814 21.5994 7.46616 20.7026C6.12417 19.8058 5.07829 18.5312 4.46078 17.0399C3.84328 15.5487 3.68191 13.9078 3.99707 12.3248C4.31223 10.7418 5.08976 9.28782 6.23134 8.14677C7.37291 7.00573 8.82723 6.22886 10.4104 5.91443C11.9935 5.59999 13.6343 5.76212 15.1253 6.38031C16.6163 6.9985 17.8904 8.04497 18.7866 9.38737C19.6828 10.7298 20.1607 12.3078 20.16 13.9218C20.1604 14.9934 19.9496 16.0545 19.5397 17.0445C19.1297 18.0345 18.5286 18.934 17.7707 19.6915C17.0129 20.449 16.1131 21.0497 15.1229 21.4592C14.1327 21.8687 13.0715 22.079 12 22.0781Z" fill="black"/>
<path d="M13.4401 2.40002H10.5601V3.36002H13.4401V2.40002Z" fill="black"/>
<path d="M18.4151 3.43911L17.562 4.53931L19.8761 6.33367L20.7292 5.23347L18.4151 3.43911Z" fill="black"/>
<path d="M14.4001 0H9.6001V1.92H14.4001V0Z" fill="black"/>
</svg>
