<svg width="24" height="24" viewBox="0 0 24 24" fill="none" xmlns="http://www.w3.org/2000/svg">
<g clip-path="url(#clip0_723_2225)">
<path d="M16.9396 2.5622L16.2186 1.84174L14.9708 3.09049L15.6908 3.81049L4.35645 15.0975L8.87098 19.612L20.1561 8.32549L20.878 9.04689L22.1249 7.7972L21.4546 7.12502L16.9396 2.5622ZM17.5639 8.90158L16.5074 7.84502L16.1718 8.18111L17.2283 9.23767L15.8357 10.6308L14.7791 9.62205L14.4425 9.95814L15.4991 11.0156L13.9138 12.6L11.4163 10.1025L16.6996 4.81924L19.1971 7.31674L17.5639 8.90158Z" fill="black"/>
<path d="M0 23.3723L0.03375 23.4061L0.610313 23.9826L0.61125 23.9836L6.6225 17.9723L6.01125 17.3611L0 23.3723Z" fill="black"/>
<path d="M20.0138 0.0164185L18.7651 1.26517L20.0138 2.51392L18.7168 3.81095L20.206 5.2997L21.5026 4.00267L22.7513 5.25142L24.0001 4.00267L20.0138 0.0164185Z" fill="black"/>
</g>
<defs>
<clipPath id="clip0_723_2225">
<rect width="24" height="24" fill="white"/>
</clipPath>
</defs>
</svg>
