<svg width="24" height="24" viewBox="0 0 24 24" fill="none" xmlns="http://www.w3.org/2000/svg">
<path d="M20.032 0H3.96796C3.59254 0.00330354 3.23343 0.153905 2.96796 0.419377C2.70249 0.684848 2.55189 1.04396 2.54858 1.41938V22.5806C2.55189 22.956 2.70249 23.3152 2.96796 23.5806C3.23343 23.8461 3.59254 23.9967 3.96796 24H20.032C20.4075 23.9968 20.7667 23.8463 21.0322 23.5808C21.2976 23.3153 21.4482 22.9561 21.4514 22.5806V1.41938C21.4482 1.04392 21.2976 0.684741 21.0322 0.419243C20.7667 0.153746 20.4075 0.00318305 20.032 0V0ZM11.9695 22.613C11.8292 22.613 11.6919 22.5713 11.5752 22.4934C11.4585 22.4154 11.3676 22.3045 11.3139 22.1749C11.2601 22.0452 11.2461 21.9025 11.2735 21.7648C11.3009 21.6272 11.3684 21.5007 11.4677 21.4015C11.5669 21.3022 11.6934 21.2346 11.8311 21.2072C11.9687 21.1798 12.1114 21.1939 12.2411 21.2476C12.3708 21.3013 12.4816 21.3923 12.5596 21.509C12.6376 21.6257 12.6792 21.7629 12.6792 21.9033C12.6792 21.9966 12.6608 22.0891 12.625 22.1753C12.5892 22.2615 12.5368 22.3398 12.4707 22.4058C12.4046 22.4717 12.3261 22.5239 12.2398 22.5595C12.1535 22.595 12.061 22.6132 11.9676 22.613H11.9695ZM19.8469 19.9097H4.14374V1.77422H19.8469V19.9097Z" fill="black"/>
<path d="M17.6452 14.8387H10.8708V15.4837H17.6452V14.8387Z" fill="black"/>
<path d="M13.3871 16.0645H10.8708V16.7095H13.3871V16.0645Z" fill="black"/>
<path d="M9.64538 14.3868H6.61304V17.4192H9.64538V14.3868Z" fill="black"/>
<path d="M17.6452 9.74207H10.8708V10.3871H17.6452V9.74207Z" fill="black"/>
<path d="M16.2258 10.9678H10.8708V11.6128H16.2258V10.9678Z" fill="black"/>
<path d="M9.64538 9.29016H6.61304V12.3225H9.64538V9.29016Z" fill="black"/>
<path d="M17.6452 4.58063H10.8708V5.22563H17.6452V4.58063Z" fill="black"/>
<path d="M13.3871 5.87109H10.8708V6.51609H13.3871V5.87109Z" fill="black"/>
<path d="M9.64538 4.12921H6.61304V7.16156H9.64538V4.12921Z" fill="black"/>
</svg>
