<svg width="24" height="24" viewBox="0 0 24 24" fill="none" xmlns="http://www.w3.org/2000/svg">
<g clip-path="url(#clip0_723_2251)">
<path d="M7.4124 11.2088L8.07662 10.545L1.5924 4.06032L1.96928 3.68439L8.45303 10.1644L9.12475 9.49267L2.64475 3.01267L3.02068 2.63626L9.50115 9.11673L10.1729 8.44501L3.6924 1.96454L4.06881 1.58814L10.5493 8.06861L11.2135 7.40392L4.33459 0.525481L2.59272 0.00469971L0.0131836 2.5847L0.533496 4.32611L7.4124 11.2088Z" fill="black"/>
<path d="M23.8342 3.33328L20.8159 6.43734L18.3245 5.67187L17.5572 3.17859L20.6607 0.159838C20.6607 0.159838 12.4609 -1.67016 13.5086 7.31249L0.669964 20.1469C0.245473 20.5651 0.00450177 21.1348 6.24357e-05 21.7307C-0.00437689 22.3266 0.228079 22.8998 0.646292 23.3243C1.06451 23.7488 1.63422 23.9898 2.2301 23.9942C2.82598 23.9986 3.39922 23.7662 3.82371 23.348L3.84762 23.3241L16.6825 10.4855C25.6651 11.5336 23.8342 3.33328 23.8342 3.33328ZM2.97481 22.3425L2.07059 22.5862L1.40637 21.9253L1.65012 21.0216L2.55059 20.7816L3.21106 21.442L2.97481 22.3425Z" fill="black"/>
<path d="M22.1058 19.9411C21.9093 19.882 21.7168 19.8099 21.5297 19.7255L21.3296 19.6317C20.9578 19.4578 20.5983 19.2567 20.2425 19.0557C20.2289 19.0496 20.2135 19.0402 20.1999 19.0327C20.1492 19.0036 20.0986 18.9732 20.0499 18.9422C19.6641 18.7008 19.3378 18.4027 19.0149 18.0802C18.7514 17.8146 18.4875 17.5489 18.2232 17.2833C17.8388 16.9013 17.4572 16.5155 17.0752 16.1335C16.6308 15.6897 16.1874 15.246 15.7449 14.8022C15.5522 14.6082 15.36 14.4122 15.1655 14.2214L14.2332 15.1538C14.4253 15.3478 14.6213 15.5424 14.8121 15.7332C15.2564 16.176 15.7003 16.6192 16.1438 17.063C16.5258 17.4455 16.9111 17.8294 17.295 18.2114C17.5582 18.4758 17.8227 18.7403 18.0886 19.005C18.4139 19.3303 18.7153 19.6613 18.9586 20.0503C18.9882 20.0944 19.0153 20.1403 19.0411 20.1877L19.0655 20.2303C19.2671 20.5885 19.4658 20.9475 19.6402 21.3178C19.6735 21.3882 19.7063 21.4585 19.7367 21.5283C19.821 21.7117 19.892 21.901 19.9491 22.0946L23.1239 23.9916L23.2514 23.8599L23.5566 23.5467L23.8674 23.2439L24 23.1141L22.1058 19.9411Z" fill="black"/>
</g>
<defs>
<clipPath id="clip0_723_2251">
<rect width="24" height="24" fill="white"/>
</clipPath>
</defs>
</svg>
