<svg width="24" height="24" viewBox="0 0 24 24" fill="none" xmlns="http://www.w3.org/2000/svg">
<g clip-path="url(#clip0_723_2171)">
<path d="M13.4709 23.0067V18.6867C13.0741 18.4086 12.7185 18.0758 12.4148 17.6981C11.8297 18.0014 11.2019 18.2138 10.5529 18.3281V23.0128L9.74622 24H14.2968L13.4807 23.0114L13.4709 23.0067Z" fill="black"/>
<path d="M23.9578 13.5802C23.9598 13.0705 23.7995 12.5734 23.5 12.1609C23.2006 11.7484 22.7776 11.442 22.2923 11.2861C22.7867 10.8307 23.1452 10.2471 23.3277 9.60011C23.5102 8.95316 23.5096 8.26826 23.3261 7.6216C23.1426 6.97494 22.7832 6.39187 22.2881 5.93726C21.7929 5.48265 21.1813 5.17432 20.5214 5.04657C20.8826 4.48114 21.0172 3.80021 20.8982 3.13985C20.7792 2.4795 20.4154 1.88837 19.8795 1.48461C19.3436 1.08086 18.6751 0.894211 18.0075 0.96198C17.3399 1.02975 16.7226 1.34694 16.2787 1.85016C16.0394 1.32184 15.6587 0.869905 15.1788 0.544205C14.6989 0.218506 14.1383 0.0317035 13.5589 0.00440537C12.9795 -0.0228927 12.4039 0.110375 11.8955 0.389505C11.387 0.668636 10.9656 1.08278 10.6776 1.58626C9.8733 0.866605 8.83437 0.464595 7.75514 0.455412C6.67591 0.446229 5.63029 0.830503 4.81384 1.53636C3.99739 2.24222 3.46603 3.22133 3.31914 4.29056C3.17225 5.35978 3.41989 6.44591 4.01574 7.34579C3.53853 7.49845 3.11396 7.78241 2.79065 8.16517C2.46733 8.54792 2.25835 9.01399 2.18762 9.51001C1.63148 9.62126 1.12525 9.9068 0.742363 10.3252C0.359481 10.7436 0.119861 11.2731 0.0582671 11.8369C-0.00332696 12.4007 0.116308 12.9695 0.399816 13.4607C0.683325 13.9519 1.11596 14.34 1.63496 14.5688V14.6156C1.62393 14.9973 1.72682 15.3735 1.93051 15.6965C2.13419 16.0194 2.42945 16.2743 2.77861 16.4288C3.12777 16.5832 3.51503 16.6302 3.89098 16.5636C4.26693 16.4971 4.61455 16.3201 4.88949 16.0552C5.86262 17.0696 7.14678 17.7299 8.53804 17.9311C9.92931 18.1322 11.3479 17.8628 12.5686 17.1656C13.0141 17.7751 13.594 18.2737 14.2633 18.6229C14.9326 18.972 15.6733 19.1623 16.4281 19.179C17.1828 19.1957 17.9312 19.0383 18.6153 18.7191C19.2994 18.3998 19.9008 17.9273 20.3728 17.3381C20.6992 17.6598 21.1295 17.8548 21.5866 17.8884C22.0436 17.9219 22.4977 17.7918 22.8677 17.5212C23.2376 17.2506 23.4992 16.8573 23.6057 16.4116C23.7123 15.9658 23.6568 15.4967 23.4492 15.0881C23.7853 14.658 23.9647 14.126 23.9578 13.5802Z" fill="black"/>
</g>
<defs>
<clipPath id="clip0_723_2171">
<rect width="24" height="24" fill="white"/>
</clipPath>
</defs>
</svg>
