<svg width="24" height="24" viewBox="0 0 24 24" fill="none" xmlns="http://www.w3.org/2000/svg">
<g clip-path="url(#clip0_727_316)">
<path d="M24.0001 0H0C0.000667779 8 0.000323309 16 5.79357e-05 24H24.0001C24.0001 16 24.0001 8 24.0001 0ZM18.809 8.50714C18.8197 8.65714 18.8197 8.8125 18.8197 8.9625C18.8197 13.6071 15.284 18.9589 8.82331 18.9589C6.83045 18.9589 4.98224 18.3804 3.42867 17.3839C3.7126 17.4161 3.98581 17.4268 4.2751 17.4268C5.91974 17.4268 7.43045 16.8696 8.63581 15.9268C7.09295 15.8946 5.79653 14.8821 5.35188 13.4893C5.89295 13.5696 6.38045 13.5696 6.9376 13.425C5.33045 13.0982 4.1251 11.6839 4.1251 9.975V9.93214C4.59117 10.1946 5.1376 10.3554 5.71081 10.3768C5.2289 10.0562 4.83384 9.62136 4.56088 9.11098C4.28793 8.60059 4.14558 8.03057 4.14653 7.45179C4.14653 6.79821 4.31795 6.19821 4.62331 5.67857C6.35367 7.81071 8.95188 9.20357 11.8662 9.35357C11.368 6.96964 13.1519 5.03571 15.2947 5.03571C16.3072 5.03571 17.218 5.45893 17.8608 6.14464C18.6537 5.99464 19.4144 5.7 20.0894 5.29821C19.8269 6.1125 19.2751 6.79821 18.5465 7.23214C19.2537 7.15714 19.9394 6.95893 20.5715 6.68571C20.0947 7.3875 19.4947 8.00893 18.809 8.50714Z" fill="black"/>
</g>
<defs>
<clipPath id="clip0_727_316">
<rect width="24" height="24" fill="white"/>
</clipPath>
</defs>
</svg>
