<svg width="24" height="24" viewBox="0 0 24 24" fill="none" xmlns="http://www.w3.org/2000/svg">
<g clip-path="url(#clip0_723_2170)">
<path d="M7.61865 0.0374756H7.32006L7.24928 6.53482H6.75193L6.36381 0.0374756H6.03943L5.87631 6.53482H5.37803L5.08787 0.0374756H4.7635L4.50521 6.53482H4.00693L3.78521 0.0374756H3.48475L3.03662 7.38138L4.97584 8.86732L4.66834 23.999H6.43506L6.12662 8.86732L8.06678 7.38138L7.61865 0.0374756Z" fill="black"/>
<path d="M20.9636 4.60782C20.9636 1.89798 19.8311 0.0192261 18.0414 0.0192261C16.2517 0.0192261 15.1201 1.89798 15.1201 4.60782C15.1201 7.02516 15.9573 9.03563 17.477 9.44251L17.1564 24H18.9236L18.6057 9.4397C20.1264 9.03657 20.9636 7.0261 20.9636 4.60782Z" fill="black"/>
<path d="M12.786 0C10.3785 0.15375 10.251 4.81359 10.251 4.81359V11.258H11.66L11.3436 24H13.1108L12.7911 11.1609L12.786 0Z" fill="black"/>
</g>
<defs>
<clipPath id="clip0_723_2170">
<rect width="24" height="24" fill="white"/>
</clipPath>
</defs>
</svg>
