<svg width="24" height="24" viewBox="0 0 24 24" fill="none" xmlns="http://www.w3.org/2000/svg">
<g clip-path="url(#clip0_723_2206)">
<path d="M13.8966 18.3928V18.8002H10.1512V18.3928H-0.0234375V19.7358H24.0234V18.3928H13.8966Z" fill="black"/>
<path d="M19.5212 6.46545H17.4216V8.56499H19.5212V6.46545Z" fill="black"/>
<path d="M19.5212 9.99939H17.4216V12.0989H19.5212V9.99939Z" fill="black"/>
<path d="M19.5212 13.5441H17.4216V15.6436H19.5212V13.5441Z" fill="black"/>
<path d="M22.0073 4.26562H1.94482V17.7511H22.0073V4.26562ZM2.95311 16.7442V5.27109H21V16.7442H2.95311Z" fill="black"/>
<path d="M4.29785 6.48889V15.6201H15.9843V6.48889H4.29785ZM15.6093 15.2451H4.67285V6.86389H15.6093V15.2451Z" fill="black"/>
<path d="M10.1555 11.7717C10.2245 11.7778 10.2962 11.7848 10.366 11.7848H10.3721C10.4464 11.7851 10.5206 11.7787 10.5938 11.7656C11.3991 11.625 12.0066 10.7691 12.0066 9.77109C12.0066 8.97422 11.6157 8.24953 11.0105 7.92797C10.8332 7.83549 10.6383 7.7815 10.4387 7.76953H10.3187C10.2121 7.77186 10.1063 7.78761 10.0037 7.81641C9.9054 7.84122 9.81084 7.87889 9.72242 7.92844C9.11727 8.24625 8.72633 8.97234 8.72633 9.77813C8.72352 10.7888 9.33945 11.6461 10.1555 11.7717Z" fill="black"/>
<path d="M11.4309 12.1046L11.4201 12.1116C11.1692 12.2684 10.8872 12.369 10.5937 12.4064C10.5271 12.4125 10.4503 12.4191 10.3818 12.4191H10.3692C10.2965 12.4191 10.2168 12.4121 10.1634 12.4064C9.85439 12.3745 9.55753 12.2691 9.29761 12.0989L9.28683 12.0914L7.86792 12.765V14.7014H12.8835V12.765L11.4309 12.1046Z" fill="black"/>
</g>
<defs>
<clipPath id="clip0_723_2206">
<rect width="24" height="24" fill="white"/>
</clipPath>
</defs>
</svg>
