<svg width="24" height="24" viewBox="0 0 24 24" fill="none" xmlns="http://www.w3.org/2000/svg">
<g clip-path="url(#clip0_723_2239)">
<path d="M5.12671 12.8438C6.12515 15.5053 8.17358 17.4891 10.6537 18.0361C11.1128 18.1401 11.5818 18.1932 12.0525 18.1945C12.5526 18.1956 13.051 18.1375 13.5375 18.0216C15.9708 17.4464 17.9798 15.4781 18.9656 12.8438H5.12671Z" fill="black"/>
<path d="M18.3924 4.21173C17.0466 1.73438 14.7136 0.0998535 12.0525 0.0998535C9.38067 0.0998535 7.04161 1.73438 5.69067 4.21173H18.3924Z" fill="black"/>
<path d="M19.2127 4.84454H4.71704C3.60657 4.84454 2.70142 5.71501 2.70142 6.78517V10.2708C2.70142 11.341 3.60517 12.2114 4.71704 12.2114H19.2127C20.3236 12.2114 21.2283 11.341 21.2283 10.2708V6.78517C21.2269 5.71501 20.3236 4.84454 19.2127 4.84454ZM16.5553 9.42189C16.5554 9.58981 16.5033 9.75362 16.4063 9.89064C16.3903 9.91267 16.3739 9.93423 16.3561 9.95486C16.3165 10.0007 16.272 10.042 16.2234 10.0781C16.0703 10.1954 15.8824 10.2581 15.6895 10.2563H8.24017C8.07891 10.2575 7.92051 10.2137 7.78273 10.13C7.64495 10.0462 7.53325 9.92563 7.46017 9.78189C7.41872 9.69998 7.39191 9.61146 7.38095 9.52033C7.37665 9.48784 7.37445 9.45512 7.37438 9.42236V7.6322C7.37444 7.59959 7.37663 7.56702 7.38095 7.5347C7.38585 7.49127 7.39431 7.44831 7.40626 7.40626C7.41984 7.36074 7.43741 7.31651 7.45876 7.27407C7.53156 7.12959 7.64332 7.00834 7.7814 6.92402C7.91948 6.8397 8.07838 6.79566 8.24017 6.79689H15.6895C15.9173 6.79701 16.1364 6.88441 16.3017 7.04111C16.3409 7.07874 16.3763 7.12002 16.4077 7.16439C16.5038 7.30092 16.5554 7.46382 16.5553 7.63079V9.42189Z" fill="black"/>
<path d="M23.9962 22.9331C23.9962 18.855 19.5815 18.855 19.5815 18.855H16.8843C15.6916 19.548 14.3708 19.9919 13.0016 20.16C12.6674 20.1904 12.3032 20.2204 11.9704 20.2204H11.9094C11.5757 20.2204 11.211 20.1904 10.9077 20.16C9.50339 20.0209 8.14667 19.5754 6.93319 18.855H4.41976C4.41976 18.855 0.0716309 18.855 0.00694336 22.8431L0.00366211 23.9001H23.9943L23.9962 22.9331Z" fill="black"/>
</g>
<defs>
<clipPath id="clip0_723_2239">
<rect width="24" height="24" fill="white"/>
</clipPath>
</defs>
</svg>
